  0
SECTION
  2
HEADER
  9
$ACADVER
  1
AC1032
  9
$ACADMAINTVER
 90
4
  9
$DWGCODEPAGE
  3
ANSI_1252
  9
$LASTSAVEDBY
  1
ezdxf
  9
$REQUIREDVERSIONS
160
0
  9
$INSBASE
 10
0.0
 20
0.0
 30
0.0
  9
$EXTMIN
 10
1e+20
 20
1e+20
 30
1e+20
  9
$EXTMAX
 10
-1e+20
 20
-1e+20
 30
-1e+20
  9
$LIMMIN
 10
0.0
 20
0.0
  9
$LIMMAX
 10
420.0
 20
297.0
  9
$ORTHOMODE
 70
0
  9
$REGENMODE
 70
1
  9
$FILLMODE
 70
1
  9
$QTEXTMODE
 70
0
  9
$MIRRTEXT
 70
1
  9
$LTSCALE
 40
1.0
  9
$ATTMODE
 70
1
  9
$TEXTSIZE
 40
2.5
  9
$TRACEWID
 40
1.0
  9
$TEXTSTYLE
  7
Standard
  9
$CLAYER
  8
0
  9
$CELTYPE
  6
ByLayer
  9
$CECOLOR
 62
256
  9
$CELTSCALE
 40
1.0
  9
$DISPSILH
 70
0
  9
$DIMSCALE
 40
1.0
  9
$DIMASZ
 40
2.5
  9
$DIMEXO
 40
0.625
  9
$DIMDLI
 40
3.75
  9
$DIMRND
 40
0.0
  9
$DIMDLE
 40
0.0
  9
$DIMEXE
 40
1.25
  9
$DIMTP
 40
0.0
  9
$DIMTM
 40
0.0
  9
$DIMTXT
 40
2.5
  9
$DIMCEN
 40
2.5
  9
$DIMTSZ
 40
0.0
  9
$DIMTOL
 70
0
  9
$DIMLIM
 70
0
  9
$DIMTIH
 70
0
  9
$DIMTOH
 70
0
  9
$DIMSE1
 70
0
  9
$DIMSE2
 70
0
  9
$DIMTAD
 70
1
  9
$DIMZIN
 70
8
  9
$DIMBLK
  1

  9
$DIMASO
 70
1
  9
$DIMSHO
 70
1
  9
$DIMPOST
  1

  9
$DIMAPOST
  1

  9
$DIMALT
 70
0
  9
$DIMALTD
 70
3
  9
$DIMALTF
 40
0.03937007874
  9
$DIMLFAC
 40
1.0
  9
$DIMTOFL
 70
1
  9
$DIMTVP
 40
0.0
  9
$DIMTIX
 70
0
  9
$DIMSOXD
 70
0
  9
$DIMSAH
 70
0
  9
$DIMBLK1
  1

  9
$DIMBLK2
  1

  9
$DIMSTYLE
  2
ISO-25
  9
$DIMCLRD
 70
0
  9
$DIMCLRE
 70
0
  9
$DIMCLRT
 70
0
  9
$DIMTFAC
 40
1.0
  9
$DIMGAP
 40
0.625
  9
$DIMJUST
 70
0
  9
$DIMSD1
 70
0
  9
$DIMSD2
 70
0
  9
$DIMTOLJ
 70
0
  9
$DIMTZIN
 70
8
  9
$DIMALTZ
 70
0
  9
$DIMALTTZ
 70
0
  9
$DIMUPT
 70
0
  9
$DIMDEC
 70
2
  9
$DIMTDEC
 70
2
  9
$DIMALTU
 70
2
  9
$DIMALTTD
 70
3
  9
$DIMTXSTY
  7
Standard
  9
$DIMAUNIT
 70
0
  9
$DIMADEC
 70
0
  9
$DIMALTRND
 40
0.0
  9
$DIMAZIN
 70
0
  9
$DIMDSEP
 70
44
  9
$DIMATFIT
 70
3
  9
$DIMFRAC
 70
0
  9
$DIMLDRBLK
  1

  9
$DIMLUNIT
 70
2
  9
$DIMLWD
 70
-2
  9
$DIMLWE
 70
-2
  9
$DIMTMOVE
 70
0
  9
$DIMFXL
 40
1.0
  9
$DIMFXLON
 70
0
  9
$DIMJOGANG
 40
0.785398163397
  9
$DIMTFILL
 70
0
  9
$DIMTFILLCLR
 70
0
  9
$DIMARCSYM
 70
0
  9
$DIMLTYPE
  6

  9
$DIMLTEX1
  6

  9
$DIMLTEX2
  6

  9
$DIMTXTDIRECTION
 70
0
  9
$LUNITS
 70
2
  9
$LUPREC
 70
4
  9
$SKETCHINC
 40
1.0
  9
$FILLETRAD
 40
10.0
  9
$AUNITS
 70
0
  9
$AUPREC
 70
2
  9
$MENU
  1
.
  9
$ELEVATION
 40
0.0
  9
$PELEVATION
 40
0.0
  9
$THICKNESS
 40
0.0
  9
$LIMCHECK
 70
0
  9
$CHAMFERA
 40
0.0
  9
$CHAMFERB
 40
0.0
  9
$CHAMFERC
 40
0.0
  9
$CHAMFERD
 40
0.0
  9
$SKPOLY
 70
0
  9
$TDCREATE
 40
2451545.0
  9
$TDUCREATE
 40
2451545.0
  9
$TDUPDATE
 40
2451545.0
  9
$TDUUPDATE
 40
2451545.0
  9
$TDINDWG
 40
0.0
  9
$TDUSRTIMER
 40
0.0
  9
$USRTIMER
 70
1
  9
$ANGBASE
 50
0.0
  9
$ANGDIR
 70
0
  9
$PDMODE
 70
0
  9
$PDSIZE
 40
0.0
  9
$PLINEWID
 40
0.0
  9
$SPLFRAME
 70
0
  9
$SPLINETYPE
 70
6
  9
$SPLINESEGS
 70
8
  9
$HANDSEED
  5
166
  9
$SURFTAB1
 70
6
  9
$SURFTAB2
 70
6
  9
$SURFTYPE
 70
6
  9
$SURFU
 70
6
  9
$SURFV
 70
6
  9
$UCSBASE
  2

  9
$UCSNAME
  2

  9
$UCSORG
 10
0.0
 20
0.0
 30
0.0
  9
$UCSXDIR
 10
1.0
 20
0.0
 30
0.0
  9
$UCSYDIR
 10
0.0
 20
1.0
 30
0.0
  9
$UCSORTHOREF
  2

  9
$UCSORTHOVIEW
 70
0
  9
$UCSORGTOP
 10
0.0
 20
0.0
 30
0.0
  9
$UCSORGBOTTOM
 10
0.0
 20
0.0
 30
0.0
  9
$UCSORGLEFT
 10
0.0
 20
0.0
 30
0.0
  9
$UCSORGRIGHT
 10
0.0
 20
0.0
 30
0.0
  9
$UCSORGFRONT
 10
0.0
 20
0.0
 30
0.0
  9
$UCSORGBACK
 10
0.0
 20
0.0
 30
0.0
  9
$PUCSBASE
  2

  9
$PUCSNAME
  2

  9
$PUCSORG
 10
0.0
 20
0.0
 30
0.0
  9
$PUCSXDIR
 10
1.0
 20
0.0
 30
0.0
  9
$PUCSYDIR
 10
0.0
 20
1.0
 30
0.0
  9
$PUCSORTHOREF
  2

  9
$PUCSORTHOVIEW
 70
0
  9
$PUCSORGTOP
 10
0.0
 20
0.0
 30
0.0
  9
$PUCSORGBOTTOM
 10
0.0
 20
0.0
 30
0.0
  9
$PUCSORGLEFT
 10
0.0
 20
0.0
 30
0.0
  9
$PUCSORGRIGHT
 10
0.0
 20
0.0
 30
0.0
  9
$PUCSORGFRONT
 10
0.0
 20
0.0
 30
0.0
  9
$PUCSORGBACK
 10
0.0
 20
0.0
 30
0.0
  9
$USERI1
 70
0
  9
$USERI2
 70
0
  9
$USERI3
 70
0
  9
$USERI4
 70
0
  9
$USERI5
 70
0
  9
$USERR1
 40
0.0
  9
$USERR2
 40
0.0
  9
$USERR3
 40
0.0
  9
$USERR4
 40
0.0
  9
$USERR5
 40
0.0
  9
$WORLDVIEW
 70
1
  9
$SHADEDGE
 70
3
  9
$SHADEDIF
 70
70
  9
$TILEMODE
 70
1
  9
$MAXACTVP
 70
64
  9
$PINSBASE
 10
0.0
 20
0.0
 30
0.0
  9
$PLIMCHECK
 70
0
  9
$PEXTMIN
 10
1e+20
 20
1e+20
 30
1e+20
  9
$PEXTMAX
 10
-1e+20
 20
-1e+20
 30
-1e+20
  9
$PLIMMIN
 10
0.0
 20
0.0
  9
$PLIMMAX
 10
420.0
 20
297.0
  9
$UNITMODE
 70
0
  9
$VISRETAIN
 70
1
  9
$PLINEGEN
 70
0
  9
$PSLTSCALE
 70
1
  9
$TREEDEPTH
 70
3020
  9
$CMLSTYLE
  2
Standard
  9
$CMLJUST
 70
0
  9
$CMLSCALE
 40
20.0
  9
$PROXYGRAPHICS
 70
1
  9
$MEASUREMENT
 70
1
  9
$CELWEIGHT
370
-1
  9
$ENDCAPS
280
0
  9
$JOINSTYLE
280
0
  9
$LWDISPLAY
290
1
  9
$INSUNITS
 70
4
  9
$HYPERLINKBASE
  1

  9
$STYLESHEET
  1

  9
$XEDIT
290
1
  9
$CEPSNTYPE
380
0
  9
$PSTYLEMODE
290
1
  9
$FINGERPRINTGUID
  2
{00000000-0000-0000-0000-000000000000}
  9
$VERSIONGUID
  2
{00000000-0000-0000-0000-000000000000}
  9
$EXTNAMES
290
1
  9
$PSVPSCALE
 40
0.0
  9
$OLESTARTUP
290
0
  9
$SORTENTS
280
127
  9
$INDEXCTL
280
0
  9
$HIDETEXT
280
1
  9
$XCLIPFRAME
280
1
  9
$HALOGAP
280
0
  9
$OBSCOLOR
 70
257
  9
$OBSLTYPE
280
0
  9
$INTERSECTIONDISPLAY
280
0
  9
$INTERSECTIONCOLOR
 70
257
  9
$DIMASSOC
280
2
  9
$PROJECTNAME
  1

  9
$CAMERADISPLAY
290
0
  9
$LENSLENGTH
 40
50.0
  9
$CAMERAHEIGHT
 40
0.0
  9
$STEPSPERSEC
 40
24.0
  9
$STEPSIZE
 40
100.0
  9
$3DDWFPREC
 40
2.0
  9
$PSOLWIDTH
 40
0.005
  9
$PSOLHEIGHT
 40
0.08
  9
$LOFTANG1
 40
1.570796326795
  9
$LOFTANG2
 40
1.570796326795
  9
$LOFTMAG1
 40
0.0
  9
$LOFTMAG2
 40
0.0
  9
$LOFTPARAM
 70
7
  9
$LOFTNORMALS
280
1
  9
$LATITUDE
 40
37.795
  9
$LONGITUDE
 40
-122.394
  9
$NORTHDIRECTION
 40
0.0
  9
$TIMEZONE
 70
-8000
  9
$LIGHTGLYPHDISPLAY
280
1
  9
$TILEMODELIGHTSYNCH
280
1
  9
$CMATERIAL
347
20
  9
$SOLIDHIST
280
0
  9
$SHOWHIST
280
1
  9
$DWFFRAME
280
2
  9
$DGNFRAME
280
2
  9
$REALWORLDSCALE
290
1
  9
$INTERFERECOLOR
 62
256
  9
$CSHADOW
280
0
  9
$SHADOWPLANELOCATION
 40
0.0
  0
ENDSEC
  0
SECTION
  2
CLASSES
  0
CLASS
  1
ACDBDICTIONARYWDFLT
  2
AcDbDictionaryWithDefault
  3
ObjectDBX Classes
 90
0
 91
0
280
0
281
0
  0
CLASS
  1
SUN
  2
AcDbSun
  3
SCENEOE
 90
1153
 91
0
280
0
281
0
  0
CLASS
  1
VISUALSTYLE
  2
AcDbVisualStyle
  3
ObjectDBX Classes
 90
4095
 91
0
280
0
281
0
  0
CLASS
  1
MATERIAL
  2
AcDbMaterial
  3
ObjectDBX Classes
 90
1153
 91
0
280
0
281
0
  0
CLASS
  1
SCALE
  2
AcDbScale
  3
ObjectDBX Classes
 90
1153
 91
0
280
0
281
0
  0
CLASS
  1
TABLESTYLE
  2
AcDbTableStyle
  3
ObjectDBX Classes
 90
4095
 91
0
280
0
281
0
  0
CLASS
  1
MLEADERSTYLE
  2
AcDbMLeaderStyle
  3
ACDB_MLEADERSTYLE_CLASS
 90
4095
 91
0
280
0
281
0
  0
CLASS
  1
DICTIONARYVAR
  2
AcDbDictionaryVar
  3
ObjectDBX Classes
 90
0
 91
0
280
0
281
0
  0
CLASS
  1
CELLSTYLEMAP
  2
AcDbCellStyleMap
  3
ObjectDBX Classes
 90
1152
 91
0
280
0
281
0
  0
CLASS
  1
MENTALRAYRENDERSETTINGS
  2
AcDbMentalRayRenderSettings
  3
SCENEOE
 90
1024
 91
0
280
0
281
0
  0
CLASS
  1
ACDBDETAILVIEWSTYLE
  2
AcDbDetailViewStyle
  3
ObjectDBX Classes
 90
1025
 91
0
280
0
281
0
  0
CLASS
  1
ACDBSECTIONVIEWSTYLE
  2
AcDbSectionViewStyle
  3
ObjectDBX Classes
 90
1025
 91
0
280
0
281
0
  0
CLASS
  1
RASTERVARIABLES
  2
AcDbRasterVariables
  3
ISM
 90
0
 91
0
280
0
281
0
  0
CLASS
  1
ACDBPLACEHOLDER
  2
AcDbPlaceHolder
  3
ObjectDBX Classes
 90
0
 91
0
280
0
281
0
  0
CLASS
  1
LAYOUT
  2
AcDbLayout
  3
ObjectDBX Classes
 90
0
 91
0
280
0
281
0
  0
ENDSEC
  0
SECTION
  2
TABLES
  0
TABLE
  2
VPORT
  5
8
330
0
100
AcDbSymbolTable
 70
1
  0
VPORT
  5
23
330
8
100
AcDbSymbolTableRecord
100
AcDbViewportTableRecord
  2
*Active
 70
0
 10
0.0
 20
0.0
 11
1.0
 21
1.0
 12
0.0
 22
0.0
 13
0.0
 23
0.0
 14
0.5
 24
0.5
 15
0.5
 25
0.5
 16
0.0
 26
0.0
 36
1.0
 17
0.0
 27
0.0
 37
0.0
 40
1000.0
 41
1.34
 42
50.0
 43
0.0
 44
0.0
 50
0.0
 51
0.0
 71
0
 72
1000
 73
1
 74
3
 75
0
 76
0
 77
0
 78
0
281
0
 65
0
146
0.0
  0
ENDTAB
  0
TABLE
  2
LTYPE
  5
2
330
0
100
AcDbSymbolTable
 70
5
  0
LTYPE
  5
24
330
2
100
AcDbSymbolTableRecord
100
AcDbLinetypeTableRecord
  2
ByBlock
 70
0
  3

 72
65
 73
0
 40
0.0
  0
LTYPE
  5
25
330
2
100
AcDbSymbolTableRecord
100
AcDbLinetypeTableRecord
  2
ByLayer
 70
0
  3

 72
65
 73
0
 40
0.0
  0
LTYPE
  5
26
330
2
100
AcDbSymbolTableRecord
100
AcDbLinetypeTableRecord
  2
Continuous
 70
0
  3

 72
65
 73
0
 40
0.0
  0
LTYPE
  5
2F
330
2
100
AcDbSymbolTableRecord
100
AcDbLinetypeTableRecord
  2
CENTER
 70
0
  3
中心线
 72
65
 73
4
 40
20.0
 49
12.0
 74
0
 49
-3.0
 74
0
 49
2.0
 74
0
 49
-3.0
 74
0
  0
LTYPE
  5
30
330
2
100
AcDbSymbolTableRecord
100
AcDbLinetypeTableRecord
  2
RESERVED
 70
0
  3
预留设施
 72
65
 73
2
 40
9.0
 49
6.0
 74
0
 49
-3.0
 74
0
  0
ENDTAB
  0
TABLE
  2
LAYER
  5
1
330
0
100
AcDbSymbolTable
 70
19
  0
LAYER
  5
27
330
1
100
AcDbSymbolTableRecord
100
AcDbLayerTableRecord
  2
0
 70
0
 62
7
  6
Continuous
370
-3
390
13
347
21
  0
LAYER
  5
28
330
1
100
AcDbSymbolTableRecord
100
AcDbLayerTableRecord
  2
Defpoints
 70
0
 62
7
  6
Continuous
290
0
370
-3
390
13
347
21
  0
LAYER
  5
31
330
1
100
AcDbSymbolTableRecord
100
AcDbLayerTableRecord
  2
C-BOUNDARY
 70
0
 62
7
  6
CONTINUOUS
370
50
390
13
347
21
  0
LAYER
  5
32
330
1
100
AcDbSymbolTableRecord
100
AcDbLayerTableRecord
  2
C-FENCE
 70
0
 62
7
  6
CONTINUOUS
370
35
390
13
347
21
  0
LAYER
  5
33
330
1
100
AcDbSymbolTableRecord
100
AcDbLayerTableRecord
  2
C-ROAD
 70
0
 62
8
  6
CONTINUOUS
370
25
390
13
347
21
  0
LAYER
  5
34
330
1
100
AcDbSymbolTableRecord
100
AcDbLayerTableRecord
  2
C-BUS
 70
0
 62
1
  6
CONTINUOUS
370
70
390
13
347
21
  0
LAYER
  5
35
330
1
100
AcDbSymbolTableRecord
100
AcDbLayerTableRecord
  2
C-CONDUCTOR
 70
0
 62
7
  6
CONTINUOUS
370
35
390
13
347
21
  0
LAYER
  5
36
330
1
100
AcDbSymbolTableRecord
100
AcDbLayerTableRecord
  2
C-EQUIPMENT
 70
0
 62
7
  6
CONTINUOUS
370
35
390
13
347
21
  0
LAYER
  5
37
330
1
100
AcDbSymbolTableRecord
100
AcDbLayerTableRecord
  2
C-STRUCTURE
 70
0
 62
6
  6
CONTINUOUS
370
35
390
13
347
21
  0
LAYER
  5
38
330
1
100
AcDbSymbolTableRecord
100
AcDbLayerTableRecord
  2
C-FOUNDATION
 70
0
 62
8
  6
CONTINUOUS
370
25
390
13
347
21
  0
LAYER
  5
39
330
1
100
AcDbSymbolTableRecord
100
AcDbLayerTableRecord
  2
C-BUILDING
 70
0
 62
3
  6
CONTINUOUS
370
40
390
13
347
21
  0
LAYER
  5
3A
330
1
100
AcDbSymbolTableRecord
100
AcDbLayerTableRecord
  2
C-CENTER
 70
0
 62
4
  6
CENTER
370
18
390
13
347
21
  0
LAYER
  5
3B
330
1
100
AcDbSymbolTableRecord
100
AcDbLayerTableRecord
  2
C-DIM
 70
0
 62
2
  6
CONTINUOUS
370
18
390
13
347
21
  0
LAYER
  5
3C
330
1
100
AcDbSymbolTableRecord
100
AcDbLayerTableRecord
  2
C-TEXT
 70
0
 62
7
  6
CONTINUOUS
370
18
390
13
347
21
  0
LAYER
  5
3D
330
1
100
AcDbSymbolTableRecord
100
AcDbLayerTableRecord
  2
C-NOTE
 70
0
 62
7
  6
CONTINUOUS
370
18
390
13
347
21
  0
LAYER
  5
3E
330
1
100
AcDbSymbolTableRecord
100
AcDbLayerTableRecord
  2
C-RESERVED
 70
0
 62
8
  6
RESERVED
370
25
390
13
347
21
  0
LAYER
  5
3F
330
1
100
AcDbSymbolTableRecord
100
AcDbLayerTableRecord
  2
C-FRAME
 70
0
 62
7
  6
CONTINUOUS
370
50
390
13
347
21
  0
LAYER
  5
40
330
1
100
AcDbSymbolTableRecord
100
AcDbLayerTableRecord
  2
C-TITLE
 70
0
 62
7
  6
CONTINUOUS
370
25
390
13
347
21
  0
LAYER
  5
41
330
1
100
AcDbSymbolTableRecord
100
AcDbLayerTableRecord
  2
C-NOPLOT-GUIDE
 70
0
 62
9
  6
CONTINUOUS
290
0
370
9
390
13
347
21
  0
ENDTAB
  0
TABLE
  2
STYLE
  5
5
330
0
100
AcDbSymbolTable
 70
3
  0
STYLE
  5
29
330
5
100
AcDbSymbolTableRecord
100
AcDbTextStyleTableRecord
  2
Standard
 70
0
 40
0.0
 41
1.0
 50
0.0
 71
0
 42
2.5
  3
txt
  4

  0
STYLE
  5
42
330
5
100
AcDbSymbolTableRecord
100
AcDbTextStyleTableRecord
  2
HZTXT
 70
0
 40
0.0
 41
1.0
 50
0.0
 71
0
 42
2.5
  3
txt.shx
  4
gbcbig.shx
  0
STYLE
  5
43
330
5
100
AcDbSymbolTableRecord
100
AcDbTextStyleTableRecord
  2
LATIN
 70
0
 40
0.0
 41
1.0
 50
0.0
 71
0
 42
2.5
  3
arial.ttf
  4

  0
ENDTAB
  0
TABLE
  2
VIEW
  5
7
330
0
100
AcDbSymbolTable
 70
0
  0
ENDTAB
  0
TABLE
  2
UCS
  5
6
330
0
100
AcDbSymbolTable
 70
0
  0
ENDTAB
  0
TABLE
  2
APPID
  5
3
330
0
100
AcDbSymbolTable
 70
3
  0
APPID
  5
2A
330
3
100
AcDbSymbolTableRecord
100
AcDbRegAppTableRecord
  2
ACAD
 70
0
  0
APPID
  5
163
330
3
100
AcDbSymbolTableRecord
100
AcDbRegAppTableRecord
  2
HATCHBACKGROUNDCOLOR
 70
0
  0
APPID
  5
164
330
3
100
AcDbSymbolTableRecord
100
AcDbRegAppTableRecord
  2
EZDXF
 70
0
  0
ENDTAB
  0
TABLE
  2
DIMSTYLE
  5
4
330
0
100
AcDbSymbolTable
 70
1
100
AcDbDimStyleTable
  0
DIMSTYLE
105
2B
330
4
100
AcDbSymbolTableRecord
100
AcDbDimStyleTableRecord
  2
Standard
 70
0
 40
1.0
 41
2.5
 42
0.625
 43
3.75
 44
1.25
 45
0.0
 46
0.0
 47
0.0
 48
0.0
 49
2.5
140
2.5
141
2.5
142
0.0
143
0.03937007874
144
1.0
145
0.0
146
1.0
147
0.625
148
0.0
 69
0
 70
0
 71
0
 72
0
 73
0
 74
0
 75
0
 76
0
 77
1
 78
8
 79
3
170
0
171
3
172
1
173
0
174
0
175
0
176
0
177
0
178
0
179
2
271
2
272
2
273
2
274
3
275
0
276
0
277
2
278
44
279
0
280
0
281
0
282
0
283
0
284
8
285
0
286
0
288
0
289
3
290
0
371
-2
372
-2
  0
ENDTAB
  0
TABLE
  2
BLOCK_RECORD
  5
9
330
0
100
AcDbSymbolTable
 70
2
  0
BLOCK_RECORD
  5
17
330
9
100
AcDbSymbolTableRecord
100
AcDbBlockTableRecord
  2
*Model_Space
340
1A
 70
0
280
1
281
0
  0
BLOCK_RECORD
  5
1B
330
9
100
AcDbSymbolTableRecord
100
AcDbBlockTableRecord
  2
*Paper_Space
340
1E
 70
0
280
1
281
0
  0
ENDTAB
  0
ENDSEC
  0
SECTION
  2
BLOCKS
  0
BLOCK
  5
18
330
17
100
AcDbEntity
  8
0
100
AcDbBlockBegin
  2
*Model_Space
 70
0
 10
0.0
 20
0.0
 30
0.0
  3
*Model_Space
  1

  0
ENDBLK
  5
19
330
17
100
AcDbEntity
  8
0
100
AcDbBlockEnd
  0
BLOCK
  5
1C
330
1B
100
AcDbEntity
  8
0
100
AcDbBlockBegin
  2
*Paper_Space
 70
0
 10
0.0
 20
0.0
 30
0.0
  3
*Paper_Space
  1

  0
ENDBLK
  5
1D
330
1B
100
AcDbEntity
  8
0
100
AcDbBlockEnd
  0
ENDSEC
  0
SECTION
  2
ENTITIES
  0
LWPOLYLINE
  5
44
330
17
100
AcDbEntity
  8
C-FRAME
100
AcDbPolyline
 90
4
 70
1
 10
10.0
 20
10.0
 10
831.0
 20
10.0
 10
831.0
 20
584.0
 10
10.0
 20
584.0
  0
LWPOLYLINE
  5
45
330
17
100
AcDbEntity
  8
C-FRAME
100
AcDbPolyline
 90
4
 70
1
 10
25.0
 20
10.0
 10
831.0
 20
10.0
 10
831.0
 20
584.0
 10
25.0
 20
584.0
  0
LWPOLYLINE
  5
46
330
17
100
AcDbEntity
  8
C-TITLE
100
AcDbPolyline
 90
4
 70
1
 10
651.0
 20
10.0
 10
831.0
 20
10.0
 10
831.0
 20
66.0
 10
651.0
 20
66.0
  0
LINE
  5
47
330
17
100
AcDbEntity
  8
C-TITLE
100
AcDbLine
 10
651.0
 20
24.0
 30
0.0
 11
831.0
 21
24.0
 31
0.0
  0
LINE
  5
48
330
17
100
AcDbEntity
  8
C-TITLE
100
AcDbLine
 10
651.0
 20
38.0
 30
0.0
 11
831.0
 21
38.0
 31
0.0
  0
LINE
  5
49
330
17
100
AcDbEntity
  8
C-TITLE
100
AcDbLine
 10
651.0
 20
52.0
 30
0.0
 11
831.0
 21
52.0
 31
0.0
  0
LINE
  5
4A
330
17
100
AcDbEntity
  8
C-TITLE
100
AcDbLine
 10
711.0
 20
10.0
 30
0.0
 11
711.0
 21
24.0
 31
0.0
  0
LINE
  5
4B
330
17
100
AcDbEntity
  8
C-TITLE
100
AcDbLine
 10
751.0
 20
10.0
 30
0.0
 11
751.0
 21
24.0
 31
0.0
  0
LINE
  5
4C
330
17
100
AcDbEntity
  8
C-TITLE
100
AcDbLine
 10
771.0
 20
10.0
 30
0.0
 11
771.0
 21
24.0
 31
0.0
  0
LINE
  5
4D
330
17
100
AcDbEntity
  8
C-TITLE
100
AcDbLine
 10
791.0
 20
10.0
 30
0.0
 11
791.0
 21
24.0
 31
0.0
  0
LINE
  5
4E
330
17
100
AcDbEntity
  8
C-TITLE
100
AcDbLine
 10
771.0
 20
38.0
 30
0.0
 11
771.0
 21
66.0
 31
0.0
  0
MTEXT
  5
4F
330
17
100
AcDbEntity
  8
C-TITLE
100
AcDbMText
 10
711.0
 20
59.0
 30
0.0
 40
4.2
 41
116.0
 71
5
  1
220kV I段L1线路间隔断面详图
  7
HZTXT
  0
MTEXT
  5
50
330
17
100
AcDbEntity
  8
C-TITLE
100
AcDbMText
 10
801.0
 20
59.0
 30
0.0
 40
2.6
 41
56.0
 71
5
  1
图号 SEC-220-L1-01
  7
HZTXT
  0
MTEXT
  5
51
330
17
100
AcDbEntity
  8
C-TITLE
100
AcDbMText
 10
801.0
 20
45.0
 30
0.0
 40
2.6
 41
56.0
 71
5
  1
第1张 共1张
  7
HZTXT
  0
MTEXT
  5
52
330
17
100
AcDbEntity
  8
C-TITLE
100
AcDbMText
 10
741.0
 20
31.0
 30
0.0
 40
2.8
 41
174.0
 71
5
  1
220kV新能源汇集变电所电气一次部分
  7
HZTXT
  0
MTEXT
  5
53
330
17
100
AcDbEntity
  8
C-TITLE
100
AcDbMText
 10
681.0
 20
17.0
 30
0.0
 40
2.5
 41
56.0
 71
5
  1
课程设计
  7
HZTXT
  0
MTEXT
  5
54
330
17
100
AcDbEntity
  8
C-TITLE
100
AcDbMText
 10
731.0
 20
17.0
 30
0.0
 40
2.3
 41
36.0
 71
5
  1
设计：
  7
HZTXT
  0
MTEXT
  5
55
330
17
100
AcDbEntity
  8
C-TITLE
100
AcDbMText
 10
771.0
 20
17.0
 30
0.0
 40
2.3
 41
36.0
 71
5
  1
校核：
  7
HZTXT
  0
MTEXT
  5
56
330
17
100
AcDbEntity
  8
C-TITLE
100
AcDbMText
 10
811.0
 20
17.0
 30
0.0
 40
2.3
 41
36.0
 71
5
  1
比例 1:50
  7
HZTXT
  0
MTEXT
  5
57
330
17
100
AcDbEntity
  8
C-TITLE
100
AcDbMText
 10
420.5
 20
565.0
 30
0.0
 40
6.0
 41
600.0
 71
5
  1
220kV I段L1线路间隔断面详图
  7
HZTXT
  0
LINE
  5
58
330
17
100
AcDbEntity
  8
C-FOUNDATION
100
AcDbLine
 10
65.0
 20
120.0
 30
0.0
 11
745.0
 21
120.0
 31
0.0
  0
MTEXT
  5
59
330
17
100
AcDbEntity
  8
C-DIM
100
AcDbMText
 10
71.0
 20
127.0
 30
0.0
 40
2.4
 41
42.0
 71
1
  1
±0.000
  7
HZTXT
  0
LWPOLYLINE
  5
5A
330
17
100
AcDbEntity
  8
C-FOUNDATION
100
AcDbPolyline
 90
4
 70
1
 10
91.0
 20
117.0
 10
119.0
 20
117.0
 10
119.0
 20
125.0
 10
91.0
 20
125.0
  0
LINE
  5
5B
330
17
100
AcDbEntity
  8
C-EQUIPMENT
100
AcDbLine
 10
105.0
 20
125.0
 30
0.0
 11
105.0
 21
300.0
 31
0.0
  0
LINE
  5
5C
330
17
100
AcDbEntity
  8
C-EQUIPMENT
100
AcDbLine
 10
99.4
 20
146.875
 30
0.0
 11
110.6
 21
146.875
 31
0.0
  0
LINE
  5
5D
330
17
100
AcDbEntity
  8
C-EQUIPMENT
100
AcDbLine
 10
99.4
 20
168.75
 30
0.0
 11
110.6
 21
168.75
 31
0.0
  0
LINE
  5
5E
330
17
100
AcDbEntity
  8
C-EQUIPMENT
100
AcDbLine
 10
99.4
 20
190.625
 30
0.0
 11
110.6
 21
190.625
 31
0.0
  0
LINE
  5
5F
330
17
100
AcDbEntity
  8
C-EQUIPMENT
100
AcDbLine
 10
99.4
 20
212.5
 30
0.0
 11
110.6
 21
212.5
 31
0.0
  0
LINE
  5
60
330
17
100
AcDbEntity
  8
C-EQUIPMENT
100
AcDbLine
 10
99.4
 20
234.375
 30
0.0
 11
110.6
 21
234.375
 31
0.0
  0
LINE
  5
61
330
17
100
AcDbEntity
  8
C-EQUIPMENT
100
AcDbLine
 10
99.4
 20
256.25
 30
0.0
 11
110.6
 21
256.25
 31
0.0
  0
LINE
  5
62
330
17
100
AcDbEntity
  8
C-EQUIPMENT
100
AcDbLine
 10
99.4
 20
278.125
 30
0.0
 11
110.6
 21
278.125
 31
0.0
  0
CIRCLE
  5
63
330
17
100
AcDbEntity
  8
C-BUS
100
AcDbCircle
 10
105.0
 20
300.0
 30
0.0
 40
3.5999999999999996
  0
MTEXT
  5
64
330
17
100
AcDbEntity
  8
C-TEXT
100
AcDbMText
 10
105.0
 20
135.0
 30
0.0
 40
2.1
 41
76.0
 71
2
  1
220kV I段Φ100/90管母
  7
HZTXT
  0
MTEXT
  5
65
330
17
100
AcDbEntity
  8
C-TEXT
100
AcDbMText
 10
105.0
 20
314.0
 30
0.0
 40
2.0
 41
100.0
 71
2
  1
220-L1-BUS
  7
HZTXT
  0
LWPOLYLINE
  5
66
330
17
100
AcDbEntity
  8
C-FOUNDATION
100
AcDbPolyline
 90
4
 70
1
 10
171.0
 20
117.0
 10
199.0
 20
117.0
 10
199.0
 20
125.0
 10
171.0
 20
125.0
  0
LINE
  5
67
330
17
100
AcDbEntity
  8
C-EQUIPMENT
100
AcDbLine
 10
169.0
 20
125.0
 30
0.0
 11
169.0
 21
232.0
 31
0.0
  0
LINE
  5
68
330
17
100
AcDbEntity
  8
C-EQUIPMENT
100
AcDbLine
 10
163.4
 20
138.375
 30
0.0
 11
174.6
 21
138.375
 31
0.0
  0
LINE
  5
69
330
17
100
AcDbEntity
  8
C-EQUIPMENT
100
AcDbLine
 10
163.4
 20
151.75
 30
0.0
 11
174.6
 21
151.75
 31
0.0
  0
LINE
  5
6A
330
17
100
AcDbEntity
  8
C-EQUIPMENT
100
AcDbLine
 10
163.4
 20
165.125
 30
0.0
 11
174.6
 21
165.125
 31
0.0
  0
LINE
  5
6B
330
17
100
AcDbEntity
  8
C-EQUIPMENT
100
AcDbLine
 10
163.4
 20
178.5
 30
0.0
 11
174.6
 21
178.5
 31
0.0
  0
LINE
  5
6C
330
17
100
AcDbEntity
  8
C-EQUIPMENT
100
AcDbLine
 10
163.4
 20
191.875
 30
0.0
 11
174.6
 21
191.875
 31
0.0
  0
LINE
  5
6D
330
17
100
AcDbEntity
  8
C-EQUIPMENT
100
AcDbLine
 10
163.4
 20
205.25
 30
0.0
 11
174.6
 21
205.25
 31
0.0
  0
LINE
  5
6E
330
17
100
AcDbEntity
  8
C-EQUIPMENT
100
AcDbLine
 10
163.4
 20
218.625
 30
0.0
 11
174.6
 21
218.625
 31
0.0
  0
LINE
  5
6F
330
17
100
AcDbEntity
  8
C-EQUIPMENT
100
AcDbLine
 10
201.0
 20
125.0
 30
0.0
 11
201.0
 21
232.0
 31
0.0
  0
LINE
  5
70
330
17
100
AcDbEntity
  8
C-EQUIPMENT
100
AcDbLine
 10
195.4
 20
138.375
 30
0.0
 11
206.6
 21
138.375
 31
0.0
  0
LINE
  5
71
330
17
100
AcDbEntity
  8
C-EQUIPMENT
100
AcDbLine
 10
195.4
 20
151.75
 30
0.0
 11
206.6
 21
151.75
 31
0.0
  0
LINE
  5
72
330
17
100
AcDbEntity
  8
C-EQUIPMENT
100
AcDbLine
 10
195.4
 20
165.125
 30
0.0
 11
206.6
 21
165.125
 31
0.0
  0
LINE
  5
73
330
17
100
AcDbEntity
  8
C-EQUIPMENT
100
AcDbLine
 10
195.4
 20
178.5
 30
0.0
 11
206.6
 21
178.5
 31
0.0
  0
LINE
  5
74
330
17
100
AcDbEntity
  8
C-EQUIPMENT
100
AcDbLine
 10
195.4
 20
191.875
 30
0.0
 11
206.6
 21
191.875
 31
0.0
  0
LINE
  5
75
330
17
100
AcDbEntity
  8
C-EQUIPMENT
100
AcDbLine
 10
195.4
 20
205.25
 30
0.0
 11
206.6
 21
205.25
 31
0.0
  0
LINE
  5
76
330
17
100
AcDbEntity
  8
C-EQUIPMENT
100
AcDbLine
 10
195.4
 20
218.625
 30
0.0
 11
206.6
 21
218.625
 31
0.0
  0
LINE
  5
77
330
17
100
AcDbEntity
  8
C-EQUIPMENT
100
AcDbLine
 10
169.0
 20
232.0
 30
0.0
 11
201.0
 21
240.0
 31
0.0
  0
MTEXT
  5
78
330
17
100
AcDbEntity
  8
C-TEXT
100
AcDbMText
 10
185.0
 20
135.0
 30
0.0
 40
2.1
 41
76.0
 71
2
  1
母线侧QS
  7
HZTXT
  0
MTEXT
  5
79
330
17
100
AcDbEntity
  8
C-TEXT
100
AcDbMText
 10
185.0
 20
254.0
 30
0.0
 40
2.0
 41
100.0
 71
2
  1
220-L1-QS1
  7
HZTXT
  0
LWPOLYLINE
  5
7A
330
17
100
AcDbEntity
  8
C-FOUNDATION
100
AcDbPolyline
 90
4
 70
1
 10
251.0
 20
117.0
 10
279.0
 20
117.0
 10
279.0
 20
125.0
 10
251.0
 20
125.0
  0
LINE
  5
7B
330
17
100
AcDbEntity
  8
C-EQUIPMENT
100
AcDbLine
 10
252.0
 20
125.0
 30
0.0
 11
252.0
 21
230.0
 31
0.0
  0
LINE
  5
7C
330
17
100
AcDbEntity
  8
C-EQUIPMENT
100
AcDbLine
 10
246.4
 20
138.125
 30
0.0
 11
257.6
 21
138.125
 31
0.0
  0
LINE
  5
7D
330
17
100
AcDbEntity
  8
C-EQUIPMENT
100
AcDbLine
 10
246.4
 20
151.25
 30
0.0
 11
257.6
 21
151.25
 31
0.0
  0
LINE
  5
7E
330
17
100
AcDbEntity
  8
C-EQUIPMENT
100
AcDbLine
 10
246.4
 20
164.375
 30
0.0
 11
257.6
 21
164.375
 31
0.0
  0
LINE
  5
7F
330
17
100
AcDbEntity
  8
C-EQUIPMENT
100
AcDbLine
 10
246.4
 20
177.5
 30
0.0
 11
257.6
 21
177.5
 31
0.0
  0
LINE
  5
80
330
17
100
AcDbEntity
  8
C-EQUIPMENT
100
AcDbLine
 10
246.4
 20
190.625
 30
0.0
 11
257.6
 21
190.625
 31
0.0
  0
LINE
  5
81
330
17
100
AcDbEntity
  8
C-EQUIPMENT
100
AcDbLine
 10
246.4
 20
203.75
 30
0.0
 11
257.6
 21
203.75
 31
0.0
  0
LINE
  5
82
330
17
100
AcDbEntity
  8
C-EQUIPMENT
100
AcDbLine
 10
246.4
 20
216.875
 30
0.0
 11
257.6
 21
216.875
 31
0.0
  0
LINE
  5
83
330
17
100
AcDbEntity
  8
C-EQUIPMENT
100
AcDbLine
 10
278.0
 20
125.0
 30
0.0
 11
278.0
 21
230.0
 31
0.0
  0
LINE
  5
84
330
17
100
AcDbEntity
  8
C-EQUIPMENT
100
AcDbLine
 10
272.4
 20
138.125
 30
0.0
 11
283.6
 21
138.125
 31
0.0
  0
LINE
  5
85
330
17
100
AcDbEntity
  8
C-EQUIPMENT
100
AcDbLine
 10
272.4
 20
151.25
 30
0.0
 11
283.6
 21
151.25
 31
0.0
  0
LINE
  5
86
330
17
100
AcDbEntity
  8
C-EQUIPMENT
100
AcDbLine
 10
272.4
 20
164.375
 30
0.0
 11
283.6
 21
164.375
 31
0.0
  0
LINE
  5
87
330
17
100
AcDbEntity
  8
C-EQUIPMENT
100
AcDbLine
 10
272.4
 20
177.5
 30
0.0
 11
283.6
 21
177.5
 31
0.0
  0
LINE
  5
88
330
17
100
AcDbEntity
  8
C-EQUIPMENT
100
AcDbLine
 10
272.4
 20
190.625
 30
0.0
 11
283.6
 21
190.625
 31
0.0
  0
LINE
  5
89
330
17
100
AcDbEntity
  8
C-EQUIPMENT
100
AcDbLine
 10
272.4
 20
203.75
 30
0.0
 11
283.6
 21
203.75
 31
0.0
  0
LINE
  5
8A
330
17
100
AcDbEntity
  8
C-EQUIPMENT
100
AcDbLine
 10
272.4
 20
216.875
 30
0.0
 11
283.6
 21
216.875
 31
0.0
  0
LWPOLYLINE
  5
8B
330
17
100
AcDbEntity
  8
C-EQUIPMENT
100
AcDbPolyline
 90
4
 70
1
 10
247.0
 20
148.0
 10
283.0
 20
148.0
 10
283.0
 20
180.0
 10
247.0
 20
180.0
  0
LINE
  5
8C
330
17
100
AcDbEntity
  8
C-EQUIPMENT
100
AcDbLine
 10
252.0
 20
230.0
 30
0.0
 11
278.0
 21
230.0
 31
0.0
  0
MTEXT
  5
8D
330
17
100
AcDbEntity
  8
C-TEXT
100
AcDbMText
 10
265.0
 20
135.0
 30
0.0
 40
2.1
 41
76.0
 71
2
  1
SF6断路器QF
  7
HZTXT
  0
MTEXT
  5
8E
330
17
100
AcDbEntity
  8
C-TEXT
100
AcDbMText
 10
265.0
 20
244.0
 30
0.0
 40
2.0
 41
100.0
 71
2
  1
220-L1-QF
  7
HZTXT
  0
LWPOLYLINE
  5
8F
330
17
100
AcDbEntity
  8
C-FOUNDATION
100
AcDbPolyline
 90
4
 70
1
 10
331.0
 20
117.0
 10
359.0
 20
117.0
 10
359.0
 20
125.0
 10
331.0
 20
125.0
  0
LINE
  5
90
330
17
100
AcDbEntity
  8
C-EQUIPMENT
100
AcDbLine
 10
345.0
 20
125.0
 30
0.0
 11
345.0
 21
220.0
 31
0.0
  0
LINE
  5
91
330
17
100
AcDbEntity
  8
C-EQUIPMENT
100
AcDbLine
 10
339.4
 20
136.875
 30
0.0
 11
350.6
 21
136.875
 31
0.0
  0
LINE
  5
92
330
17
100
AcDbEntity
  8
C-EQUIPMENT
100
AcDbLine
 10
339.4
 20
148.75
 30
0.0
 11
350.6
 21
148.75
 31
0.0
  0
LINE
  5
93
330
17
100
AcDbEntity
  8
C-EQUIPMENT
100
AcDbLine
 10
339.4
 20
160.625
 30
0.0
 11
350.6
 21
160.625
 31
0.0
  0
LINE
  5
94
330
17
100
AcDbEntity
  8
C-EQUIPMENT
100
AcDbLine
 10
339.4
 20
172.5
 30
0.0
 11
350.6
 21
172.5
 31
0.0
  0
LINE
  5
95
330
17
100
AcDbEntity
  8
C-EQUIPMENT
100
AcDbLine
 10
339.4
 20
184.375
 30
0.0
 11
350.6
 21
184.375
 31
0.0
  0
LINE
  5
96
330
17
100
AcDbEntity
  8
C-EQUIPMENT
100
AcDbLine
 10
339.4
 20
196.25
 30
0.0
 11
350.6
 21
196.25
 31
0.0
  0
LINE
  5
97
330
17
100
AcDbEntity
  8
C-EQUIPMENT
100
AcDbLine
 10
339.4
 20
208.125
 30
0.0
 11
350.6
 21
208.125
 31
0.0
  0
LWPOLYLINE
  5
98
330
17
100
AcDbEntity
  8
C-EQUIPMENT
100
AcDbPolyline
 90
4
 70
1
 10
330.0
 20
140.0
 10
360.0
 20
140.0
 10
360.0
 20
170.0
 10
330.0
 20
170.0
  0
MTEXT
  5
99
330
17
100
AcDbEntity
  8
C-TEXT
100
AcDbMText
 10
345.0
 20
135.0
 30
0.0
 40
2.1
 41
76.0
 71
2
  1
电流互感器TA
  7
HZTXT
  0
MTEXT
  5
9A
330
17
100
AcDbEntity
  8
C-TEXT
100
AcDbMText
 10
345.0
 20
234.0
 30
0.0
 40
2.0
 41
100.0
 71
2
  1
220-L1-TA
  7
HZTXT
  0
LWPOLYLINE
  5
9B
330
17
100
AcDbEntity
  8
C-FOUNDATION
100
AcDbPolyline
 90
4
 70
1
 10
411.0
 20
117.0
 10
439.0
 20
117.0
 10
439.0
 20
125.0
 10
411.0
 20
125.0
  0
LINE
  5
9C
330
17
100
AcDbEntity
  8
C-EQUIPMENT
100
AcDbLine
 10
409.0
 20
125.0
 30
0.0
 11
409.0
 21
232.0
 31
0.0
  0
LINE
  5
9D
330
17
100
AcDbEntity
  8
C-EQUIPMENT
100
AcDbLine
 10
403.4
 20
138.375
 30
0.0
 11
414.6
 21
138.375
 31
0.0
  0
LINE
  5
9E
330
17
100
AcDbEntity
  8
C-EQUIPMENT
100
AcDbLine
 10
403.4
 20
151.75
 30
0.0
 11
414.6
 21
151.75
 31
0.0
  0
LINE
  5
9F
330
17
100
AcDbEntity
  8
C-EQUIPMENT
100
AcDbLine
 10
403.4
 20
165.125
 30
0.0
 11
414.6
 21
165.125
 31
0.0
  0
LINE
  5
A0
330
17
100
AcDbEntity
  8
C-EQUIPMENT
100
AcDbLine
 10
403.4
 20
178.5
 30
0.0
 11
414.6
 21
178.5
 31
0.0
  0
LINE
  5
A1
330
17
100
AcDbEntity
  8
C-EQUIPMENT
100
AcDbLine
 10
403.4
 20
191.875
 30
0.0
 11
414.6
 21
191.875
 31
0.0
  0
LINE
  5
A2
330
17
100
AcDbEntity
  8
C-EQUIPMENT
100
AcDbLine
 10
403.4
 20
205.25
 30
0.0
 11
414.6
 21
205.25
 31
0.0
  0
LINE
  5
A3
330
17
100
AcDbEntity
  8
C-EQUIPMENT
100
AcDbLine
 10
403.4
 20
218.625
 30
0.0
 11
414.6
 21
218.625
 31
0.0
  0
LINE
  5
A4
330
17
100
AcDbEntity
  8
C-EQUIPMENT
100
AcDbLine
 10
441.0
 20
125.0
 30
0.0
 11
441.0
 21
232.0
 31
0.0
  0
LINE
  5
A5
330
17
100
AcDbEntity
  8
C-EQUIPMENT
100
AcDbLine
 10
435.4
 20
138.375
 30
0.0
 11
446.6
 21
138.375
 31
0.0
  0
LINE
  5
A6
330
17
100
AcDbEntity
  8
C-EQUIPMENT
100
AcDbLine
 10
435.4
 20
151.75
 30
0.0
 11
446.6
 21
151.75
 31
0.0
  0
LINE
  5
A7
330
17
100
AcDbEntity
  8
C-EQUIPMENT
100
AcDbLine
 10
435.4
 20
165.125
 30
0.0
 11
446.6
 21
165.125
 31
0.0
  0
LINE
  5
A8
330
17
100
AcDbEntity
  8
C-EQUIPMENT
100
AcDbLine
 10
435.4
 20
178.5
 30
0.0
 11
446.6
 21
178.5
 31
0.0
  0
LINE
  5
A9
330
17
100
AcDbEntity
  8
C-EQUIPMENT
100
AcDbLine
 10
435.4
 20
191.875
 30
0.0
 11
446.6
 21
191.875
 31
0.0
  0
LINE
  5
AA
330
17
100
AcDbEntity
  8
C-EQUIPMENT
100
AcDbLine
 10
435.4
 20
205.25
 30
0.0
 11
446.6
 21
205.25
 31
0.0
  0
LINE
  5
AB
330
17
100
AcDbEntity
  8
C-EQUIPMENT
100
AcDbLine
 10
435.4
 20
218.625
 30
0.0
 11
446.6
 21
218.625
 31
0.0
  0
LINE
  5
AC
330
17
100
AcDbEntity
  8
C-EQUIPMENT
100
AcDbLine
 10
409.0
 20
232.0
 30
0.0
 11
441.0
 21
240.0
 31
0.0
  0
CIRCLE
  5
AD
330
17
100
AcDbEntity
  8
C-EQUIPMENT
100
AcDbCircle
 10
441.0
 20
232.0
 30
0.0
 40
2.0
  0
CIRCLE
  5
AE
330
17
100
AcDbEntity
  8
C-EQUIPMENT
100
AcDbCircle
 10
465.0
 20
145.0
 30
0.0
 40
2.0
  0
LINE
  5
AF
330
17
100
AcDbEntity
  8
C-EQUIPMENT
100
AcDbLine
 10
465.0
 20
145.0
 30
0.0
 11
449.0
 21
217.0
 31
0.0
  0
LINE
  5
B0
330
17
100
AcDbEntity
  8
C-EQUIPMENT
100
AcDbLine
 10
465.0
 20
136.0
 30
0.0
 11
465.0
 21
127.0
 31
0.0
  0
LINE
  5
B1
330
17
100
AcDbEntity
  8
C-EQUIPMENT
100
AcDbLine
 10
456.0
 20
127.0
 30
0.0
 11
474.0
 21
127.0
 31
0.0
  0
LINE
  5
B2
330
17
100
AcDbEntity
  8
C-EQUIPMENT
100
AcDbLine
 10
459.0
 20
123.8
 30
0.0
 11
471.0
 21
123.8
 31
0.0
  0
LINE
  5
B3
330
17
100
AcDbEntity
  8
C-EQUIPMENT
100
AcDbLine
 10
461.8
 20
120.6
 30
0.0
 11
468.2
 21
120.6
 31
0.0
  0
LINE
  5
B4
330
17
100
AcDbEntity
  8
C-EQUIPMENT
100
AcDbLine
 10
465.0
 20
145.0
 30
0.0
 11
465.0
 21
136.0
 31
0.0
  0
MTEXT
  5
B5
330
17
100
AcDbEntity
  8
C-TEXT
100
AcDbMText
 10
475.0
 20
160.0
 30
0.0
 40
2.0
 41
60.0
 71
4
  1
ES(NO)
  7
HZTXT
  0
MTEXT
  5
B6
330
17
100
AcDbEntity
  8
C-TEXT
100
AcDbMText
 10
425.0
 20
135.0
 30
0.0
 40
2.1
 41
76.0
 71
2
  1
线路侧QS+ES(NO)
  7
HZTXT
  0
MTEXT
  5
B7
330
17
100
AcDbEntity
  8
C-TEXT
100
AcDbMText
 10
425.0
 20
254.0
 30
0.0
 40
2.0
 41
100.0
 71
2
  1
220-L1-QS2/ES
  7
HZTXT
  0
LWPOLYLINE
  5
B8
330
17
100
AcDbEntity
  8
C-FOUNDATION
100
AcDbPolyline
 90
4
 70
1
 10
491.0
 20
117.0
 10
519.0
 20
117.0
 10
519.0
 20
125.0
 10
491.0
 20
125.0
  0
LINE
  5
B9
330
17
100
AcDbEntity
  8
C-EQUIPMENT
100
AcDbLine
 10
505.0
 20
125.0
 30
0.0
 11
505.0
 21
224.0
 31
0.0
  0
LINE
  5
BA
330
17
100
AcDbEntity
  8
C-EQUIPMENT
100
AcDbLine
 10
499.4
 20
137.375
 30
0.0
 11
510.6
 21
137.375
 31
0.0
  0
LINE
  5
BB
330
17
100
AcDbEntity
  8
C-EQUIPMENT
100
AcDbLine
 10
499.4
 20
149.75
 30
0.0
 11
510.6
 21
149.75
 31
0.0
  0
LINE
  5
BC
330
17
100
AcDbEntity
  8
C-EQUIPMENT
100
AcDbLine
 10
499.4
 20
162.125
 30
0.0
 11
510.6
 21
162.125
 31
0.0
  0
LINE
  5
BD
330
17
100
AcDbEntity
  8
C-EQUIPMENT
100
AcDbLine
 10
499.4
 20
174.5
 30
0.0
 11
510.6
 21
174.5
 31
0.0
  0
LINE
  5
BE
330
17
100
AcDbEntity
  8
C-EQUIPMENT
100
AcDbLine
 10
499.4
 20
186.875
 30
0.0
 11
510.6
 21
186.875
 31
0.0
  0
LINE
  5
BF
330
17
100
AcDbEntity
  8
C-EQUIPMENT
100
AcDbLine
 10
499.4
 20
199.25
 30
0.0
 11
510.6
 21
199.25
 31
0.0
  0
LINE
  5
C0
330
17
100
AcDbEntity
  8
C-EQUIPMENT
100
AcDbLine
 10
499.4
 20
211.625
 30
0.0
 11
510.6
 21
211.625
 31
0.0
  0
LWPOLYLINE
  5
C1
330
17
100
AcDbEntity
  8
C-EQUIPMENT
100
AcDbPolyline
 90
4
 70
1
 10
490.0
 20
140.0
 10
520.0
 20
140.0
 10
520.0
 20
170.0
 10
490.0
 20
170.0
  0
CIRCLE
  5
C2
330
17
100
AcDbEntity
  8
C-EQUIPMENT
100
AcDbCircle
 10
505.0
 20
180.0
 30
0.0
 40
11.0
  0
MTEXT
  5
C3
330
17
100
AcDbEntity
  8
C-TEXT
100
AcDbMText
 10
505.0
 20
135.0
 30
0.0
 40
2.1
 41
76.0
 71
2
  1
电容式电压互感器CVT
  7
HZTXT
  0
MTEXT
  5
C4
330
17
100
AcDbEntity
  8
C-TEXT
100
AcDbMText
 10
505.0
 20
238.0
 30
0.0
 40
2.0
 41
100.0
 71
2
  1
220-L1-CVT
  7
HZTXT
  0
LWPOLYLINE
  5
C5
330
17
100
AcDbEntity
  8
C-FOUNDATION
100
AcDbPolyline
 90
4
 70
1
 10
551.0
 20
117.0
 10
579.0
 20
117.0
 10
579.0
 20
125.0
 10
551.0
 20
125.0
  0
LINE
  5
C6
330
17
100
AcDbEntity
  8
C-EQUIPMENT
100
AcDbLine
 10
565.0
 20
125.0
 30
0.0
 11
565.0
 21
220.0
 31
0.0
  0
LINE
  5
C7
330
17
100
AcDbEntity
  8
C-EQUIPMENT
100
AcDbLine
 10
559.4
 20
136.875
 30
0.0
 11
570.6
 21
136.875
 31
0.0
  0
LINE
  5
C8
330
17
100
AcDbEntity
  8
C-EQUIPMENT
100
AcDbLine
 10
559.4
 20
148.75
 30
0.0
 11
570.6
 21
148.75
 31
0.0
  0
LINE
  5
C9
330
17
100
AcDbEntity
  8
C-EQUIPMENT
100
AcDbLine
 10
559.4
 20
160.625
 30
0.0
 11
570.6
 21
160.625
 31
0.0
  0
LINE
  5
CA
330
17
100
AcDbEntity
  8
C-EQUIPMENT
100
AcDbLine
 10
559.4
 20
172.5
 30
0.0
 11
570.6
 21
172.5
 31
0.0
  0
LINE
  5
CB
330
17
100
AcDbEntity
  8
C-EQUIPMENT
100
AcDbLine
 10
559.4
 20
184.375
 30
0.0
 11
570.6
 21
184.375
 31
0.0
  0
LINE
  5
CC
330
17
100
AcDbEntity
  8
C-EQUIPMENT
100
AcDbLine
 10
559.4
 20
196.25
 30
0.0
 11
570.6
 21
196.25
 31
0.0
  0
LINE
  5
CD
330
17
100
AcDbEntity
  8
C-EQUIPMENT
100
AcDbLine
 10
559.4
 20
208.125
 30
0.0
 11
570.6
 21
208.125
 31
0.0
  0
LWPOLYLINE
  5
CE
330
17
100
AcDbEntity
  8
C-EQUIPMENT
100
AcDbPolyline
 90
4
 70
1
 10
551.0
 20
130.0
 10
579.0
 20
130.0
 10
572.0
 20
160.0
 10
558.0
 20
160.0
  0
MTEXT
  5
CF
330
17
100
AcDbEntity
  8
C-TEXT
100
AcDbMText
 10
565.0
 20
135.0
 30
0.0
 40
2.1
 41
76.0
 71
2
  1
金属氧化物避雷器MOA
  7
HZTXT
  0
MTEXT
  5
D0
330
17
100
AcDbEntity
  8
C-TEXT
100
AcDbMText
 10
565.0
 20
234.0
 30
0.0
 40
2.0
 41
100.0
 71
2
  1
220-L1-MOA
  7
HZTXT
  0
LWPOLYLINE
  5
D1
330
17
100
AcDbEntity
  8
C-FOUNDATION
100
AcDbPolyline
 90
4
 70
1
 10
671.0
 20
117.0
 10
699.0
 20
117.0
 10
699.0
 20
125.0
 10
671.0
 20
125.0
  0
LINE
  5
D2
330
17
100
AcDbEntity
  8
C-STRUCTURE
100
AcDbLine
 10
653.0
 20
120.0
 30
0.0
 11
653.0
 21
430.0
 31
0.0
  0
LINE
  5
D3
330
17
100
AcDbEntity
  8
C-STRUCTURE
100
AcDbLine
 10
717.0
 20
120.0
 30
0.0
 11
717.0
 21
430.0
 31
0.0
  0
LINE
  5
D4
330
17
100
AcDbEntity
  8
C-STRUCTURE
100
AcDbLine
 10
641.0
 20
430.0
 30
0.0
 11
729.0
 21
430.0
 31
0.0
  0
LINE
  5
D5
330
17
100
AcDbEntity
  8
C-STRUCTURE
100
AcDbLine
 10
653.0
 20
120.0
 30
0.0
 11
717.0
 21
430.0
 31
0.0
  0
MTEXT
  5
D6
330
17
100
AcDbEntity
  8
C-TEXT
100
AcDbMText
 10
685.0
 20
135.0
 30
0.0
 40
2.1
 41
76.0
 71
2
  1
出线构架
  7
HZTXT
  0
MTEXT
  5
D7
330
17
100
AcDbEntity
  8
C-TEXT
100
AcDbMText
 10
685.0
 20
424.0
 30
0.0
 40
2.0
 41
100.0
 71
2
  1
220-L1-G
  7
HZTXT
  0
LWPOLYLINE
  5
D8
330
17
100
AcDbEntity
  8
C-CONDUCTOR
100
AcDbPolyline
 90
8
 70
0
 10
105.0
 20
300.0
 10
185.0
 20
240.0
 10
265.0
 20
230.0
 10
345.0
 20
220.0
 10
425.0
 20
240.0
 10
505.0
 20
224.0
 10
565.0
 20
220.0
 10
685.0
 20
410.0
  0
LINE
  5
D9
330
17
100
AcDbEntity
  8
C-CONDUCTOR
100
AcDbLine
 10
685.0
 20
410.0
 30
0.0
 11
719.0
 21
428.0
 31
0.0
  0
LINE
  5
DA
330
17
100
AcDbEntity
  8
C-CONDUCTOR
100
AcDbLine
 10
719.0
 20
428.0
 30
0.0
 11
715.0219014095715
 21
428.4180090965883
 31
0.0
  0
LINE
  5
DB
330
17
100
AcDbEntity
  8
C-CONDUCTOR
100
AcDbLine
 10
719.0
 20
428.0
 30
0.0
 11
717.1093683155322
 21
424.47501605199596
 31
0.0
  0
LINE
  5
DC
330
17
100
AcDbEntity
  8
C-FOUNDATION
100
AcDbLine
 10
75.0
 20
104.0
 30
0.0
 11
735.0
 21
104.0
 31
0.0
  0
LINE
  5
DD
330
17
100
AcDbEntity
  8
C-FOUNDATION
100
AcDbLine
 10
105.0
 20
120.0
 30
0.0
 11
105.0
 21
104.0
 31
0.0
  0
CIRCLE
  5
DE
330
17
100
AcDbEntity
  8
C-FOUNDATION
100
AcDbCircle
 10
105.0
 20
104.0
 30
0.0
 40
1.6
  0
LINE
  5
DF
330
17
100
AcDbEntity
  8
C-FOUNDATION
100
AcDbLine
 10
185.0
 20
120.0
 30
0.0
 11
185.0
 21
104.0
 31
0.0
  0
CIRCLE
  5
E0
330
17
100
AcDbEntity
  8
C-FOUNDATION
100
AcDbCircle
 10
185.0
 20
104.0
 30
0.0
 40
1.6
  0
LINE
  5
E1
330
17
100
AcDbEntity
  8
C-FOUNDATION
100
AcDbLine
 10
265.0
 20
120.0
 30
0.0
 11
265.0
 21
104.0
 31
0.0
  0
CIRCLE
  5
E2
330
17
100
AcDbEntity
  8
C-FOUNDATION
100
AcDbCircle
 10
265.0
 20
104.0
 30
0.0
 40
1.6
  0
LINE
  5
E3
330
17
100
AcDbEntity
  8
C-FOUNDATION
100
AcDbLine
 10
345.0
 20
120.0
 30
0.0
 11
345.0
 21
104.0
 31
0.0
  0
CIRCLE
  5
E4
330
17
100
AcDbEntity
  8
C-FOUNDATION
100
AcDbCircle
 10
345.0
 20
104.0
 30
0.0
 40
1.6
  0
LINE
  5
E5
330
17
100
AcDbEntity
  8
C-FOUNDATION
100
AcDbLine
 10
425.0
 20
120.0
 30
0.0
 11
425.0
 21
104.0
 31
0.0
  0
CIRCLE
  5
E6
330
17
100
AcDbEntity
  8
C-FOUNDATION
100
AcDbCircle
 10
425.0
 20
104.0
 30
0.0
 40
1.6
  0
LINE
  5
E7
330
17
100
AcDbEntity
  8
C-FOUNDATION
100
AcDbLine
 10
505.0
 20
120.0
 30
0.0
 11
505.0
 21
104.0
 31
0.0
  0
CIRCLE
  5
E8
330
17
100
AcDbEntity
  8
C-FOUNDATION
100
AcDbCircle
 10
505.0
 20
104.0
 30
0.0
 40
1.6
  0
LINE
  5
E9
330
17
100
AcDbEntity
  8
C-FOUNDATION
100
AcDbLine
 10
565.0
 20
120.0
 30
0.0
 11
565.0
 21
104.0
 31
0.0
  0
CIRCLE
  5
EA
330
17
100
AcDbEntity
  8
C-FOUNDATION
100
AcDbCircle
 10
565.0
 20
104.0
 30
0.0
 40
1.6
  0
LINE
  5
EB
330
17
100
AcDbEntity
  8
C-FOUNDATION
100
AcDbLine
 10
685.0
 20
120.0
 30
0.0
 11
685.0
 21
104.0
 31
0.0
  0
CIRCLE
  5
EC
330
17
100
AcDbEntity
  8
C-FOUNDATION
100
AcDbCircle
 10
685.0
 20
104.0
 30
0.0
 40
1.6
  0
MTEXT
  5
ED
330
17
100
AcDbEntity
  8
C-NOTE
100
AcDbMText
 10
405.0
 20
107.6
 30
0.0
 40
2.1
 41
440.0
 71
8
  1
地下水平接地网及设备/构架接地引下线（连接示意）
  7
HZTXT
  0
LINE
  5
EE
330
17
100
AcDbEntity
  8
C-DIM
100
AcDbLine
 10
105.0
 20
120.0
 30
0.0
 11
105.0
 21
93.0
 31
0.0
  0
LINE
  5
EF
330
17
100
AcDbEntity
  8
C-DIM
100
AcDbLine
 10
185.0
 20
120.0
 30
0.0
 11
185.0
 21
93.0
 31
0.0
  0
LINE
  5
F0
330
17
100
AcDbEntity
  8
C-DIM
100
AcDbLine
 10
105.0
 20
93.0
 30
0.0
 11
185.0
 21
93.0
 31
0.0
  0
LINE
  5
F1
330
17
100
AcDbEntity
  8
C-DIM
100
AcDbLine
 10
103.5
 20
91.5
 30
0.0
 11
106.5
 21
94.5
 31
0.0
  0
LINE
  5
F2
330
17
100
AcDbEntity
  8
C-DIM
100
AcDbLine
 10
183.5
 20
91.5
 30
0.0
 11
186.5
 21
94.5
 31
0.0
  0
MTEXT
  5
F3
330
17
100
AcDbEntity
  8
C-DIM
100
AcDbMText
 10
145.0
 20
95.0
 30
0.0
 40
2.5
 41
80.0
 71
8
  1
4.0
  7
HZTXT
  0
LINE
  5
F4
330
17
100
AcDbEntity
  8
C-DIM
100
AcDbLine
 10
185.0
 20
120.0
 30
0.0
 11
185.0
 21
93.0
 31
0.0
  0
LINE
  5
F5
330
17
100
AcDbEntity
  8
C-DIM
100
AcDbLine
 10
265.0
 20
120.0
 30
0.0
 11
265.0
 21
93.0
 31
0.0
  0
LINE
  5
F6
330
17
100
AcDbEntity
  8
C-DIM
100
AcDbLine
 10
185.0
 20
93.0
 30
0.0
 11
265.0
 21
93.0
 31
0.0
  0
LINE
  5
F7
330
17
100
AcDbEntity
  8
C-DIM
100
AcDbLine
 10
183.5
 20
91.5
 30
0.0
 11
186.5
 21
94.5
 31
0.0
  0
LINE
  5
F8
330
17
100
AcDbEntity
  8
C-DIM
100
AcDbLine
 10
263.5
 20
91.5
 30
0.0
 11
266.5
 21
94.5
 31
0.0
  0
MTEXT
  5
F9
330
17
100
AcDbEntity
  8
C-DIM
100
AcDbMText
 10
225.0
 20
95.0
 30
0.0
 40
2.5
 41
80.0
 71
8
  1
4.0
  7
HZTXT
  0
LINE
  5
FA
330
17
100
AcDbEntity
  8
C-DIM
100
AcDbLine
 10
265.0
 20
120.0
 30
0.0
 11
265.0
 21
93.0
 31
0.0
  0
LINE
  5
FB
330
17
100
AcDbEntity
  8
C-DIM
100
AcDbLine
 10
345.0
 20
120.0
 30
0.0
 11
345.0
 21
93.0
 31
0.0
  0
LINE
  5
FC
330
17
100
AcDbEntity
  8
C-DIM
100
AcDbLine
 10
265.0
 20
93.0
 30
0.0
 11
345.0
 21
93.0
 31
0.0
  0
LINE
  5
FD
330
17
100
AcDbEntity
  8
C-DIM
100
AcDbLine
 10
263.5
 20
91.5
 30
0.0
 11
266.5
 21
94.5
 31
0.0
  0
LINE
  5
FE
330
17
100
AcDbEntity
  8
C-DIM
100
AcDbLine
 10
343.5
 20
91.5
 30
0.0
 11
346.5
 21
94.5
 31
0.0
  0
MTEXT
  5
FF
330
17
100
AcDbEntity
  8
C-DIM
100
AcDbMText
 10
305.0
 20
95.0
 30
0.0
 40
2.5
 41
80.0
 71
8
  1
4.0
  7
HZTXT
  0
LINE
  5
100
330
17
100
AcDbEntity
  8
C-DIM
100
AcDbLine
 10
345.0
 20
120.0
 30
0.0
 11
345.0
 21
93.0
 31
0.0
  0
LINE
  5
101
330
17
100
AcDbEntity
  8
C-DIM
100
AcDbLine
 10
425.0
 20
120.0
 30
0.0
 11
425.0
 21
93.0
 31
0.0
  0
LINE
  5
102
330
17
100
AcDbEntity
  8
C-DIM
100
AcDbLine
 10
345.0
 20
93.0
 30
0.0
 11
425.0
 21
93.0
 31
0.0
  0
LINE
  5
103
330
17
100
AcDbEntity
  8
C-DIM
100
AcDbLine
 10
343.5
 20
91.5
 30
0.0
 11
346.5
 21
94.5
 31
0.0
  0
LINE
  5
104
330
17
100
AcDbEntity
  8
C-DIM
100
AcDbLine
 10
423.5
 20
91.5
 30
0.0
 11
426.5
 21
94.5
 31
0.0
  0
MTEXT
  5
105
330
17
100
AcDbEntity
  8
C-DIM
100
AcDbMText
 10
385.0
 20
95.0
 30
0.0
 40
2.5
 41
80.0
 71
8
  1
4.0
  7
HZTXT
  0
LINE
  5
106
330
17
100
AcDbEntity
  8
C-DIM
100
AcDbLine
 10
425.0
 20
120.0
 30
0.0
 11
425.0
 21
93.0
 31
0.0
  0
LINE
  5
107
330
17
100
AcDbEntity
  8
C-DIM
100
AcDbLine
 10
505.0
 20
120.0
 30
0.0
 11
505.0
 21
93.0
 31
0.0
  0
LINE
  5
108
330
17
100
AcDbEntity
  8
C-DIM
100
AcDbLine
 10
425.0
 20
93.0
 30
0.0
 11
505.0
 21
93.0
 31
0.0
  0
LINE
  5
109
330
17
100
AcDbEntity
  8
C-DIM
100
AcDbLine
 10
423.5
 20
91.5
 30
0.0
 11
426.5
 21
94.5
 31
0.0
  0
LINE
  5
10A
330
17
100
AcDbEntity
  8
C-DIM
100
AcDbLine
 10
503.5
 20
91.5
 30
0.0
 11
506.5
 21
94.5
 31
0.0
  0
MTEXT
  5
10B
330
17
100
AcDbEntity
  8
C-DIM
100
AcDbMText
 10
465.0
 20
95.0
 30
0.0
 40
2.5
 41
80.0
 71
8
  1
4.0
  7
HZTXT
  0
LINE
  5
10C
330
17
100
AcDbEntity
  8
C-DIM
100
AcDbLine
 10
505.0
 20
120.0
 30
0.0
 11
505.0
 21
93.0
 31
0.0
  0
LINE
  5
10D
330
17
100
AcDbEntity
  8
C-DIM
100
AcDbLine
 10
565.0
 20
120.0
 30
0.0
 11
565.0
 21
93.0
 31
0.0
  0
LINE
  5
10E
330
17
100
AcDbEntity
  8
C-DIM
100
AcDbLine
 10
505.0
 20
93.0
 30
0.0
 11
565.0
 21
93.0
 31
0.0
  0
LINE
  5
10F
330
17
100
AcDbEntity
  8
C-DIM
100
AcDbLine
 10
503.5
 20
91.5
 30
0.0
 11
506.5
 21
94.5
 31
0.0
  0
LINE
  5
110
330
17
100
AcDbEntity
  8
C-DIM
100
AcDbLine
 10
563.5
 20
91.5
 30
0.0
 11
566.5
 21
94.5
 31
0.0
  0
MTEXT
  5
111
330
17
100
AcDbEntity
  8
C-DIM
100
AcDbMText
 10
535.0
 20
95.0
 30
0.0
 40
2.5
 41
60.0
 71
8
  1
3.0
  7
HZTXT
  0
LINE
  5
112
330
17
100
AcDbEntity
  8
C-DIM
100
AcDbLine
 10
565.0
 20
120.0
 30
0.0
 11
565.0
 21
93.0
 31
0.0
  0
LINE
  5
113
330
17
100
AcDbEntity
  8
C-DIM
100
AcDbLine
 10
685.0
 20
120.0
 30
0.0
 11
685.0
 21
93.0
 31
0.0
  0
LINE
  5
114
330
17
100
AcDbEntity
  8
C-DIM
100
AcDbLine
 10
565.0
 20
93.0
 30
0.0
 11
685.0
 21
93.0
 31
0.0
  0
LINE
  5
115
330
17
100
AcDbEntity
  8
C-DIM
100
AcDbLine
 10
563.5
 20
91.5
 30
0.0
 11
566.5
 21
94.5
 31
0.0
  0
LINE
  5
116
330
17
100
AcDbEntity
  8
C-DIM
100
AcDbLine
 10
683.5
 20
91.5
 30
0.0
 11
686.5
 21
94.5
 31
0.0
  0
MTEXT
  5
117
330
17
100
AcDbEntity
  8
C-DIM
100
AcDbMText
 10
625.0
 20
95.0
 30
0.0
 40
2.5
 41
120.0
 71
8
  1
6.0
  7
HZTXT
  0
LINE
  5
118
330
17
100
AcDbEntity
  8
C-DIM
100
AcDbLine
 10
65.0
 20
120.0
 30
0.0
 11
65.0
 21
72.0
 31
0.0
  0
LINE
  5
119
330
17
100
AcDbEntity
  8
C-DIM
100
AcDbLine
 10
745.0
 20
120.0
 30
0.0
 11
745.0
 21
72.0
 31
0.0
  0
LINE
  5
11A
330
17
100
AcDbEntity
  8
C-DIM
100
AcDbLine
 10
65.0
 20
72.0
 30
0.0
 11
745.0
 21
72.0
 31
0.0
  0
LINE
  5
11B
330
17
100
AcDbEntity
  8
C-DIM
100
AcDbLine
 10
63.5
 20
70.5
 30
0.0
 11
66.5
 21
73.5
 31
0.0
  0
LINE
  5
11C
330
17
100
AcDbEntity
  8
C-DIM
100
AcDbLine
 10
743.5
 20
70.5
 30
0.0
 11
746.5
 21
73.5
 31
0.0
  0
MTEXT
  5
11D
330
17
100
AcDbEntity
  8
C-DIM
100
AcDbMText
 10
405.0
 20
74.0
 30
0.0
 40
2.5
 41
680.0
 71
8
  1
总长 34.0m
  7
HZTXT
  0
LINE
  5
11E
330
17
100
AcDbEntity
  8
C-DIM
100
AcDbLine
 10
105.0
 20
120.0
 30
0.0
 11
41.0
 21
120.0
 31
0.0
  0
LINE
  5
11F
330
17
100
AcDbEntity
  8
C-DIM
100
AcDbLine
 10
105.0
 20
300.0
 30
0.0
 11
41.0
 21
300.0
 31
0.0
  0
LINE
  5
120
330
17
100
AcDbEntity
  8
C-DIM
100
AcDbLine
 10
41.0
 20
120.0
 30
0.0
 11
41.0
 21
300.0
 31
0.0
  0
LINE
  5
121
330
17
100
AcDbEntity
  8
C-DIM
100
AcDbLine
 10
39.5
 20
118.5
 30
0.0
 11
42.5
 21
121.5
 31
0.0
  0
LINE
  5
122
330
17
100
AcDbEntity
  8
C-DIM
100
AcDbLine
 10
39.5
 20
298.5
 30
0.0
 11
42.5
 21
301.5
 31
0.0
  0
MTEXT
  5
123
330
17
100
AcDbEntity
  8
C-DIM
100
AcDbMText
 10
39.0
 20
210.0
 30
0.0
 40
2.5
 41
180.0
 71
8
  1
管母 +9.0m
  7
HZTXT
 50
90.0
  0
LINE
  5
124
330
17
100
AcDbEntity
  8
C-DIM
100
AcDbLine
 10
685.0
 20
120.0
 30
0.0
 11
769.0
 21
120.0
 31
0.0
  0
LINE
  5
125
330
17
100
AcDbEntity
  8
C-DIM
100
AcDbLine
 10
685.0
 20
410.0
 30
0.0
 11
769.0
 21
410.0
 31
0.0
  0
LINE
  5
126
330
17
100
AcDbEntity
  8
C-DIM
100
AcDbLine
 10
769.0
 20
120.0
 30
0.0
 11
769.0
 21
410.0
 31
0.0
  0
LINE
  5
127
330
17
100
AcDbEntity
  8
C-DIM
100
AcDbLine
 10
767.5
 20
118.5
 30
0.0
 11
770.5
 21
121.5
 31
0.0
  0
LINE
  5
128
330
17
100
AcDbEntity
  8
C-DIM
100
AcDbLine
 10
767.5
 20
408.5
 30
0.0
 11
770.5
 21
411.5
 31
0.0
  0
MTEXT
  5
129
330
17
100
AcDbEntity
  8
C-DIM
100
AcDbMText
 10
767.0
 20
265.0
 30
0.0
 40
2.5
 41
290.0
 71
8
  1
构架 +14.5m
  7
HZTXT
 50
90.0
  0
LINE
  5
12A
330
17
100
AcDbEntity
  8
C-DIM
100
AcDbLine
 10
149.0
 20
120.0
 30
0.0
 11
129.0
 21
120.0
 31
0.0
  0
LINE
  5
12B
330
17
100
AcDbEntity
  8
C-DIM
100
AcDbLine
 10
149.0
 20
206.0
 30
0.0
 11
129.0
 21
206.0
 31
0.0
  0
LINE
  5
12C
330
17
100
AcDbEntity
  8
C-DIM
100
AcDbLine
 10
129.0
 20
120.0
 30
0.0
 11
129.0
 21
206.0
 31
0.0
  0
LINE
  5
12D
330
17
100
AcDbEntity
  8
C-DIM
100
AcDbLine
 10
127.5
 20
118.5
 30
0.0
 11
130.5
 21
121.5
 31
0.0
  0
LINE
  5
12E
330
17
100
AcDbEntity
  8
C-DIM
100
AcDbLine
 10
127.5
 20
204.5
 30
0.0
 11
130.5
 21
207.5
 31
0.0
  0
MTEXT
  5
12F
330
17
100
AcDbEntity
  8
C-DIM
100
AcDbMText
 10
127.0
 20
163.0
 30
0.0
 40
2.5
 41
86.0
 71
8
  1
C≥4.30m
  7
HZTXT
 50
90.0
  0
CIRCLE
  5
130
330
17
100
AcDbEntity
  8
C-BUS
100
AcDbCircle
 10
145.0
 20
436.0
 30
0.0
 40
3.2
  0
CIRCLE
  5
131
330
17
100
AcDbEntity
  8
C-BUS
100
AcDbCircle
 10
225.0
 20
436.0
 30
0.0
 40
3.2
  0
CIRCLE
  5
132
330
17
100
AcDbEntity
  8
C-BUS
100
AcDbCircle
 10
305.0
 20
436.0
 30
0.0
 40
3.2
  0
LINE
  5
133
330
17
100
AcDbEntity
  8
C-DIM
100
AcDbLine
 10
145.0
 20
436.0
 30
0.0
 11
145.0
 21
413.0
 31
0.0
  0
LINE
  5
134
330
17
100
AcDbEntity
  8
C-DIM
100
AcDbLine
 10
225.0
 20
436.0
 30
0.0
 11
225.0
 21
413.0
 31
0.0
  0
LINE
  5
135
330
17
100
AcDbEntity
  8
C-DIM
100
AcDbLine
 10
145.0
 20
413.0
 30
0.0
 11
225.0
 21
413.0
 31
0.0
  0
LINE
  5
136
330
17
100
AcDbEntity
  8
C-DIM
100
AcDbLine
 10
143.5
 20
411.5
 30
0.0
 11
146.5
 21
414.5
 31
0.0
  0
LINE
  5
137
330
17
100
AcDbEntity
  8
C-DIM
100
AcDbLine
 10
223.5
 20
411.5
 30
0.0
 11
226.5
 21
414.5
 31
0.0
  0
MTEXT
  5
138
330
17
100
AcDbEntity
  8
C-DIM
100
AcDbMText
 10
185.0
 20
415.0
 30
0.0
 40
2.5
 41
80.0
 71
8
  1
4.0m
  7
HZTXT
  0
LINE
  5
139
330
17
100
AcDbEntity
  8
C-DIM
100
AcDbLine
 10
225.0
 20
436.0
 30
0.0
 11
225.0
 21
413.0
 31
0.0
  0
LINE
  5
13A
330
17
100
AcDbEntity
  8
C-DIM
100
AcDbLine
 10
305.0
 20
436.0
 30
0.0
 11
305.0
 21
413.0
 31
0.0
  0
LINE
  5
13B
330
17
100
AcDbEntity
  8
C-DIM
100
AcDbLine
 10
225.0
 20
413.0
 30
0.0
 11
305.0
 21
413.0
 31
0.0
  0
LINE
  5
13C
330
17
100
AcDbEntity
  8
C-DIM
100
AcDbLine
 10
223.5
 20
411.5
 30
0.0
 11
226.5
 21
414.5
 31
0.0
  0
LINE
  5
13D
330
17
100
AcDbEntity
  8
C-DIM
100
AcDbLine
 10
303.5
 20
411.5
 30
0.0
 11
306.5
 21
414.5
 31
0.0
  0
MTEXT
  5
13E
330
17
100
AcDbEntity
  8
C-DIM
100
AcDbMText
 10
265.0
 20
415.0
 30
0.0
 40
2.5
 41
80.0
 71
8
  1
4.0m
  7
HZTXT
  0
MTEXT
  5
13F
330
17
100
AcDbEntity
  8
C-NOTE
100
AcDbMText
 10
225.0
 20
451.0
 30
0.0
 40
2.2
 41
240.0
 71
5
  1
A2≥2.00m；采用相间4.0m
  7
HZTXT
  0
CIRCLE
  5
140
330
17
100
AcDbEntity
  8
C-BUS
100
AcDbCircle
 10
385.0
 20
436.0
 30
0.0
 40
3.2
  0
LINE
  5
141
330
17
100
AcDbEntity
  8
C-STRUCTURE
100
AcDbLine
 10
421.0
 20
423.0
 30
0.0
 11
421.0
 21
449.0
 31
0.0
  0
LINE
  5
142
330
17
100
AcDbEntity
  8
C-DIM
100
AcDbLine
 10
385.0
 20
436.0
 30
0.0
 11
385.0
 21
413.0
 31
0.0
  0
LINE
  5
143
330
17
100
AcDbEntity
  8
C-DIM
100
AcDbLine
 10
421.0
 20
436.0
 30
0.0
 11
421.0
 21
413.0
 31
0.0
  0
LINE
  5
144
330
17
100
AcDbEntity
  8
C-DIM
100
AcDbLine
 10
385.0
 20
413.0
 30
0.0
 11
421.0
 21
413.0
 31
0.0
  0
LINE
  5
145
330
17
100
AcDbEntity
  8
C-DIM
100
AcDbLine
 10
383.5
 20
411.5
 30
0.0
 11
386.5
 21
414.5
 31
0.0
  0
LINE
  5
146
330
17
100
AcDbEntity
  8
C-DIM
100
AcDbLine
 10
419.5
 20
411.5
 30
0.0
 11
422.5
 21
414.5
 31
0.0
  0
MTEXT
  5
147
330
17
100
AcDbEntity
  8
C-DIM
100
AcDbMText
 10
403.0
 20
415.0
 30
0.0
 40
2.5
 41
36.0
 71
8
  1
A1≥1.80m
  7
HZTXT
  0
LWPOLYLINE
  5
148
330
17
100
AcDbEntity
  8
C-NOTE
100
AcDbPolyline
 90
4
 70
1
 10
45.0
 20
470.0
 10
410.0
 20
470.0
 10
410.0
 20
542.0
 10
45.0
 20
542.0
  0
LINE
  5
149
330
17
100
AcDbEntity
  8
C-NOTE
100
AcDbLine
 10
45.0
 20
532.0
 30
0.0
 11
410.0
 21
532.0
 31
0.0
  0
LINE
  5
14A
330
17
100
AcDbEntity
  8
C-NOTE
100
AcDbLine
 10
137.0
 20
470.0
 30
0.0
 11
137.0
 21
532.0
 31
0.0
  0
MTEXT
  5
14B
330
17
100
AcDbEntity
  8
C-NOTE
100
AcDbMText
 10
227.5
 20
537.0
 30
0.0
 40
3.0
 41
359.0
 71
5
  1
L1线路间隔课程额定参数表
  7
HZTXT
  0
LINE
  5
14C
330
17
100
AcDbEntity
  8
C-NOTE
100
AcDbLine
 10
45.0
 20
521.6666666666666
 30
0.0
 11
410.0
 21
521.6666666666666
 31
0.0
  0
MTEXT
  5
14D
330
17
100
AcDbEntity
  8
C-NOTE
100
AcDbMText
 10
91.0
 20
526.8333333333333
 30
0.0
 40
2.1
 41
88.0
 71
5
  1
系统/绝缘
  7
HZTXT
  0
MTEXT
  5
14E
330
17
100
AcDbEntity
  8
C-NOTE
100
AcDbMText
 10
141.0
 20
526.8333333333333
 30
0.0
 40
2.0
 41
265.0
 71
4
  1
Un=220kV；Um=252kV；LIWV=950kV
  7
HZTXT
  0
LINE
  5
14F
330
17
100
AcDbEntity
  8
C-NOTE
100
AcDbLine
 10
45.0
 20
511.3333333333333
 30
0.0
 11
410.0
 21
511.3333333333333
 31
0.0
  0
MTEXT
  5
150
330
17
100
AcDbEntity
  8
C-NOTE
100
AcDbMText
 10
91.0
 20
516.5
 30
0.0
 40
2.1
 41
88.0
 71
5
  1
QF课程目标
  7
HZTXT
  0
MTEXT
  5
151
330
17
100
AcDbEntity
  8
C-NOTE
100
AcDbMText
 10
141.0
 20
516.5
 30
0.0
 40
2.0
 41
265.0
 71
4
  1
252kV；3150A；50kA(3s)；峰值125kA
  7
HZTXT
  0
LINE
  5
152
330
17
100
AcDbEntity
  8
C-NOTE
100
AcDbLine
 10
45.0
 20
501.0
 30
0.0
 11
410.0
 21
501.0
 31
0.0
  0
MTEXT
  5
153
330
17
100
AcDbEntity
  8
C-NOTE
100
AcDbMText
 10
91.0
 20
506.16666666666663
 30
0.0
 40
2.1
 41
88.0
 71
5
  1
QS课程目标
  7
HZTXT
  0
MTEXT
  5
154
330
17
100
AcDbEntity
  8
C-NOTE
100
AcDbMText
 10
141.0
 20
506.16666666666663
 30
0.0
 40
2.0
 41
265.0
 71
4
  1
252kV；3150A；50kA(3s)；峰值125kA
  7
HZTXT
  0
LINE
  5
155
330
17
100
AcDbEntity
  8
C-NOTE
100
AcDbLine
 10
45.0
 20
490.6666666666667
 30
0.0
 11
410.0
 21
490.6666666666667
 31
0.0
  0
MTEXT
  5
156
330
17
100
AcDbEntity
  8
C-NOTE
100
AcDbMText
 10
91.0
 20
495.83333333333337
 30
0.0
 40
2.1
 41
88.0
 71
5
  1
TA/CVT
  7
HZTXT
  0
MTEXT
  5
157
330
17
100
AcDbEntity
  8
C-NOTE
100
AcDbMText
 10
141.0
 20
495.83333333333337
 30
0.0
 40
2.0
 41
265.0
 71
4
  1
TA=1000/1A；CVT=220/√3kV / 100/√3V，另保护及100/3V开口三角；二次负荷/准确级组合待复核
  7
HZTXT
  0
LINE
  5
158
330
17
100
AcDbEntity
  8
C-NOTE
100
AcDbLine
 10
45.0
 20
480.33333333333337
 30
0.0
 11
410.0
 21
480.33333333333337
 31
0.0
  0
MTEXT
  5
159
330
17
100
AcDbEntity
  8
C-NOTE
100
AcDbMText
 10
91.0
 20
485.5
 30
0.0
 40
2.1
 41
88.0
 71
5
  1
MOA
  7
HZTXT
  0
MTEXT
  5
15A
330
17
100
AcDbEntity
  8
C-NOTE
100
AcDbMText
 10
141.0
 20
485.5
 30
0.0
 40
2.0
 41
265.0
 71
4
  1
YH10W-204/532；Uc=159kV；In=10kA
  7
HZTXT
  0
MTEXT
  5
15B
330
17
100
AcDbEntity
  8
C-NOTE
100
AcDbMText
 10
91.0
 20
475.16666666666663
 30
0.0
 40
2.1
 41
88.0
 71
5
  1
导体/净距
  7
HZTXT
  0
MTEXT
  5
15C
330
17
100
AcDbEntity
  8
C-NOTE
100
AcDbMText
 10
141.0
 20
475.16666666666663
 30
0.0
 40
2.0
 41
265.0
 71
4
  1
Φ100/90铝合金管母；相间4.0m；A1/A2/C见图
  7
HZTXT
  0
LWPOLYLINE
  5
15D
330
17
100
AcDbEntity
  8
C-NOTE
100
AcDbPolyline
 90
4
 70
1
 10
425.0
 20
470.0
 10
815.0
 20
470.0
 10
815.0
 20
542.0
 10
425.0
 20
542.0
  0
MTEXT
  5
15E
330
17
100
AcDbEntity
  8
C-NOTE
100
AcDbMText
 10
620.0
 20
536.0
 30
0.0
 40
3.0
 41
382.0
 71
8
  1
设计说明与边界
  7
HZTXT
  0
MTEXT
  5
15F
330
17
100
AcDbEntity
  8
C-NOTE
100
AcDbMText
 10
430.0
 20
528.0
 30
0.0
 40
2.05
 41
380.0
 71
1
  1
1. 本图为L1单间隔课程设计详图，设备外形、基础和端子荷载须由最终厂家图覆盖。
  7
HZTXT
  0
MTEXT
  5
160
330
17
100
AcDbEntity
  8
C-NOTE
100
AcDbMText
 10
430.0
 20
514.5
 30
0.0
 40
2.05
 41
380.0
 71
1
  1
2. 线路侧QS配常开ES，并与QF、QS设置机械/电气防误联锁；检修接地须按操作票执行。
  7
HZTXT
  0
MTEXT
  5
161
330
17
100
AcDbEntity
  8
C-NOTE
100
AcDbMText
 10
430.0
 20
501.0
 30
0.0
 40
2.05
 41
380.0
 71
1
  1
3. 地下接地网与设备/构架接地仅作连接示意；接地电阻、接触电压和跨步电压尚需专项计算。
  7
HZTXT
  0
MTEXT
  5
162
330
17
100
AcDbEntity
  8
C-NOTE
100
AcDbMText
 10
430.0
 20
487.5
 30
0.0
 40
2.05
 41
380.0
 71
1
  1
4. MOA用于限制雷电及操作过电压；本图不代表全站避雷针/避雷线直击雷保护范围已完成。
  7
HZTXT
  0
ENDSEC
  0
SECTION
  2
OBJECTS
  0
DICTIONARY
  5
A
330
0
100
AcDbDictionary
281
1
  3
ACAD_COLOR
350
B
  3
ACAD_GROUP
350
C
  3
ACAD_LAYOUT
350
D
  3
ACAD_MATERIAL
350
E
  3
ACAD_MLEADERSTYLE
350
F
  3
ACAD_MLINESTYLE
350
10
  3
ACAD_PLOTSETTINGS
350
11
  3
ACAD_PLOTSTYLENAME
350
12
  3
ACAD_SCALELIST
350
14
  3
ACAD_TABLESTYLE
350
15
  3
ACAD_VISUALSTYLE
350
16
  3
EZDXF_META
350
2D
  0
DICTIONARY
  5
B
330
A
100
AcDbDictionary
281
1
  0
DICTIONARY
  5
C
330
A
100
AcDbDictionary
281
1
  0
DICTIONARY
  5
D
330
A
100
AcDbDictionary
281
1
  3
Model
350
1A
  3
Layout1
350
1E
  0
DICTIONARY
  5
E
330
A
100
AcDbDictionary
281
1
  3
ByBlock
350
1F
  3
ByLayer
350
20
  3
Global
350
21
  0
DICTIONARY
  5
F
330
A
100
AcDbDictionary
281
1
  3
Standard
350
2C
  0
DICTIONARY
  5
10
330
A
100
AcDbDictionary
281
1
  3
Standard
350
22
  0
DICTIONARY
  5
11
330
A
100
AcDbDictionary
281
1
  0
ACDBDICTIONARYWDFLT
  5
12
330
A
100
AcDbDictionary
281
1
  3
Normal
350
13
100
AcDbDictionaryWithDefault
340
13
  0
ACDBPLACEHOLDER
  5
13
330
12
  0
DICTIONARY
  5
14
330
A
100
AcDbDictionary
281
1
  0
DICTIONARY
  5
15
330
A
100
AcDbDictionary
281
1
  0
DICTIONARY
  5
16
330
A
100
AcDbDictionary
281
1
  0
LAYOUT
  5
1A
330
D
100
AcDbPlotSettings
  1

  4
A3
  6

 40
7.5
 41
20.0
 42
7.5
 43
20.0
 44
420.0
 45
297.0
 46
0.0
 47
0.0
 48
0.0
 49
0.0
140
0.0
141
0.0
142
1.0
143
1.0
 70
1024
 72
1
 73
0
 74
5
  7

 75
16
 76
0
 77
2
 78
300
147
1.0
148
0.0
149
0.0
100
AcDbLayout
  1
Model
 70
1
 71
0
 10
0.0
 20
0.0
 11
420.0
 21
297.0
 12
0.0
 22
0.0
 32
0.0
 14
1e+20
 24
1e+20
 34
1e+20
 15
-1e+20
 25
-1e+20
 35
-1e+20
146
0.0
 13
0.0
 23
0.0
 33
0.0
 16
1.0
 26
0.0
 36
0.0
 17
0.0
 27
1.0
 37
0.0
 76
1
330
17
  0
LAYOUT
  5
1E
330
D
100
AcDbPlotSettings
  1

  4
A3
  6

 40
7.5
 41
20.0
 42
7.5
 43
20.0
 44
420.0
 45
297.0
 46
0.0
 47
0.0
 48
0.0
 49
0.0
140
0.0
141
0.0
142
1.0
143
1.0
 70
0
 72
1
 73
0
 74
5
  7

 75
16
 76
0
 77
2
 78
300
147
1.0
148
0.0
149
0.0
100
AcDbLayout
  1
Layout1
 70
1
 71
1
 10
0.0
 20
0.0
 11
420.0
 21
297.0
 12
0.0
 22
0.0
 32
0.0
 14
1e+20
 24
1e+20
 34
1e+20
 15
-1e+20
 25
-1e+20
 35
-1e+20
146
0.0
 13
0.0
 23
0.0
 33
0.0
 16
1.0
 26
0.0
 36
0.0
 17
0.0
 27
1.0
 37
0.0
 76
1
330
1B
  0
MATERIAL
  5
1F
102
{ACAD_REACTORS
330
E
102
}
330
E
100
AcDbMaterial
  1
ByBlock
  2

 70
0
 40
1.0
 71
1
 41
1.0
 91
-1023410177
 42
1.0
 72
1
  3

 73
1
 74
1
 75
1
 44
0.5
 73
0
 45
1.0
 46
1.0
 77
1
  4

 78
1
 79
1
170
1
 48
1.0
171
1
  6

172
1
173
1
174
1
140
1.0
141
1.0
175
1
  7

176
1
177
1
178
1
143
1.0
179
1
  8

270
1
271
1
272
1
145
1.0
146
1.0
273
1
  9

274
1
275
1
276
1
 42
1.0
 72
1
  3

 73
1
 74
1
 75
1
 94
63
  0
MATERIAL
  5
20
102
{ACAD_REACTORS
330
E
102
}
330
E
100
AcDbMaterial
  1
ByLayer
  2

 70
0
 40
1.0
 71
1
 41
1.0
 91
-1023410177
 42
1.0
 72
1
  3

 73
1
 74
1
 75
1
 44
0.5
 73
0
 45
1.0
 46
1.0
 77
1
  4

 78
1
 79
1
170
1
 48
1.0
171
1
  6

172
1
173
1
174
1
140
1.0
141
1.0
175
1
  7

176
1
177
1
178
1
143
1.0
179
1
  8

270
1
271
1
272
1
145
1.0
146
1.0
273
1
  9

274
1
275
1
276
1
 42
1.0
 72
1
  3

 73
1
 74
1
 75
1
 94
63
  0
MATERIAL
  5
21
102
{ACAD_REACTORS
330
E
102
}
330
E
100
AcDbMaterial
  1
Global
  2

 70
0
 40
1.0
 71
1
 41
1.0
 91
-1023410177
 42
1.0
 72
1
  3

 73
1
 74
1
 75
1
 44
0.5
 73
0
 45
1.0
 46
1.0
 77
1
  4

 78
1
 79
1
170
1
 48
1.0
171
1
  6

172
1
173
1
174
1
140
1.0
141
1.0
175
1
  7

176
1
177
1
178
1
143
1.0
179
1
  8

270
1
271
1
272
1
145
1.0
146
1.0
273
1
  9

274
1
275
1
276
1
 42
1.0
 72
1
  3

 73
1
 74
1
 75
1
 94
63
  0
MLINESTYLE
  5
22
102
{ACAD_REACTORS
330
10
102
}
330
10
100
AcDbMlineStyle
  2
Standard
 70
0
  3

 62
256
 51
90.0
 52
90.0
 71
2
 49
0.5
 62
256
  6
BYLAYER
 49
-0.5
 62
256
  6
BYLAYER
  0
MLEADERSTYLE
  5
2C
102
{ACAD_REACTORS
330
F
102
}
330
F
100
AcDbMLeaderStyle
179
2
170
2
171
1
172
0
 90
2
 40
0.0
 41
0.0
173
1
 91
-1056964608
 92
-2
290
1
 42
2.0
291
1
 43
8.0
  3
Standard
 44
4.0
300

342
29
174
1
175
1
176
0
178
1
 93
-1056964608
 45
4.0
292
0
297
0
 46
4.0
 94
-1056964608
 47
1.0
 49
1.0
140
1.0
294
1
141
0.0
177
0
142
1.0
295
0
296
0
143
3.75
271
0
272
9
273
9
  0
DICTIONARY
  5
2D
330
A
100
AcDbDictionary
280
1
281
1
  3
CREATED_BY_EZDXF
350
2E
  3
WRITTEN_BY_EZDXF
350
165
  0
DICTIONARYVAR
  5
2E
330
2D
100
DictionaryVariables
280
0
  1
0.0 @ 2000-01-01T00:00:00.000000+00:00
  0
DICTIONARYVAR
  5
165
330
2D
100
DictionaryVariables
280
0
  1
0.0 @ 2000-01-01T00:00:00.000000+00:00
  0
ENDSEC
  0
EOF
