  0
SECTION
  2
HEADER
  9
$ACADVER
  1
AC1032
  9
$ACADMAINTVER
 90
4
  9
$DWGCODEPAGE
  3
ANSI_1252
  9
$LASTSAVEDBY
  1
ezdxf
  9
$REQUIREDVERSIONS
160
0
  9
$INSBASE
 10
0.0
 20
0.0
 30
0.0
  9
$EXTMIN
 10
1e+20
 20
1e+20
 30
1e+20
  9
$EXTMAX
 10
-1e+20
 20
-1e+20
 30
-1e+20
  9
$LIMMIN
 10
0.0
 20
0.0
  9
$LIMMAX
 10
420.0
 20
297.0
  9
$ORTHOMODE
 70
0
  9
$REGENMODE
 70
1
  9
$FILLMODE
 70
1
  9
$QTEXTMODE
 70
0
  9
$MIRRTEXT
 70
1
  9
$LTSCALE
 40
1.0
  9
$ATTMODE
 70
1
  9
$TEXTSIZE
 40
2.5
  9
$TRACEWID
 40
1.0
  9
$TEXTSTYLE
  7
Standard
  9
$CLAYER
  8
0
  9
$CELTYPE
  6
ByLayer
  9
$CECOLOR
 62
256
  9
$CELTSCALE
 40
1.0
  9
$DISPSILH
 70
0
  9
$DIMSCALE
 40
1.0
  9
$DIMASZ
 40
2.5
  9
$DIMEXO
 40
0.625
  9
$DIMDLI
 40
3.75
  9
$DIMRND
 40
0.0
  9
$DIMDLE
 40
0.0
  9
$DIMEXE
 40
1.25
  9
$DIMTP
 40
0.0
  9
$DIMTM
 40
0.0
  9
$DIMTXT
 40
2.5
  9
$DIMCEN
 40
2.5
  9
$DIMTSZ
 40
0.0
  9
$DIMTOL
 70
0
  9
$DIMLIM
 70
0
  9
$DIMTIH
 70
0
  9
$DIMTOH
 70
0
  9
$DIMSE1
 70
0
  9
$DIMSE2
 70
0
  9
$DIMTAD
 70
1
  9
$DIMZIN
 70
8
  9
$DIMBLK
  1

  9
$DIMASO
 70
1
  9
$DIMSHO
 70
1
  9
$DIMPOST
  1

  9
$DIMAPOST
  1

  9
$DIMALT
 70
0
  9
$DIMALTD
 70
3
  9
$DIMALTF
 40
0.03937007874
  9
$DIMLFAC
 40
1.0
  9
$DIMTOFL
 70
1
  9
$DIMTVP
 40
0.0
  9
$DIMTIX
 70
0
  9
$DIMSOXD
 70
0
  9
$DIMSAH
 70
0
  9
$DIMBLK1
  1

  9
$DIMBLK2
  1

  9
$DIMSTYLE
  2
ISO-25
  9
$DIMCLRD
 70
0
  9
$DIMCLRE
 70
0
  9
$DIMCLRT
 70
0
  9
$DIMTFAC
 40
1.0
  9
$DIMGAP
 40
0.625
  9
$DIMJUST
 70
0
  9
$DIMSD1
 70
0
  9
$DIMSD2
 70
0
  9
$DIMTOLJ
 70
0
  9
$DIMTZIN
 70
8
  9
$DIMALTZ
 70
0
  9
$DIMALTTZ
 70
0
  9
$DIMUPT
 70
0
  9
$DIMDEC
 70
2
  9
$DIMTDEC
 70
2
  9
$DIMALTU
 70
2
  9
$DIMALTTD
 70
3
  9
$DIMTXSTY
  7
Standard
  9
$DIMAUNIT
 70
0
  9
$DIMADEC
 70
0
  9
$DIMALTRND
 40
0.0
  9
$DIMAZIN
 70
0
  9
$DIMDSEP
 70
44
  9
$DIMATFIT
 70
3
  9
$DIMFRAC
 70
0
  9
$DIMLDRBLK
  1

  9
$DIMLUNIT
 70
2
  9
$DIMLWD
 70
-2
  9
$DIMLWE
 70
-2
  9
$DIMTMOVE
 70
0
  9
$DIMFXL
 40
1.0
  9
$DIMFXLON
 70
0
  9
$DIMJOGANG
 40
0.785398163397
  9
$DIMTFILL
 70
0
  9
$DIMTFILLCLR
 70
0
  9
$DIMARCSYM
 70
0
  9
$DIMLTYPE
  6

  9
$DIMLTEX1
  6

  9
$DIMLTEX2
  6

  9
$DIMTXTDIRECTION
 70
0
  9
$LUNITS
 70
2
  9
$LUPREC
 70
4
  9
$SKETCHINC
 40
1.0
  9
$FILLETRAD
 40
10.0
  9
$AUNITS
 70
0
  9
$AUPREC
 70
2
  9
$MENU
  1
.
  9
$ELEVATION
 40
0.0
  9
$PELEVATION
 40
0.0
  9
$THICKNESS
 40
0.0
  9
$LIMCHECK
 70
0
  9
$CHAMFERA
 40
0.0
  9
$CHAMFERB
 40
0.0
  9
$CHAMFERC
 40
0.0
  9
$CHAMFERD
 40
0.0
  9
$SKPOLY
 70
0
  9
$TDCREATE
 40
2451545.0
  9
$TDUCREATE
 40
2451545.0
  9
$TDUPDATE
 40
2451545.0
  9
$TDUUPDATE
 40
2451545.0
  9
$TDINDWG
 40
0.0
  9
$TDUSRTIMER
 40
0.0
  9
$USRTIMER
 70
1
  9
$ANGBASE
 50
0.0
  9
$ANGDIR
 70
0
  9
$PDMODE
 70
0
  9
$PDSIZE
 40
0.0
  9
$PLINEWID
 40
0.0
  9
$SPLFRAME
 70
0
  9
$SPLINETYPE
 70
6
  9
$SPLINESEGS
 70
8
  9
$HANDSEED
  5
1FE
  9
$SURFTAB1
 70
6
  9
$SURFTAB2
 70
6
  9
$SURFTYPE
 70
6
  9
$SURFU
 70
6
  9
$SURFV
 70
6
  9
$UCSBASE
  2

  9
$UCSNAME
  2

  9
$UCSORG
 10
0.0
 20
0.0
 30
0.0
  9
$UCSXDIR
 10
1.0
 20
0.0
 30
0.0
  9
$UCSYDIR
 10
0.0
 20
1.0
 30
0.0
  9
$UCSORTHOREF
  2

  9
$UCSORTHOVIEW
 70
0
  9
$UCSORGTOP
 10
0.0
 20
0.0
 30
0.0
  9
$UCSORGBOTTOM
 10
0.0
 20
0.0
 30
0.0
  9
$UCSORGLEFT
 10
0.0
 20
0.0
 30
0.0
  9
$UCSORGRIGHT
 10
0.0
 20
0.0
 30
0.0
  9
$UCSORGFRONT
 10
0.0
 20
0.0
 30
0.0
  9
$UCSORGBACK
 10
0.0
 20
0.0
 30
0.0
  9
$PUCSBASE
  2

  9
$PUCSNAME
  2

  9
$PUCSORG
 10
0.0
 20
0.0
 30
0.0
  9
$PUCSXDIR
 10
1.0
 20
0.0
 30
0.0
  9
$PUCSYDIR
 10
0.0
 20
1.0
 30
0.0
  9
$PUCSORTHOREF
  2

  9
$PUCSORTHOVIEW
 70
0
  9
$PUCSORGTOP
 10
0.0
 20
0.0
 30
0.0
  9
$PUCSORGBOTTOM
 10
0.0
 20
0.0
 30
0.0
  9
$PUCSORGLEFT
 10
0.0
 20
0.0
 30
0.0
  9
$PUCSORGRIGHT
 10
0.0
 20
0.0
 30
0.0
  9
$PUCSORGFRONT
 10
0.0
 20
0.0
 30
0.0
  9
$PUCSORGBACK
 10
0.0
 20
0.0
 30
0.0
  9
$USERI1
 70
0
  9
$USERI2
 70
0
  9
$USERI3
 70
0
  9
$USERI4
 70
0
  9
$USERI5
 70
0
  9
$USERR1
 40
0.0
  9
$USERR2
 40
0.0
  9
$USERR3
 40
0.0
  9
$USERR4
 40
0.0
  9
$USERR5
 40
0.0
  9
$WORLDVIEW
 70
1
  9
$SHADEDGE
 70
3
  9
$SHADEDIF
 70
70
  9
$TILEMODE
 70
1
  9
$MAXACTVP
 70
64
  9
$PINSBASE
 10
0.0
 20
0.0
 30
0.0
  9
$PLIMCHECK
 70
0
  9
$PEXTMIN
 10
1e+20
 20
1e+20
 30
1e+20
  9
$PEXTMAX
 10
-1e+20
 20
-1e+20
 30
-1e+20
  9
$PLIMMIN
 10
0.0
 20
0.0
  9
$PLIMMAX
 10
420.0
 20
297.0
  9
$UNITMODE
 70
0
  9
$VISRETAIN
 70
1
  9
$PLINEGEN
 70
0
  9
$PSLTSCALE
 70
1
  9
$TREEDEPTH
 70
3020
  9
$CMLSTYLE
  2
Standard
  9
$CMLJUST
 70
0
  9
$CMLSCALE
 40
20.0
  9
$PROXYGRAPHICS
 70
1
  9
$MEASUREMENT
 70
1
  9
$CELWEIGHT
370
-1
  9
$ENDCAPS
280
0
  9
$JOINSTYLE
280
0
  9
$LWDISPLAY
290
1
  9
$INSUNITS
 70
4
  9
$HYPERLINKBASE
  1

  9
$STYLESHEET
  1

  9
$XEDIT
290
1
  9
$CEPSNTYPE
380
0
  9
$PSTYLEMODE
290
1
  9
$FINGERPRINTGUID
  2
{00000000-0000-0000-0000-000000000000}
  9
$VERSIONGUID
  2
{00000000-0000-0000-0000-000000000000}
  9
$EXTNAMES
290
1
  9
$PSVPSCALE
 40
0.0
  9
$OLESTARTUP
290
0
  9
$SORTENTS
280
127
  9
$INDEXCTL
280
0
  9
$HIDETEXT
280
1
  9
$XCLIPFRAME
280
1
  9
$HALOGAP
280
0
  9
$OBSCOLOR
 70
257
  9
$OBSLTYPE
280
0
  9
$INTERSECTIONDISPLAY
280
0
  9
$INTERSECTIONCOLOR
 70
257
  9
$DIMASSOC
280
2
  9
$PROJECTNAME
  1

  9
$CAMERADISPLAY
290
0
  9
$LENSLENGTH
 40
50.0
  9
$CAMERAHEIGHT
 40
0.0
  9
$STEPSPERSEC
 40
24.0
  9
$STEPSIZE
 40
100.0
  9
$3DDWFPREC
 40
2.0
  9
$PSOLWIDTH
 40
0.005
  9
$PSOLHEIGHT
 40
0.08
  9
$LOFTANG1
 40
1.570796326795
  9
$LOFTANG2
 40
1.570796326795
  9
$LOFTMAG1
 40
0.0
  9
$LOFTMAG2
 40
0.0
  9
$LOFTPARAM
 70
7
  9
$LOFTNORMALS
280
1
  9
$LATITUDE
 40
37.795
  9
$LONGITUDE
 40
-122.394
  9
$NORTHDIRECTION
 40
0.0
  9
$TIMEZONE
 70
-8000
  9
$LIGHTGLYPHDISPLAY
280
1
  9
$TILEMODELIGHTSYNCH
280
1
  9
$CMATERIAL
347
20
  9
$SOLIDHIST
280
0
  9
$SHOWHIST
280
1
  9
$DWFFRAME
280
2
  9
$DGNFRAME
280
2
  9
$REALWORLDSCALE
290
1
  9
$INTERFERECOLOR
 62
256
  9
$CSHADOW
280
0
  9
$SHADOWPLANELOCATION
 40
0.0
  0
ENDSEC
  0
SECTION
  2
CLASSES
  0
CLASS
  1
ACDBDICTIONARYWDFLT
  2
AcDbDictionaryWithDefault
  3
ObjectDBX Classes
 90
0
 91
0
280
0
281
0
  0
CLASS
  1
SUN
  2
AcDbSun
  3
SCENEOE
 90
1153
 91
0
280
0
281
0
  0
CLASS
  1
VISUALSTYLE
  2
AcDbVisualStyle
  3
ObjectDBX Classes
 90
4095
 91
0
280
0
281
0
  0
CLASS
  1
MATERIAL
  2
AcDbMaterial
  3
ObjectDBX Classes
 90
1153
 91
0
280
0
281
0
  0
CLASS
  1
SCALE
  2
AcDbScale
  3
ObjectDBX Classes
 90
1153
 91
0
280
0
281
0
  0
CLASS
  1
TABLESTYLE
  2
AcDbTableStyle
  3
ObjectDBX Classes
 90
4095
 91
0
280
0
281
0
  0
CLASS
  1
MLEADERSTYLE
  2
AcDbMLeaderStyle
  3
ACDB_MLEADERSTYLE_CLASS
 90
4095
 91
0
280
0
281
0
  0
CLASS
  1
DICTIONARYVAR
  2
AcDbDictionaryVar
  3
ObjectDBX Classes
 90
0
 91
0
280
0
281
0
  0
CLASS
  1
CELLSTYLEMAP
  2
AcDbCellStyleMap
  3
ObjectDBX Classes
 90
1152
 91
0
280
0
281
0
  0
CLASS
  1
MENTALRAYRENDERSETTINGS
  2
AcDbMentalRayRenderSettings
  3
SCENEOE
 90
1024
 91
0
280
0
281
0
  0
CLASS
  1
ACDBDETAILVIEWSTYLE
  2
AcDbDetailViewStyle
  3
ObjectDBX Classes
 90
1025
 91
0
280
0
281
0
  0
CLASS
  1
ACDBSECTIONVIEWSTYLE
  2
AcDbSectionViewStyle
  3
ObjectDBX Classes
 90
1025
 91
0
280
0
281
0
  0
CLASS
  1
RASTERVARIABLES
  2
AcDbRasterVariables
  3
ISM
 90
0
 91
0
280
0
281
0
  0
CLASS
  1
LAYOUT
  2
AcDbLayout
  3
ObjectDBX Classes
 90
0
 91
0
280
0
281
0
  0
CLASS
  1
ACDBPLACEHOLDER
  2
AcDbPlaceHolder
  3
ObjectDBX Classes
 90
0
 91
0
280
0
281
0
  0
ENDSEC
  0
SECTION
  2
TABLES
  0
TABLE
  2
VPORT
  5
8
330
0
100
AcDbSymbolTable
 70
1
  0
VPORT
  5
23
330
8
100
AcDbSymbolTableRecord
100
AcDbViewportTableRecord
  2
*Active
 70
0
 10
0.0
 20
0.0
 11
1.0
 21
1.0
 12
0.0
 22
0.0
 13
0.0
 23
0.0
 14
0.5
 24
0.5
 15
0.5
 25
0.5
 16
0.0
 26
0.0
 36
1.0
 17
0.0
 27
0.0
 37
0.0
 40
1000.0
 41
1.34
 42
50.0
 43
0.0
 44
0.0
 50
0.0
 51
0.0
 71
0
 72
1000
 73
1
 74
3
 75
0
 76
0
 77
0
 78
0
281
0
 65
0
146
0.0
  0
ENDTAB
  0
TABLE
  2
LTYPE
  5
2
330
0
100
AcDbSymbolTable
 70
5
  0
LTYPE
  5
24
330
2
100
AcDbSymbolTableRecord
100
AcDbLinetypeTableRecord
  2
ByBlock
 70
0
  3

 72
65
 73
0
 40
0.0
  0
LTYPE
  5
25
330
2
100
AcDbSymbolTableRecord
100
AcDbLinetypeTableRecord
  2
ByLayer
 70
0
  3

 72
65
 73
0
 40
0.0
  0
LTYPE
  5
26
330
2
100
AcDbSymbolTableRecord
100
AcDbLinetypeTableRecord
  2
Continuous
 70
0
  3

 72
65
 73
0
 40
0.0
  0
LTYPE
  5
2F
330
2
100
AcDbSymbolTableRecord
100
AcDbLinetypeTableRecord
  2
CENTER
 70
0
  3
中心线
 72
65
 73
4
 40
20.0
 49
12.0
 74
0
 49
-3.0
 74
0
 49
2.0
 74
0
 49
-3.0
 74
0
  0
LTYPE
  5
30
330
2
100
AcDbSymbolTableRecord
100
AcDbLinetypeTableRecord
  2
RESERVED
 70
0
  3
预留设施
 72
65
 73
2
 40
9.0
 49
6.0
 74
0
 49
-3.0
 74
0
  0
ENDTAB
  0
TABLE
  2
LAYER
  5
1
330
0
100
AcDbSymbolTable
 70
19
  0
LAYER
  5
27
330
1
100
AcDbSymbolTableRecord
100
AcDbLayerTableRecord
  2
0
 70
0
 62
7
  6
Continuous
370
-3
390
13
347
21
  0
LAYER
  5
28
330
1
100
AcDbSymbolTableRecord
100
AcDbLayerTableRecord
  2
Defpoints
 70
0
 62
7
  6
Continuous
290
0
370
-3
390
13
347
21
  0
LAYER
  5
31
330
1
100
AcDbSymbolTableRecord
100
AcDbLayerTableRecord
  2
C-BOUNDARY
 70
0
 62
7
  6
CONTINUOUS
370
50
390
13
347
21
  0
LAYER
  5
32
330
1
100
AcDbSymbolTableRecord
100
AcDbLayerTableRecord
  2
C-FENCE
 70
0
 62
7
  6
CONTINUOUS
370
35
390
13
347
21
  0
LAYER
  5
33
330
1
100
AcDbSymbolTableRecord
100
AcDbLayerTableRecord
  2
C-ROAD
 70
0
 62
8
  6
CONTINUOUS
370
25
390
13
347
21
  0
LAYER
  5
34
330
1
100
AcDbSymbolTableRecord
100
AcDbLayerTableRecord
  2
C-BUS
 70
0
 62
1
  6
CONTINUOUS
370
70
390
13
347
21
  0
LAYER
  5
35
330
1
100
AcDbSymbolTableRecord
100
AcDbLayerTableRecord
  2
C-CONDUCTOR
 70
0
 62
7
  6
CONTINUOUS
370
35
390
13
347
21
  0
LAYER
  5
36
330
1
100
AcDbSymbolTableRecord
100
AcDbLayerTableRecord
  2
C-EQUIPMENT
 70
0
 62
7
  6
CONTINUOUS
370
35
390
13
347
21
  0
LAYER
  5
37
330
1
100
AcDbSymbolTableRecord
100
AcDbLayerTableRecord
  2
C-STRUCTURE
 70
0
 62
6
  6
CONTINUOUS
370
35
390
13
347
21
  0
LAYER
  5
38
330
1
100
AcDbSymbolTableRecord
100
AcDbLayerTableRecord
  2
C-FOUNDATION
 70
0
 62
8
  6
CONTINUOUS
370
25
390
13
347
21
  0
LAYER
  5
39
330
1
100
AcDbSymbolTableRecord
100
AcDbLayerTableRecord
  2
C-BUILDING
 70
0
 62
3
  6
CONTINUOUS
370
40
390
13
347
21
  0
LAYER
  5
3A
330
1
100
AcDbSymbolTableRecord
100
AcDbLayerTableRecord
  2
C-CENTER
 70
0
 62
4
  6
CENTER
370
18
390
13
347
21
  0
LAYER
  5
3B
330
1
100
AcDbSymbolTableRecord
100
AcDbLayerTableRecord
  2
C-DIM
 70
0
 62
2
  6
CONTINUOUS
370
18
390
13
347
21
  0
LAYER
  5
3C
330
1
100
AcDbSymbolTableRecord
100
AcDbLayerTableRecord
  2
C-TEXT
 70
0
 62
7
  6
CONTINUOUS
370
18
390
13
347
21
  0
LAYER
  5
3D
330
1
100
AcDbSymbolTableRecord
100
AcDbLayerTableRecord
  2
C-NOTE
 70
0
 62
7
  6
CONTINUOUS
370
18
390
13
347
21
  0
LAYER
  5
3E
330
1
100
AcDbSymbolTableRecord
100
AcDbLayerTableRecord
  2
C-RESERVED
 70
0
 62
8
  6
RESERVED
370
25
390
13
347
21
  0
LAYER
  5
3F
330
1
100
AcDbSymbolTableRecord
100
AcDbLayerTableRecord
  2
C-FRAME
 70
0
 62
7
  6
CONTINUOUS
370
50
390
13
347
21
  0
LAYER
  5
40
330
1
100
AcDbSymbolTableRecord
100
AcDbLayerTableRecord
  2
C-TITLE
 70
0
 62
7
  6
CONTINUOUS
370
25
390
13
347
21
  0
LAYER
  5
41
330
1
100
AcDbSymbolTableRecord
100
AcDbLayerTableRecord
  2
C-NOPLOT-GUIDE
 70
0
 62
9
  6
CONTINUOUS
290
0
370
9
390
13
347
21
  0
ENDTAB
  0
TABLE
  2
STYLE
  5
5
330
0
100
AcDbSymbolTable
 70
3
  0
STYLE
  5
29
330
5
100
AcDbSymbolTableRecord
100
AcDbTextStyleTableRecord
  2
Standard
 70
0
 40
0.0
 41
1.0
 50
0.0
 71
0
 42
2.5
  3
txt
  4

  0
STYLE
  5
42
330
5
100
AcDbSymbolTableRecord
100
AcDbTextStyleTableRecord
  2
HZTXT
 70
0
 40
0.0
 41
1.0
 50
0.0
 71
0
 42
2.5
  3
txt.shx
  4
gbcbig.shx
  0
STYLE
  5
43
330
5
100
AcDbSymbolTableRecord
100
AcDbTextStyleTableRecord
  2
LATIN
 70
0
 40
0.0
 41
1.0
 50
0.0
 71
0
 42
2.5
  3
arial.ttf
  4

  0
ENDTAB
  0
TABLE
  2
VIEW
  5
7
330
0
100
AcDbSymbolTable
 70
0
  0
ENDTAB
  0
TABLE
  2
UCS
  5
6
330
0
100
AcDbSymbolTable
 70
0
  0
ENDTAB
  0
TABLE
  2
APPID
  5
3
330
0
100
AcDbSymbolTable
 70
3
  0
APPID
  5
2A
330
3
100
AcDbSymbolTableRecord
100
AcDbRegAppTableRecord
  2
ACAD
 70
0
  0
APPID
  5
1FB
330
3
100
AcDbSymbolTableRecord
100
AcDbRegAppTableRecord
  2
HATCHBACKGROUNDCOLOR
 70
0
  0
APPID
  5
1FC
330
3
100
AcDbSymbolTableRecord
100
AcDbRegAppTableRecord
  2
EZDXF
 70
0
  0
ENDTAB
  0
TABLE
  2
DIMSTYLE
  5
4
330
0
100
AcDbSymbolTable
 70
1
100
AcDbDimStyleTable
  0
DIMSTYLE
105
2B
330
4
100
AcDbSymbolTableRecord
100
AcDbDimStyleTableRecord
  2
Standard
 70
0
 40
1.0
 41
2.5
 42
0.625
 43
3.75
 44
1.25
 45
0.0
 46
0.0
 47
0.0
 48
0.0
 49
2.5
140
2.5
141
2.5
142
0.0
143
0.03937007874
144
1.0
145
0.0
146
1.0
147
0.625
148
0.0
 69
0
 70
0
 71
0
 72
0
 73
0
 74
0
 75
0
 76
0
 77
1
 78
8
 79
3
170
0
171
3
172
1
173
0
174
0
175
0
176
0
177
0
178
0
179
2
271
2
272
2
273
2
274
3
275
0
276
0
277
2
278
44
279
0
280
0
281
0
282
0
283
0
284
8
285
0
286
0
288
0
289
3
290
0
371
-2
372
-2
  0
ENDTAB
  0
TABLE
  2
BLOCK_RECORD
  5
9
330
0
100
AcDbSymbolTable
 70
2
  0
BLOCK_RECORD
  5
17
330
9
100
AcDbSymbolTableRecord
100
AcDbBlockTableRecord
  2
*Model_Space
340
1A
 70
0
280
1
281
0
  0
BLOCK_RECORD
  5
1B
330
9
100
AcDbSymbolTableRecord
100
AcDbBlockTableRecord
  2
*Paper_Space
340
1E
 70
0
280
1
281
0
  0
ENDTAB
  0
ENDSEC
  0
SECTION
  2
BLOCKS
  0
BLOCK
  5
18
330
17
100
AcDbEntity
  8
0
100
AcDbBlockBegin
  2
*Model_Space
 70
0
 10
0.0
 20
0.0
 30
0.0
  3
*Model_Space
  1

  0
ENDBLK
  5
19
330
17
100
AcDbEntity
  8
0
100
AcDbBlockEnd
  0
BLOCK
  5
1C
330
1B
100
AcDbEntity
  8
0
100
AcDbBlockBegin
  2
*Paper_Space
 70
0
 10
0.0
 20
0.0
 30
0.0
  3
*Paper_Space
  1

  0
ENDBLK
  5
1D
330
1B
100
AcDbEntity
  8
0
100
AcDbBlockEnd
  0
ENDSEC
  0
SECTION
  2
ENTITIES
  0
LWPOLYLINE
  5
44
330
17
100
AcDbEntity
  8
C-FRAME
100
AcDbPolyline
 90
4
 70
1
 10
10.0
 20
10.0
 10
831.0
 20
10.0
 10
831.0
 20
584.0
 10
10.0
 20
584.0
  0
LWPOLYLINE
  5
45
330
17
100
AcDbEntity
  8
C-FRAME
100
AcDbPolyline
 90
4
 70
1
 10
25.0
 20
10.0
 10
831.0
 20
10.0
 10
831.0
 20
584.0
 10
25.0
 20
584.0
  0
LWPOLYLINE
  5
46
330
17
100
AcDbEntity
  8
C-TITLE
100
AcDbPolyline
 90
4
 70
1
 10
651.0
 20
10.0
 10
831.0
 20
10.0
 10
831.0
 20
66.0
 10
651.0
 20
66.0
  0
LINE
  5
47
330
17
100
AcDbEntity
  8
C-TITLE
100
AcDbLine
 10
651.0
 20
24.0
 30
0.0
 11
831.0
 21
24.0
 31
0.0
  0
LINE
  5
48
330
17
100
AcDbEntity
  8
C-TITLE
100
AcDbLine
 10
651.0
 20
38.0
 30
0.0
 11
831.0
 21
38.0
 31
0.0
  0
LINE
  5
49
330
17
100
AcDbEntity
  8
C-TITLE
100
AcDbLine
 10
651.0
 20
52.0
 30
0.0
 11
831.0
 21
52.0
 31
0.0
  0
LINE
  5
4A
330
17
100
AcDbEntity
  8
C-TITLE
100
AcDbLine
 10
711.0
 20
10.0
 30
0.0
 11
711.0
 21
24.0
 31
0.0
  0
LINE
  5
4B
330
17
100
AcDbEntity
  8
C-TITLE
100
AcDbLine
 10
751.0
 20
10.0
 30
0.0
 11
751.0
 21
24.0
 31
0.0
  0
LINE
  5
4C
330
17
100
AcDbEntity
  8
C-TITLE
100
AcDbLine
 10
771.0
 20
10.0
 30
0.0
 11
771.0
 21
24.0
 31
0.0
  0
LINE
  5
4D
330
17
100
AcDbEntity
  8
C-TITLE
100
AcDbLine
 10
791.0
 20
10.0
 30
0.0
 11
791.0
 21
24.0
 31
0.0
  0
LINE
  5
4E
330
17
100
AcDbEntity
  8
C-TITLE
100
AcDbLine
 10
771.0
 20
38.0
 30
0.0
 11
771.0
 21
66.0
 31
0.0
  0
MTEXT
  5
4F
330
17
100
AcDbEntity
  8
C-TITLE
100
AcDbMText
 10
711.0
 20
59.0
 30
0.0
 40
4.2
 41
116.0
 71
5
  1
220kV户外AIS典型间隔断面图
  7
HZTXT
  0
MTEXT
  5
50
330
17
100
AcDbEntity
  8
C-TITLE
100
AcDbMText
 10
801.0
 20
59.0
 30
0.0
 40
2.6
 41
56.0
 71
5
  1
图号 SEC-220-01
  7
HZTXT
  0
MTEXT
  5
51
330
17
100
AcDbEntity
  8
C-TITLE
100
AcDbMText
 10
801.0
 20
45.0
 30
0.0
 40
2.6
 41
56.0
 71
5
  1
第1张 共1张
  7
HZTXT
  0
MTEXT
  5
52
330
17
100
AcDbEntity
  8
C-TITLE
100
AcDbMText
 10
741.0
 20
31.0
 30
0.0
 40
2.8
 41
174.0
 71
5
  1
220kV新能源汇集变电所电气一次部分
  7
HZTXT
  0
MTEXT
  5
53
330
17
100
AcDbEntity
  8
C-TITLE
100
AcDbMText
 10
681.0
 20
17.0
 30
0.0
 40
2.5
 41
56.0
 71
5
  1
课程设计
  7
HZTXT
  0
MTEXT
  5
54
330
17
100
AcDbEntity
  8
C-TITLE
100
AcDbMText
 10
731.0
 20
17.0
 30
0.0
 40
2.3
 41
36.0
 71
5
  1
设计：
  7
HZTXT
  0
MTEXT
  5
55
330
17
100
AcDbEntity
  8
C-TITLE
100
AcDbMText
 10
771.0
 20
17.0
 30
0.0
 40
2.3
 41
36.0
 71
5
  1
校核：
  7
HZTXT
  0
MTEXT
  5
56
330
17
100
AcDbEntity
  8
C-TITLE
100
AcDbMText
 10
811.0
 20
17.0
 30
0.0
 40
2.3
 41
36.0
 71
5
  1
比例 1:100
  7
HZTXT
  0
MTEXT
  5
57
330
17
100
AcDbEntity
  8
C-TITLE
100
AcDbMText
 10
420.5
 20
565.0
 30
0.0
 40
6.0
 41
600.0
 71
5
  1
220kV户外AIS典型间隔断面图
  7
HZTXT
  0
LINE
  5
58
330
17
100
AcDbEntity
  8
C-FOUNDATION
100
AcDbLine
 10
50.0
 20
155.0
 30
0.0
 11
390.0
 21
155.0
 31
0.0
  0
MTEXT
  5
59
330
17
100
AcDbEntity
  8
C-TITLE
100
AcDbMText
 10
220.0
 20
380.0
 30
0.0
 40
4.0
 41
340.0
 71
5
  1
线路间隔断面 A-A
  7
HZTXT
  0
MTEXT
  5
5A
330
17
100
AcDbEntity
  8
C-DIM
100
AcDbMText
 10
55.0
 20
158.0
 30
0.0
 40
2.4
 41
45.0
 71
1
  1
±0.000
  7
HZTXT
  0
LWPOLYLINE
  5
5B
330
17
100
AcDbEntity
  8
C-FOUNDATION
100
AcDbPolyline
 90
4
 70
1
 10
63.0
 20
153.5
 10
77.0
 20
153.5
 10
77.0
 20
157.5
 10
63.0
 20
157.5
  0
LINE
  5
5C
330
17
100
AcDbEntity
  8
C-EQUIPMENT
100
AcDbLine
 10
70.0
 20
157.5
 30
0.0
 11
70.0
 21
245.0
 31
0.0
  0
LINE
  5
5D
330
17
100
AcDbEntity
  8
C-EQUIPMENT
100
AcDbLine
 10
67.2
 20
168.4375
 30
0.0
 11
72.8
 21
168.4375
 31
0.0
  0
LINE
  5
5E
330
17
100
AcDbEntity
  8
C-EQUIPMENT
100
AcDbLine
 10
67.2
 20
179.375
 30
0.0
 11
72.8
 21
179.375
 31
0.0
  0
LINE
  5
5F
330
17
100
AcDbEntity
  8
C-EQUIPMENT
100
AcDbLine
 10
67.2
 20
190.3125
 30
0.0
 11
72.8
 21
190.3125
 31
0.0
  0
LINE
  5
60
330
17
100
AcDbEntity
  8
C-EQUIPMENT
100
AcDbLine
 10
67.2
 20
201.25
 30
0.0
 11
72.8
 21
201.25
 31
0.0
  0
LINE
  5
61
330
17
100
AcDbEntity
  8
C-EQUIPMENT
100
AcDbLine
 10
67.2
 20
212.1875
 30
0.0
 11
72.8
 21
212.1875
 31
0.0
  0
LINE
  5
62
330
17
100
AcDbEntity
  8
C-EQUIPMENT
100
AcDbLine
 10
67.2
 20
223.125
 30
0.0
 11
72.8
 21
223.125
 31
0.0
  0
LINE
  5
63
330
17
100
AcDbEntity
  8
C-EQUIPMENT
100
AcDbLine
 10
67.2
 20
234.0625
 30
0.0
 11
72.8
 21
234.0625
 31
0.0
  0
CIRCLE
  5
64
330
17
100
AcDbEntity
  8
C-BUS
100
AcDbCircle
 10
70.0
 20
245.0
 30
0.0
 40
1.7999999999999998
  0
MTEXT
  5
65
330
17
100
AcDbEntity
  8
C-TEXT
100
AcDbMText
 10
70.0
 20
162.5
 30
0.0
 40
2.1
 41
38.0
 71
2
  1
管形母线
  7
HZTXT
  0
LWPOLYLINE
  5
66
330
17
100
AcDbEntity
  8
C-FOUNDATION
100
AcDbPolyline
 90
4
 70
1
 10
103.0
 20
153.5
 10
117.0
 20
153.5
 10
117.0
 20
157.5
 10
103.0
 20
157.5
  0
LINE
  5
67
330
17
100
AcDbEntity
  8
C-EQUIPMENT
100
AcDbLine
 10
102.0
 20
157.5
 30
0.0
 11
102.0
 21
211.0
 31
0.0
  0
LINE
  5
68
330
17
100
AcDbEntity
  8
C-EQUIPMENT
100
AcDbLine
 10
99.2
 20
164.1875
 30
0.0
 11
104.8
 21
164.1875
 31
0.0
  0
LINE
  5
69
330
17
100
AcDbEntity
  8
C-EQUIPMENT
100
AcDbLine
 10
99.2
 20
170.875
 30
0.0
 11
104.8
 21
170.875
 31
0.0
  0
LINE
  5
6A
330
17
100
AcDbEntity
  8
C-EQUIPMENT
100
AcDbLine
 10
99.2
 20
177.5625
 30
0.0
 11
104.8
 21
177.5625
 31
0.0
  0
LINE
  5
6B
330
17
100
AcDbEntity
  8
C-EQUIPMENT
100
AcDbLine
 10
99.2
 20
184.25
 30
0.0
 11
104.8
 21
184.25
 31
0.0
  0
LINE
  5
6C
330
17
100
AcDbEntity
  8
C-EQUIPMENT
100
AcDbLine
 10
99.2
 20
190.9375
 30
0.0
 11
104.8
 21
190.9375
 31
0.0
  0
LINE
  5
6D
330
17
100
AcDbEntity
  8
C-EQUIPMENT
100
AcDbLine
 10
99.2
 20
197.625
 30
0.0
 11
104.8
 21
197.625
 31
0.0
  0
LINE
  5
6E
330
17
100
AcDbEntity
  8
C-EQUIPMENT
100
AcDbLine
 10
99.2
 20
204.3125
 30
0.0
 11
104.8
 21
204.3125
 31
0.0
  0
LINE
  5
6F
330
17
100
AcDbEntity
  8
C-EQUIPMENT
100
AcDbLine
 10
118.0
 20
157.5
 30
0.0
 11
118.0
 21
211.0
 31
0.0
  0
LINE
  5
70
330
17
100
AcDbEntity
  8
C-EQUIPMENT
100
AcDbLine
 10
115.2
 20
164.1875
 30
0.0
 11
120.8
 21
164.1875
 31
0.0
  0
LINE
  5
71
330
17
100
AcDbEntity
  8
C-EQUIPMENT
100
AcDbLine
 10
115.2
 20
170.875
 30
0.0
 11
120.8
 21
170.875
 31
0.0
  0
LINE
  5
72
330
17
100
AcDbEntity
  8
C-EQUIPMENT
100
AcDbLine
 10
115.2
 20
177.5625
 30
0.0
 11
120.8
 21
177.5625
 31
0.0
  0
LINE
  5
73
330
17
100
AcDbEntity
  8
C-EQUIPMENT
100
AcDbLine
 10
115.2
 20
184.25
 30
0.0
 11
120.8
 21
184.25
 31
0.0
  0
LINE
  5
74
330
17
100
AcDbEntity
  8
C-EQUIPMENT
100
AcDbLine
 10
115.2
 20
190.9375
 30
0.0
 11
120.8
 21
190.9375
 31
0.0
  0
LINE
  5
75
330
17
100
AcDbEntity
  8
C-EQUIPMENT
100
AcDbLine
 10
115.2
 20
197.625
 30
0.0
 11
120.8
 21
197.625
 31
0.0
  0
LINE
  5
76
330
17
100
AcDbEntity
  8
C-EQUIPMENT
100
AcDbLine
 10
115.2
 20
204.3125
 30
0.0
 11
120.8
 21
204.3125
 31
0.0
  0
LINE
  5
77
330
17
100
AcDbEntity
  8
C-EQUIPMENT
100
AcDbLine
 10
102.0
 20
211.0
 30
0.0
 11
118.0
 21
211.0
 31
0.0
  0
MTEXT
  5
78
330
17
100
AcDbEntity
  8
C-TEXT
100
AcDbMText
 10
110.0
 20
162.5
 30
0.0
 40
2.1
 41
38.0
 71
2
  1
母线侧隔离开关
  7
HZTXT
  0
LWPOLYLINE
  5
79
330
17
100
AcDbEntity
  8
C-FOUNDATION
100
AcDbPolyline
 90
4
 70
1
 10
143.0
 20
153.5
 10
157.0
 20
153.5
 10
157.0
 20
157.5
 10
143.0
 20
157.5
  0
LINE
  5
7A
330
17
100
AcDbEntity
  8
C-EQUIPMENT
100
AcDbLine
 10
143.5
 20
157.5
 30
0.0
 11
143.5
 21
210.0
 31
0.0
  0
LINE
  5
7B
330
17
100
AcDbEntity
  8
C-EQUIPMENT
100
AcDbLine
 10
140.7
 20
164.0625
 30
0.0
 11
146.3
 21
164.0625
 31
0.0
  0
LINE
  5
7C
330
17
100
AcDbEntity
  8
C-EQUIPMENT
100
AcDbLine
 10
140.7
 20
170.625
 30
0.0
 11
146.3
 21
170.625
 31
0.0
  0
LINE
  5
7D
330
17
100
AcDbEntity
  8
C-EQUIPMENT
100
AcDbLine
 10
140.7
 20
177.1875
 30
0.0
 11
146.3
 21
177.1875
 31
0.0
  0
LINE
  5
7E
330
17
100
AcDbEntity
  8
C-EQUIPMENT
100
AcDbLine
 10
140.7
 20
183.75
 30
0.0
 11
146.3
 21
183.75
 31
0.0
  0
LINE
  5
7F
330
17
100
AcDbEntity
  8
C-EQUIPMENT
100
AcDbLine
 10
140.7
 20
190.3125
 30
0.0
 11
146.3
 21
190.3125
 31
0.0
  0
LINE
  5
80
330
17
100
AcDbEntity
  8
C-EQUIPMENT
100
AcDbLine
 10
140.7
 20
196.875
 30
0.0
 11
146.3
 21
196.875
 31
0.0
  0
LINE
  5
81
330
17
100
AcDbEntity
  8
C-EQUIPMENT
100
AcDbLine
 10
140.7
 20
203.4375
 30
0.0
 11
146.3
 21
203.4375
 31
0.0
  0
LINE
  5
82
330
17
100
AcDbEntity
  8
C-EQUIPMENT
100
AcDbLine
 10
156.5
 20
157.5
 30
0.0
 11
156.5
 21
210.0
 31
0.0
  0
LINE
  5
83
330
17
100
AcDbEntity
  8
C-EQUIPMENT
100
AcDbLine
 10
153.7
 20
164.0625
 30
0.0
 11
159.3
 21
164.0625
 31
0.0
  0
LINE
  5
84
330
17
100
AcDbEntity
  8
C-EQUIPMENT
100
AcDbLine
 10
153.7
 20
170.625
 30
0.0
 11
159.3
 21
170.625
 31
0.0
  0
LINE
  5
85
330
17
100
AcDbEntity
  8
C-EQUIPMENT
100
AcDbLine
 10
153.7
 20
177.1875
 30
0.0
 11
159.3
 21
177.1875
 31
0.0
  0
LINE
  5
86
330
17
100
AcDbEntity
  8
C-EQUIPMENT
100
AcDbLine
 10
153.7
 20
183.75
 30
0.0
 11
159.3
 21
183.75
 31
0.0
  0
LINE
  5
87
330
17
100
AcDbEntity
  8
C-EQUIPMENT
100
AcDbLine
 10
153.7
 20
190.3125
 30
0.0
 11
159.3
 21
190.3125
 31
0.0
  0
LINE
  5
88
330
17
100
AcDbEntity
  8
C-EQUIPMENT
100
AcDbLine
 10
153.7
 20
196.875
 30
0.0
 11
159.3
 21
196.875
 31
0.0
  0
LINE
  5
89
330
17
100
AcDbEntity
  8
C-EQUIPMENT
100
AcDbLine
 10
153.7
 20
203.4375
 30
0.0
 11
159.3
 21
203.4375
 31
0.0
  0
LWPOLYLINE
  5
8A
330
17
100
AcDbEntity
  8
C-EQUIPMENT
100
AcDbPolyline
 90
4
 70
1
 10
141.0
 20
169.0
 10
159.0
 20
169.0
 10
159.0
 20
185.0
 10
141.0
 20
185.0
  0
LINE
  5
8B
330
17
100
AcDbEntity
  8
C-EQUIPMENT
100
AcDbLine
 10
143.5
 20
210.0
 30
0.0
 11
156.5
 21
210.0
 31
0.0
  0
MTEXT
  5
8C
330
17
100
AcDbEntity
  8
C-TEXT
100
AcDbMText
 10
150.0
 20
162.5
 30
0.0
 40
2.1
 41
38.0
 71
2
  1
SF6断路器
  7
HZTXT
  0
LWPOLYLINE
  5
8D
330
17
100
AcDbEntity
  8
C-FOUNDATION
100
AcDbPolyline
 90
4
 70
1
 10
183.0
 20
153.5
 10
197.0
 20
153.5
 10
197.0
 20
157.5
 10
183.0
 20
157.5
  0
LINE
  5
8E
330
17
100
AcDbEntity
  8
C-EQUIPMENT
100
AcDbLine
 10
190.0
 20
157.5
 30
0.0
 11
190.0
 21
205.0
 31
0.0
  0
LINE
  5
8F
330
17
100
AcDbEntity
  8
C-EQUIPMENT
100
AcDbLine
 10
187.2
 20
163.4375
 30
0.0
 11
192.8
 21
163.4375
 31
0.0
  0
LINE
  5
90
330
17
100
AcDbEntity
  8
C-EQUIPMENT
100
AcDbLine
 10
187.2
 20
169.375
 30
0.0
 11
192.8
 21
169.375
 31
0.0
  0
LINE
  5
91
330
17
100
AcDbEntity
  8
C-EQUIPMENT
100
AcDbLine
 10
187.2
 20
175.3125
 30
0.0
 11
192.8
 21
175.3125
 31
0.0
  0
LINE
  5
92
330
17
100
AcDbEntity
  8
C-EQUIPMENT
100
AcDbLine
 10
187.2
 20
181.25
 30
0.0
 11
192.8
 21
181.25
 31
0.0
  0
LINE
  5
93
330
17
100
AcDbEntity
  8
C-EQUIPMENT
100
AcDbLine
 10
187.2
 20
187.1875
 30
0.0
 11
192.8
 21
187.1875
 31
0.0
  0
LINE
  5
94
330
17
100
AcDbEntity
  8
C-EQUIPMENT
100
AcDbLine
 10
187.2
 20
193.125
 30
0.0
 11
192.8
 21
193.125
 31
0.0
  0
LINE
  5
95
330
17
100
AcDbEntity
  8
C-EQUIPMENT
100
AcDbLine
 10
187.2
 20
199.0625
 30
0.0
 11
192.8
 21
199.0625
 31
0.0
  0
LWPOLYLINE
  5
96
330
17
100
AcDbEntity
  8
C-EQUIPMENT
100
AcDbPolyline
 90
4
 70
1
 10
182.5
 20
165.0
 10
197.5
 20
165.0
 10
197.5
 20
180.0
 10
182.5
 20
180.0
  0
MTEXT
  5
97
330
17
100
AcDbEntity
  8
C-TEXT
100
AcDbMText
 10
190.0
 20
162.5
 30
0.0
 40
2.1
 41
38.0
 71
2
  1
电流互感器
  7
HZTXT
  0
LWPOLYLINE
  5
98
330
17
100
AcDbEntity
  8
C-FOUNDATION
100
AcDbPolyline
 90
4
 70
1
 10
223.0
 20
153.5
 10
237.0
 20
153.5
 10
237.0
 20
157.5
 10
223.0
 20
157.5
  0
LINE
  5
99
330
17
100
AcDbEntity
  8
C-EQUIPMENT
100
AcDbLine
 10
222.0
 20
157.5
 30
0.0
 11
222.0
 21
211.0
 31
0.0
  0
LINE
  5
9A
330
17
100
AcDbEntity
  8
C-EQUIPMENT
100
AcDbLine
 10
219.2
 20
164.1875
 30
0.0
 11
224.8
 21
164.1875
 31
0.0
  0
LINE
  5
9B
330
17
100
AcDbEntity
  8
C-EQUIPMENT
100
AcDbLine
 10
219.2
 20
170.875
 30
0.0
 11
224.8
 21
170.875
 31
0.0
  0
LINE
  5
9C
330
17
100
AcDbEntity
  8
C-EQUIPMENT
100
AcDbLine
 10
219.2
 20
177.5625
 30
0.0
 11
224.8
 21
177.5625
 31
0.0
  0
LINE
  5
9D
330
17
100
AcDbEntity
  8
C-EQUIPMENT
100
AcDbLine
 10
219.2
 20
184.25
 30
0.0
 11
224.8
 21
184.25
 31
0.0
  0
LINE
  5
9E
330
17
100
AcDbEntity
  8
C-EQUIPMENT
100
AcDbLine
 10
219.2
 20
190.9375
 30
0.0
 11
224.8
 21
190.9375
 31
0.0
  0
LINE
  5
9F
330
17
100
AcDbEntity
  8
C-EQUIPMENT
100
AcDbLine
 10
219.2
 20
197.625
 30
0.0
 11
224.8
 21
197.625
 31
0.0
  0
LINE
  5
A0
330
17
100
AcDbEntity
  8
C-EQUIPMENT
100
AcDbLine
 10
219.2
 20
204.3125
 30
0.0
 11
224.8
 21
204.3125
 31
0.0
  0
LINE
  5
A1
330
17
100
AcDbEntity
  8
C-EQUIPMENT
100
AcDbLine
 10
238.0
 20
157.5
 30
0.0
 11
238.0
 21
211.0
 31
0.0
  0
LINE
  5
A2
330
17
100
AcDbEntity
  8
C-EQUIPMENT
100
AcDbLine
 10
235.2
 20
164.1875
 30
0.0
 11
240.8
 21
164.1875
 31
0.0
  0
LINE
  5
A3
330
17
100
AcDbEntity
  8
C-EQUIPMENT
100
AcDbLine
 10
235.2
 20
170.875
 30
0.0
 11
240.8
 21
170.875
 31
0.0
  0
LINE
  5
A4
330
17
100
AcDbEntity
  8
C-EQUIPMENT
100
AcDbLine
 10
235.2
 20
177.5625
 30
0.0
 11
240.8
 21
177.5625
 31
0.0
  0
LINE
  5
A5
330
17
100
AcDbEntity
  8
C-EQUIPMENT
100
AcDbLine
 10
235.2
 20
184.25
 30
0.0
 11
240.8
 21
184.25
 31
0.0
  0
LINE
  5
A6
330
17
100
AcDbEntity
  8
C-EQUIPMENT
100
AcDbLine
 10
235.2
 20
190.9375
 30
0.0
 11
240.8
 21
190.9375
 31
0.0
  0
LINE
  5
A7
330
17
100
AcDbEntity
  8
C-EQUIPMENT
100
AcDbLine
 10
235.2
 20
197.625
 30
0.0
 11
240.8
 21
197.625
 31
0.0
  0
LINE
  5
A8
330
17
100
AcDbEntity
  8
C-EQUIPMENT
100
AcDbLine
 10
235.2
 20
204.3125
 30
0.0
 11
240.8
 21
204.3125
 31
0.0
  0
LINE
  5
A9
330
17
100
AcDbEntity
  8
C-EQUIPMENT
100
AcDbLine
 10
222.0
 20
211.0
 30
0.0
 11
238.0
 21
211.0
 31
0.0
  0
CIRCLE
  5
AA
330
17
100
AcDbEntity
  8
C-EQUIPMENT
100
AcDbCircle
 10
238.0
 20
211.0
 30
0.0
 40
1.0
  0
CIRCLE
  5
AB
330
17
100
AcDbEntity
  8
C-EQUIPMENT
100
AcDbCircle
 10
250.0
 20
167.5
 30
0.0
 40
1.0
  0
LINE
  5
AC
330
17
100
AcDbEntity
  8
C-EQUIPMENT
100
AcDbLine
 10
250.0
 20
167.5
 30
0.0
 11
242.0
 21
203.5
 31
0.0
  0
LINE
  5
AD
330
17
100
AcDbEntity
  8
C-EQUIPMENT
100
AcDbLine
 10
250.0
 20
163.0
 30
0.0
 11
250.0
 21
158.5
 31
0.0
  0
LINE
  5
AE
330
17
100
AcDbEntity
  8
C-EQUIPMENT
100
AcDbLine
 10
245.5
 20
158.5
 30
0.0
 11
254.5
 21
158.5
 31
0.0
  0
LINE
  5
AF
330
17
100
AcDbEntity
  8
C-EQUIPMENT
100
AcDbLine
 10
247.0
 20
156.9
 30
0.0
 11
253.0
 21
156.9
 31
0.0
  0
LINE
  5
B0
330
17
100
AcDbEntity
  8
C-EQUIPMENT
100
AcDbLine
 10
248.4
 20
155.3
 30
0.0
 11
251.6
 21
155.3
 31
0.0
  0
LINE
  5
B1
330
17
100
AcDbEntity
  8
C-EQUIPMENT
100
AcDbLine
 10
250.0
 20
167.5
 30
0.0
 11
250.0
 21
163.0
 31
0.0
  0
MTEXT
  5
B2
330
17
100
AcDbEntity
  8
C-TEXT
100
AcDbMText
 10
255.0
 20
175.0
 30
0.0
 40
2.0
 41
30.0
 71
4
  1
ES(NO)
  7
HZTXT
  0
MTEXT
  5
B3
330
17
100
AcDbEntity
  8
C-TEXT
100
AcDbMText
 10
230.0
 20
162.5
 30
0.0
 40
2.1
 41
38.0
 71
2
  1
线路侧隔离开关+常开ES
  7
HZTXT
  0
LWPOLYLINE
  5
B4
330
17
100
AcDbEntity
  8
C-FOUNDATION
100
AcDbPolyline
 90
4
 70
1
 10
263.0
 20
153.5
 10
277.0
 20
153.5
 10
277.0
 20
157.5
 10
263.0
 20
157.5
  0
LINE
  5
B5
330
17
100
AcDbEntity
  8
C-EQUIPMENT
100
AcDbLine
 10
270.0
 20
157.5
 30
0.0
 11
270.0
 21
207.0
 31
0.0
  0
LINE
  5
B6
330
17
100
AcDbEntity
  8
C-EQUIPMENT
100
AcDbLine
 10
267.2
 20
163.6875
 30
0.0
 11
272.8
 21
163.6875
 31
0.0
  0
LINE
  5
B7
330
17
100
AcDbEntity
  8
C-EQUIPMENT
100
AcDbLine
 10
267.2
 20
169.875
 30
0.0
 11
272.8
 21
169.875
 31
0.0
  0
LINE
  5
B8
330
17
100
AcDbEntity
  8
C-EQUIPMENT
100
AcDbLine
 10
267.2
 20
176.0625
 30
0.0
 11
272.8
 21
176.0625
 31
0.0
  0
LINE
  5
B9
330
17
100
AcDbEntity
  8
C-EQUIPMENT
100
AcDbLine
 10
267.2
 20
182.25
 30
0.0
 11
272.8
 21
182.25
 31
0.0
  0
LINE
  5
BA
330
17
100
AcDbEntity
  8
C-EQUIPMENT
100
AcDbLine
 10
267.2
 20
188.4375
 30
0.0
 11
272.8
 21
188.4375
 31
0.0
  0
LINE
  5
BB
330
17
100
AcDbEntity
  8
C-EQUIPMENT
100
AcDbLine
 10
267.2
 20
194.625
 30
0.0
 11
272.8
 21
194.625
 31
0.0
  0
LINE
  5
BC
330
17
100
AcDbEntity
  8
C-EQUIPMENT
100
AcDbLine
 10
267.2
 20
200.8125
 30
0.0
 11
272.8
 21
200.8125
 31
0.0
  0
LWPOLYLINE
  5
BD
330
17
100
AcDbEntity
  8
C-EQUIPMENT
100
AcDbPolyline
 90
4
 70
1
 10
262.5
 20
165.0
 10
277.5
 20
165.0
 10
277.5
 20
180.0
 10
262.5
 20
180.0
  0
CIRCLE
  5
BE
330
17
100
AcDbEntity
  8
C-EQUIPMENT
100
AcDbCircle
 10
270.0
 20
185.0
 30
0.0
 40
5.5
  0
MTEXT
  5
BF
330
17
100
AcDbEntity
  8
C-TEXT
100
AcDbMText
 10
270.0
 20
162.5
 30
0.0
 40
2.1
 41
38.0
 71
2
  1
CVT
  7
HZTXT
  0
LWPOLYLINE
  5
C0
330
17
100
AcDbEntity
  8
C-FOUNDATION
100
AcDbPolyline
 90
4
 70
1
 10
293.0
 20
153.5
 10
307.0
 20
153.5
 10
307.0
 20
157.5
 10
293.0
 20
157.5
  0
LINE
  5
C1
330
17
100
AcDbEntity
  8
C-EQUIPMENT
100
AcDbLine
 10
300.0
 20
157.5
 30
0.0
 11
300.0
 21
205.0
 31
0.0
  0
LINE
  5
C2
330
17
100
AcDbEntity
  8
C-EQUIPMENT
100
AcDbLine
 10
297.2
 20
163.4375
 30
0.0
 11
302.8
 21
163.4375
 31
0.0
  0
LINE
  5
C3
330
17
100
AcDbEntity
  8
C-EQUIPMENT
100
AcDbLine
 10
297.2
 20
169.375
 30
0.0
 11
302.8
 21
169.375
 31
0.0
  0
LINE
  5
C4
330
17
100
AcDbEntity
  8
C-EQUIPMENT
100
AcDbLine
 10
297.2
 20
175.3125
 30
0.0
 11
302.8
 21
175.3125
 31
0.0
  0
LINE
  5
C5
330
17
100
AcDbEntity
  8
C-EQUIPMENT
100
AcDbLine
 10
297.2
 20
181.25
 30
0.0
 11
302.8
 21
181.25
 31
0.0
  0
LINE
  5
C6
330
17
100
AcDbEntity
  8
C-EQUIPMENT
100
AcDbLine
 10
297.2
 20
187.1875
 30
0.0
 11
302.8
 21
187.1875
 31
0.0
  0
LINE
  5
C7
330
17
100
AcDbEntity
  8
C-EQUIPMENT
100
AcDbLine
 10
297.2
 20
193.125
 30
0.0
 11
302.8
 21
193.125
 31
0.0
  0
LINE
  5
C8
330
17
100
AcDbEntity
  8
C-EQUIPMENT
100
AcDbLine
 10
297.2
 20
199.0625
 30
0.0
 11
302.8
 21
199.0625
 31
0.0
  0
LWPOLYLINE
  5
C9
330
17
100
AcDbEntity
  8
C-EQUIPMENT
100
AcDbPolyline
 90
4
 70
1
 10
293.0
 20
160.0
 10
307.0
 20
160.0
 10
303.5
 20
175.0
 10
296.5
 20
175.0
  0
MTEXT
  5
CA
330
17
100
AcDbEntity
  8
C-TEXT
100
AcDbMText
 10
300.0
 20
162.5
 30
0.0
 40
2.1
 41
38.0
 71
2
  1
避雷器
  7
HZTXT
  0
LWPOLYLINE
  5
CB
330
17
100
AcDbEntity
  8
C-FOUNDATION
100
AcDbPolyline
 90
4
 70
1
 10
353.0
 20
153.5
 10
367.0
 20
153.5
 10
367.0
 20
157.5
 10
353.0
 20
157.5
  0
LINE
  5
CC
330
17
100
AcDbEntity
  8
C-STRUCTURE
100
AcDbLine
 10
344.0
 20
155.0
 30
0.0
 11
344.0
 21
310.0
 31
0.0
  0
LINE
  5
CD
330
17
100
AcDbEntity
  8
C-STRUCTURE
100
AcDbLine
 10
376.0
 20
155.0
 30
0.0
 11
376.0
 21
310.0
 31
0.0
  0
LINE
  5
CE
330
17
100
AcDbEntity
  8
C-STRUCTURE
100
AcDbLine
 10
338.0
 20
310.0
 30
0.0
 11
382.0
 21
310.0
 31
0.0
  0
LINE
  5
CF
330
17
100
AcDbEntity
  8
C-STRUCTURE
100
AcDbLine
 10
344.0
 20
155.0
 30
0.0
 11
376.0
 21
310.0
 31
0.0
  0
MTEXT
  5
D0
330
17
100
AcDbEntity
  8
C-TEXT
100
AcDbMText
 10
360.0
 20
162.5
 30
0.0
 40
2.1
 41
38.0
 71
2
  1
出线构架
  7
HZTXT
  0
SPLINE
  5
D1
330
17
100
AcDbEntity
  8
C-CONDUCTOR
100
AcDbSpline
 70
0
 71
3
 72
0
 73
0
 74
4
 11
70.0
 21
245.0
 31
0.0
 11
81.2
 21
245.0
 31
0.0
 11
90.8
 21
211.0
 31
0.0
 11
102.0
 21
211.0
 31
0.0
  0
SPLINE
  5
D2
330
17
100
AcDbEntity
  8
C-CONDUCTOR
100
AcDbSpline
 70
0
 71
3
 72
0
 73
0
 74
4
 11
118.0
 21
211.0
 31
0.0
 11
126.925
 21
211.0
 31
0.0
 11
134.575
 21
210.0
 31
0.0
 11
143.5
 21
210.0
 31
0.0
  0
SPLINE
  5
D3
330
17
100
AcDbEntity
  8
C-CONDUCTOR
100
AcDbSpline
 70
0
 71
3
 72
0
 73
0
 74
4
 11
156.5
 21
210.0
 31
0.0
 11
168.225
 21
210.0
 31
0.0
 11
178.275
 21
205.0
 31
0.0
 11
190.0
 21
205.0
 31
0.0
  0
SPLINE
  5
D4
330
17
100
AcDbEntity
  8
C-CONDUCTOR
100
AcDbSpline
 70
0
 71
3
 72
0
 73
0
 74
4
 11
190.0
 21
205.0
 31
0.0
 11
201.2
 21
205.0
 31
0.0
 11
210.8
 21
211.0
 31
0.0
 11
222.0
 21
211.0
 31
0.0
  0
SPLINE
  5
D5
330
17
100
AcDbEntity
  8
C-CONDUCTOR
100
AcDbSpline
 70
0
 71
3
 72
0
 73
0
 74
4
 11
238.0
 21
211.0
 31
0.0
 11
280.7
 21
211.0
 31
0.0
 11
317.3
 21
300.0
 31
0.0
 11
360.0
 21
300.0
 31
0.0
  0
LINE
  5
D6
330
17
100
AcDbEntity
  8
C-CONDUCTOR
100
AcDbLine
 10
238.0
 20
211.0
 30
0.0
 11
238.0
 21
219.0
 31
0.0
  0
CIRCLE
  5
D7
330
17
100
AcDbEntity
  8
C-CONDUCTOR
100
AcDbCircle
 10
238.0
 20
211.0
 30
0.0
 40
1.0
  0
LWPOLYLINE
  5
D8
330
17
100
AcDbEntity
  8
C-CONDUCTOR
100
AcDbPolyline
 90
3
 70
0
 10
238.0
 20
219.0
 10
270.0
 20
219.0
 10
270.0
 20
207.0
  0
CIRCLE
  5
D9
330
17
100
AcDbEntity
  8
C-CONDUCTOR
100
AcDbCircle
 10
270.0
 20
207.0
 30
0.0
 40
0.8
  0
LWPOLYLINE
  5
DA
330
17
100
AcDbEntity
  8
C-CONDUCTOR
100
AcDbPolyline
 90
3
 70
0
 10
238.0
 20
219.0
 10
300.0
 20
219.0
 10
300.0
 20
205.0
  0
CIRCLE
  5
DB
330
17
100
AcDbEntity
  8
C-CONDUCTOR
100
AcDbCircle
 10
300.0
 20
205.0
 30
0.0
 40
0.8
  0
LINE
  5
DC
330
17
100
AcDbEntity
  8
C-CONDUCTOR
100
AcDbLine
 10
360.0
 20
300.0
 30
0.0
 11
395.0
 21
318.0
 31
0.0
  0
LINE
  5
DD
330
17
100
AcDbEntity
  8
C-CONDUCTOR
100
AcDbLine
 10
395.0
 20
318.0
 30
0.0
 11
391.02715190409737
 21
318.46527197087585
 31
0.0
  0
LINE
  5
DE
330
17
100
AcDbEntity
  8
C-CONDUCTOR
100
AcDbLine
 10
395.0
 20
318.0
 30
0.0
 11
393.06759622265673
 21
314.4977413514548
 31
0.0
  0
LINE
  5
DF
330
17
100
AcDbEntity
  8
C-DIM
100
AcDbLine
 10
70.0
 20
155.0
 30
0.0
 11
70.0
 21
142.0
 31
0.0
  0
LINE
  5
E0
330
17
100
AcDbEntity
  8
C-DIM
100
AcDbLine
 10
110.0
 20
155.0
 30
0.0
 11
110.0
 21
142.0
 31
0.0
  0
LINE
  5
E1
330
17
100
AcDbEntity
  8
C-DIM
100
AcDbLine
 10
70.0
 20
142.0
 30
0.0
 11
110.0
 21
142.0
 31
0.0
  0
LINE
  5
E2
330
17
100
AcDbEntity
  8
C-DIM
100
AcDbLine
 10
68.5
 20
140.5
 30
0.0
 11
71.5
 21
143.5
 31
0.0
  0
LINE
  5
E3
330
17
100
AcDbEntity
  8
C-DIM
100
AcDbLine
 10
108.5
 20
140.5
 30
0.0
 11
111.5
 21
143.5
 31
0.0
  0
MTEXT
  5
E4
330
17
100
AcDbEntity
  8
C-DIM
100
AcDbMText
 10
90.0
 20
144.0
 30
0.0
 40
2.5
 41
40.0
 71
8
  1
4.0
  7
HZTXT
  0
LINE
  5
E5
330
17
100
AcDbEntity
  8
C-DIM
100
AcDbLine
 10
110.0
 20
155.0
 30
0.0
 11
110.0
 21
134.0
 31
0.0
  0
LINE
  5
E6
330
17
100
AcDbEntity
  8
C-DIM
100
AcDbLine
 10
150.0
 20
155.0
 30
0.0
 11
150.0
 21
134.0
 31
0.0
  0
LINE
  5
E7
330
17
100
AcDbEntity
  8
C-DIM
100
AcDbLine
 10
110.0
 20
134.0
 30
0.0
 11
150.0
 21
134.0
 31
0.0
  0
LINE
  5
E8
330
17
100
AcDbEntity
  8
C-DIM
100
AcDbLine
 10
108.5
 20
132.5
 30
0.0
 11
111.5
 21
135.5
 31
0.0
  0
LINE
  5
E9
330
17
100
AcDbEntity
  8
C-DIM
100
AcDbLine
 10
148.5
 20
132.5
 30
0.0
 11
151.5
 21
135.5
 31
0.0
  0
MTEXT
  5
EA
330
17
100
AcDbEntity
  8
C-DIM
100
AcDbMText
 10
130.0
 20
136.0
 30
0.0
 40
2.5
 41
40.0
 71
8
  1
4.0
  7
HZTXT
  0
LINE
  5
EB
330
17
100
AcDbEntity
  8
C-DIM
100
AcDbLine
 10
150.0
 20
155.0
 30
0.0
 11
150.0
 21
142.0
 31
0.0
  0
LINE
  5
EC
330
17
100
AcDbEntity
  8
C-DIM
100
AcDbLine
 10
190.0
 20
155.0
 30
0.0
 11
190.0
 21
142.0
 31
0.0
  0
LINE
  5
ED
330
17
100
AcDbEntity
  8
C-DIM
100
AcDbLine
 10
150.0
 20
142.0
 30
0.0
 11
190.0
 21
142.0
 31
0.0
  0
LINE
  5
EE
330
17
100
AcDbEntity
  8
C-DIM
100
AcDbLine
 10
148.5
 20
140.5
 30
0.0
 11
151.5
 21
143.5
 31
0.0
  0
LINE
  5
EF
330
17
100
AcDbEntity
  8
C-DIM
100
AcDbLine
 10
188.5
 20
140.5
 30
0.0
 11
191.5
 21
143.5
 31
0.0
  0
MTEXT
  5
F0
330
17
100
AcDbEntity
  8
C-DIM
100
AcDbMText
 10
170.0
 20
144.0
 30
0.0
 40
2.5
 41
40.0
 71
8
  1
4.0
  7
HZTXT
  0
LINE
  5
F1
330
17
100
AcDbEntity
  8
C-DIM
100
AcDbLine
 10
190.0
 20
155.0
 30
0.0
 11
190.0
 21
134.0
 31
0.0
  0
LINE
  5
F2
330
17
100
AcDbEntity
  8
C-DIM
100
AcDbLine
 10
230.0
 20
155.0
 30
0.0
 11
230.0
 21
134.0
 31
0.0
  0
LINE
  5
F3
330
17
100
AcDbEntity
  8
C-DIM
100
AcDbLine
 10
190.0
 20
134.0
 30
0.0
 11
230.0
 21
134.0
 31
0.0
  0
LINE
  5
F4
330
17
100
AcDbEntity
  8
C-DIM
100
AcDbLine
 10
188.5
 20
132.5
 30
0.0
 11
191.5
 21
135.5
 31
0.0
  0
LINE
  5
F5
330
17
100
AcDbEntity
  8
C-DIM
100
AcDbLine
 10
228.5
 20
132.5
 30
0.0
 11
231.5
 21
135.5
 31
0.0
  0
MTEXT
  5
F6
330
17
100
AcDbEntity
  8
C-DIM
100
AcDbMText
 10
210.0
 20
136.0
 30
0.0
 40
2.5
 41
40.0
 71
8
  1
4.0
  7
HZTXT
  0
LINE
  5
F7
330
17
100
AcDbEntity
  8
C-DIM
100
AcDbLine
 10
230.0
 20
155.0
 30
0.0
 11
230.0
 21
142.0
 31
0.0
  0
LINE
  5
F8
330
17
100
AcDbEntity
  8
C-DIM
100
AcDbLine
 10
270.0
 20
155.0
 30
0.0
 11
270.0
 21
142.0
 31
0.0
  0
LINE
  5
F9
330
17
100
AcDbEntity
  8
C-DIM
100
AcDbLine
 10
230.0
 20
142.0
 30
0.0
 11
270.0
 21
142.0
 31
0.0
  0
LINE
  5
FA
330
17
100
AcDbEntity
  8
C-DIM
100
AcDbLine
 10
228.5
 20
140.5
 30
0.0
 11
231.5
 21
143.5
 31
0.0
  0
LINE
  5
FB
330
17
100
AcDbEntity
  8
C-DIM
100
AcDbLine
 10
268.5
 20
140.5
 30
0.0
 11
271.5
 21
143.5
 31
0.0
  0
MTEXT
  5
FC
330
17
100
AcDbEntity
  8
C-DIM
100
AcDbMText
 10
250.0
 20
144.0
 30
0.0
 40
2.5
 41
40.0
 71
8
  1
4.0
  7
HZTXT
  0
LINE
  5
FD
330
17
100
AcDbEntity
  8
C-DIM
100
AcDbLine
 10
270.0
 20
155.0
 30
0.0
 11
270.0
 21
134.0
 31
0.0
  0
LINE
  5
FE
330
17
100
AcDbEntity
  8
C-DIM
100
AcDbLine
 10
300.0
 20
155.0
 30
0.0
 11
300.0
 21
134.0
 31
0.0
  0
LINE
  5
FF
330
17
100
AcDbEntity
  8
C-DIM
100
AcDbLine
 10
270.0
 20
134.0
 30
0.0
 11
300.0
 21
134.0
 31
0.0
  0
LINE
  5
100
330
17
100
AcDbEntity
  8
C-DIM
100
AcDbLine
 10
268.5
 20
132.5
 30
0.0
 11
271.5
 21
135.5
 31
0.0
  0
LINE
  5
101
330
17
100
AcDbEntity
  8
C-DIM
100
AcDbLine
 10
298.5
 20
132.5
 30
0.0
 11
301.5
 21
135.5
 31
0.0
  0
MTEXT
  5
102
330
17
100
AcDbEntity
  8
C-DIM
100
AcDbMText
 10
285.0
 20
136.0
 30
0.0
 40
2.5
 41
30.0
 71
8
  1
3.0
  7
HZTXT
  0
LINE
  5
103
330
17
100
AcDbEntity
  8
C-DIM
100
AcDbLine
 10
300.0
 20
155.0
 30
0.0
 11
300.0
 21
142.0
 31
0.0
  0
LINE
  5
104
330
17
100
AcDbEntity
  8
C-DIM
100
AcDbLine
 10
360.0
 20
155.0
 30
0.0
 11
360.0
 21
142.0
 31
0.0
  0
LINE
  5
105
330
17
100
AcDbEntity
  8
C-DIM
100
AcDbLine
 10
300.0
 20
142.0
 30
0.0
 11
360.0
 21
142.0
 31
0.0
  0
LINE
  5
106
330
17
100
AcDbEntity
  8
C-DIM
100
AcDbLine
 10
298.5
 20
140.5
 30
0.0
 11
301.5
 21
143.5
 31
0.0
  0
LINE
  5
107
330
17
100
AcDbEntity
  8
C-DIM
100
AcDbLine
 10
358.5
 20
140.5
 30
0.0
 11
361.5
 21
143.5
 31
0.0
  0
MTEXT
  5
108
330
17
100
AcDbEntity
  8
C-DIM
100
AcDbMText
 10
330.0
 20
144.0
 30
0.0
 40
2.5
 41
60.0
 71
8
  1
6.0
  7
HZTXT
  0
LINE
  5
109
330
17
100
AcDbEntity
  8
C-DIM
100
AcDbLine
 10
50.0
 20
155.0
 30
0.0
 11
50.0
 21
131.0
 31
0.0
  0
LINE
  5
10A
330
17
100
AcDbEntity
  8
C-DIM
100
AcDbLine
 10
390.0
 20
155.0
 30
0.0
 11
390.0
 21
131.0
 31
0.0
  0
LINE
  5
10B
330
17
100
AcDbEntity
  8
C-DIM
100
AcDbLine
 10
50.0
 20
131.0
 30
0.0
 11
390.0
 21
131.0
 31
0.0
  0
LINE
  5
10C
330
17
100
AcDbEntity
  8
C-DIM
100
AcDbLine
 10
48.5
 20
129.5
 30
0.0
 11
51.5
 21
132.5
 31
0.0
  0
LINE
  5
10D
330
17
100
AcDbEntity
  8
C-DIM
100
AcDbLine
 10
388.5
 20
129.5
 30
0.0
 11
391.5
 21
132.5
 31
0.0
  0
MTEXT
  5
10E
330
17
100
AcDbEntity
  8
C-DIM
100
AcDbMText
 10
220.0
 20
133.0
 30
0.0
 40
2.5
 41
340.0
 71
8
  1
总长 34.0m
  7
HZTXT
  0
LINE
  5
10F
330
17
100
AcDbEntity
  8
C-DIM
100
AcDbLine
 10
70.0
 20
155.0
 30
0.0
 11
40.0
 21
155.0
 31
0.0
  0
LINE
  5
110
330
17
100
AcDbEntity
  8
C-DIM
100
AcDbLine
 10
70.0
 20
245.0
 30
0.0
 11
40.0
 21
245.0
 31
0.0
  0
LINE
  5
111
330
17
100
AcDbEntity
  8
C-DIM
100
AcDbLine
 10
40.0
 20
155.0
 30
0.0
 11
40.0
 21
245.0
 31
0.0
  0
LINE
  5
112
330
17
100
AcDbEntity
  8
C-DIM
100
AcDbLine
 10
38.5
 20
153.5
 30
0.0
 11
41.5
 21
156.5
 31
0.0
  0
LINE
  5
113
330
17
100
AcDbEntity
  8
C-DIM
100
AcDbLine
 10
38.5
 20
243.5
 30
0.0
 11
41.5
 21
246.5
 31
0.0
  0
MTEXT
  5
114
330
17
100
AcDbEntity
  8
C-DIM
100
AcDbMText
 10
38.0
 20
200.0
 30
0.0
 40
2.5
 41
90.0
 71
8
  1
母线 +9.0m
  7
HZTXT
 50
90.0
  0
LINE
  5
115
330
17
100
AcDbEntity
  8
C-DIM
100
AcDbLine
 10
370.0
 20
155.0
 30
0.0
 11
400.0
 21
155.0
 31
0.0
  0
LINE
  5
116
330
17
100
AcDbEntity
  8
C-DIM
100
AcDbLine
 10
370.0
 20
300.0
 30
0.0
 11
400.0
 21
300.0
 31
0.0
  0
LINE
  5
117
330
17
100
AcDbEntity
  8
C-DIM
100
AcDbLine
 10
400.0
 20
155.0
 30
0.0
 11
400.0
 21
300.0
 31
0.0
  0
LINE
  5
118
330
17
100
AcDbEntity
  8
C-DIM
100
AcDbLine
 10
398.5
 20
153.5
 30
0.0
 11
401.5
 21
156.5
 31
0.0
  0
LINE
  5
119
330
17
100
AcDbEntity
  8
C-DIM
100
AcDbLine
 10
398.5
 20
298.5
 30
0.0
 11
401.5
 21
301.5
 31
0.0
  0
MTEXT
  5
11A
330
17
100
AcDbEntity
  8
C-DIM
100
AcDbMText
 10
398.0
 20
227.5
 30
0.0
 40
2.5
 41
145.0
 71
8
  1
最高 +14.5m
  7
HZTXT
 50
90.0
  0
LINE
  5
11B
330
17
100
AcDbEntity
  8
C-DIM
100
AcDbLine
 10
90.0
 20
155.0
 30
0.0
 11
80.0
 21
155.0
 31
0.0
  0
LINE
  5
11C
330
17
100
AcDbEntity
  8
C-DIM
100
AcDbLine
 10
90.0
 20
198.0
 30
0.0
 11
80.0
 21
198.0
 31
0.0
  0
LINE
  5
11D
330
17
100
AcDbEntity
  8
C-DIM
100
AcDbLine
 10
80.0
 20
155.0
 30
0.0
 11
80.0
 21
198.0
 31
0.0
  0
LINE
  5
11E
330
17
100
AcDbEntity
  8
C-DIM
100
AcDbLine
 10
78.5
 20
153.5
 30
0.0
 11
81.5
 21
156.5
 31
0.0
  0
LINE
  5
11F
330
17
100
AcDbEntity
  8
C-DIM
100
AcDbLine
 10
78.5
 20
196.5
 30
0.0
 11
81.5
 21
199.5
 31
0.0
  0
MTEXT
  5
120
330
17
100
AcDbEntity
  8
C-DIM
100
AcDbMText
 10
78.0
 20
176.5
 30
0.0
 40
2.5
 41
43.0
 71
8
  1
C≥4.30m
  7
HZTXT
 50
90.0
  0
CIRCLE
  5
121
330
17
100
AcDbEntity
  8
C-BUS
100
AcDbCircle
 10
100.0
 20
340.0
 30
0.0
 40
1.7999999999999998
  0
CIRCLE
  5
122
330
17
100
AcDbEntity
  8
C-BUS
100
AcDbCircle
 10
140.0
 20
340.0
 30
0.0
 40
1.7999999999999998
  0
CIRCLE
  5
123
330
17
100
AcDbEntity
  8
C-BUS
100
AcDbCircle
 10
180.0
 20
340.0
 30
0.0
 40
1.7999999999999998
  0
LINE
  5
124
330
17
100
AcDbEntity
  8
C-DIM
100
AcDbLine
 10
100.0
 20
340.0
 30
0.0
 11
100.0
 21
327.0
 31
0.0
  0
LINE
  5
125
330
17
100
AcDbEntity
  8
C-DIM
100
AcDbLine
 10
140.0
 20
340.0
 30
0.0
 11
140.0
 21
327.0
 31
0.0
  0
LINE
  5
126
330
17
100
AcDbEntity
  8
C-DIM
100
AcDbLine
 10
100.0
 20
327.0
 30
0.0
 11
140.0
 21
327.0
 31
0.0
  0
LINE
  5
127
330
17
100
AcDbEntity
  8
C-DIM
100
AcDbLine
 10
98.5
 20
325.5
 30
0.0
 11
101.5
 21
328.5
 31
0.0
  0
LINE
  5
128
330
17
100
AcDbEntity
  8
C-DIM
100
AcDbLine
 10
138.5
 20
325.5
 30
0.0
 11
141.5
 21
328.5
 31
0.0
  0
MTEXT
  5
129
330
17
100
AcDbEntity
  8
C-DIM
100
AcDbMText
 10
120.0
 20
329.0
 30
0.0
 40
2.5
 41
40.0
 71
8
  1
4.0m
  7
HZTXT
  0
LINE
  5
12A
330
17
100
AcDbEntity
  8
C-DIM
100
AcDbLine
 10
140.0
 20
340.0
 30
0.0
 11
140.0
 21
327.0
 31
0.0
  0
LINE
  5
12B
330
17
100
AcDbEntity
  8
C-DIM
100
AcDbLine
 10
180.0
 20
340.0
 30
0.0
 11
180.0
 21
327.0
 31
0.0
  0
LINE
  5
12C
330
17
100
AcDbEntity
  8
C-DIM
100
AcDbLine
 10
140.0
 20
327.0
 30
0.0
 11
180.0
 21
327.0
 31
0.0
  0
LINE
  5
12D
330
17
100
AcDbEntity
  8
C-DIM
100
AcDbLine
 10
138.5
 20
325.5
 30
0.0
 11
141.5
 21
328.5
 31
0.0
  0
LINE
  5
12E
330
17
100
AcDbEntity
  8
C-DIM
100
AcDbLine
 10
178.5
 20
325.5
 30
0.0
 11
181.5
 21
328.5
 31
0.0
  0
MTEXT
  5
12F
330
17
100
AcDbEntity
  8
C-DIM
100
AcDbMText
 10
160.0
 20
329.0
 30
0.0
 40
2.5
 41
40.0
 71
8
  1
4.0m
  7
HZTXT
  0
MTEXT
  5
130
330
17
100
AcDbEntity
  8
C-NOTE
100
AcDbMText
 10
140.0
 20
360.0
 30
0.0
 40
2.4
 41
120.0
 71
5
  1
三相母线横向间距示意
  7
HZTXT
  0
LINE
  5
131
330
17
100
AcDbEntity
  8
C-FOUNDATION
100
AcDbLine
 10
430.0
 20
155.0
 30
0.0
 11
770.0
 21
155.0
 31
0.0
  0
MTEXT
  5
132
330
17
100
AcDbEntity
  8
C-TITLE
100
AcDbMText
 10
600.0
 20
380.0
 30
0.0
 40
4.0
 41
340.0
 71
5
  1
主变间隔断面 B-B
  7
HZTXT
  0
MTEXT
  5
133
330
17
100
AcDbEntity
  8
C-DIM
100
AcDbMText
 10
435.0
 20
158.0
 30
0.0
 40
2.4
 41
45.0
 71
1
  1
±0.000
  7
HZTXT
  0
LWPOLYLINE
  5
134
330
17
100
AcDbEntity
  8
C-FOUNDATION
100
AcDbPolyline
 90
4
 70
1
 10
443.0
 20
153.5
 10
457.0
 20
153.5
 10
457.0
 20
157.5
 10
443.0
 20
157.5
  0
LINE
  5
135
330
17
100
AcDbEntity
  8
C-EQUIPMENT
100
AcDbLine
 10
450.0
 20
157.5
 30
0.0
 11
450.0
 21
245.0
 31
0.0
  0
LINE
  5
136
330
17
100
AcDbEntity
  8
C-EQUIPMENT
100
AcDbLine
 10
447.2
 20
168.4375
 30
0.0
 11
452.8
 21
168.4375
 31
0.0
  0
LINE
  5
137
330
17
100
AcDbEntity
  8
C-EQUIPMENT
100
AcDbLine
 10
447.2
 20
179.375
 30
0.0
 11
452.8
 21
179.375
 31
0.0
  0
LINE
  5
138
330
17
100
AcDbEntity
  8
C-EQUIPMENT
100
AcDbLine
 10
447.2
 20
190.3125
 30
0.0
 11
452.8
 21
190.3125
 31
0.0
  0
LINE
  5
139
330
17
100
AcDbEntity
  8
C-EQUIPMENT
100
AcDbLine
 10
447.2
 20
201.25
 30
0.0
 11
452.8
 21
201.25
 31
0.0
  0
LINE
  5
13A
330
17
100
AcDbEntity
  8
C-EQUIPMENT
100
AcDbLine
 10
447.2
 20
212.1875
 30
0.0
 11
452.8
 21
212.1875
 31
0.0
  0
LINE
  5
13B
330
17
100
AcDbEntity
  8
C-EQUIPMENT
100
AcDbLine
 10
447.2
 20
223.125
 30
0.0
 11
452.8
 21
223.125
 31
0.0
  0
LINE
  5
13C
330
17
100
AcDbEntity
  8
C-EQUIPMENT
100
AcDbLine
 10
447.2
 20
234.0625
 30
0.0
 11
452.8
 21
234.0625
 31
0.0
  0
CIRCLE
  5
13D
330
17
100
AcDbEntity
  8
C-BUS
100
AcDbCircle
 10
450.0
 20
245.0
 30
0.0
 40
1.7999999999999998
  0
MTEXT
  5
13E
330
17
100
AcDbEntity
  8
C-TEXT
100
AcDbMText
 10
450.0
 20
162.5
 30
0.0
 40
2.1
 41
38.0
 71
2
  1
管形母线
  7
HZTXT
  0
LWPOLYLINE
  5
13F
330
17
100
AcDbEntity
  8
C-FOUNDATION
100
AcDbPolyline
 90
4
 70
1
 10
483.0
 20
153.5
 10
497.0
 20
153.5
 10
497.0
 20
157.5
 10
483.0
 20
157.5
  0
LINE
  5
140
330
17
100
AcDbEntity
  8
C-EQUIPMENT
100
AcDbLine
 10
482.0
 20
157.5
 30
0.0
 11
482.0
 21
211.0
 31
0.0
  0
LINE
  5
141
330
17
100
AcDbEntity
  8
C-EQUIPMENT
100
AcDbLine
 10
479.2
 20
164.1875
 30
0.0
 11
484.8
 21
164.1875
 31
0.0
  0
LINE
  5
142
330
17
100
AcDbEntity
  8
C-EQUIPMENT
100
AcDbLine
 10
479.2
 20
170.875
 30
0.0
 11
484.8
 21
170.875
 31
0.0
  0
LINE
  5
143
330
17
100
AcDbEntity
  8
C-EQUIPMENT
100
AcDbLine
 10
479.2
 20
177.5625
 30
0.0
 11
484.8
 21
177.5625
 31
0.0
  0
LINE
  5
144
330
17
100
AcDbEntity
  8
C-EQUIPMENT
100
AcDbLine
 10
479.2
 20
184.25
 30
0.0
 11
484.8
 21
184.25
 31
0.0
  0
LINE
  5
145
330
17
100
AcDbEntity
  8
C-EQUIPMENT
100
AcDbLine
 10
479.2
 20
190.9375
 30
0.0
 11
484.8
 21
190.9375
 31
0.0
  0
LINE
  5
146
330
17
100
AcDbEntity
  8
C-EQUIPMENT
100
AcDbLine
 10
479.2
 20
197.625
 30
0.0
 11
484.8
 21
197.625
 31
0.0
  0
LINE
  5
147
330
17
100
AcDbEntity
  8
C-EQUIPMENT
100
AcDbLine
 10
479.2
 20
204.3125
 30
0.0
 11
484.8
 21
204.3125
 31
0.0
  0
LINE
  5
148
330
17
100
AcDbEntity
  8
C-EQUIPMENT
100
AcDbLine
 10
498.0
 20
157.5
 30
0.0
 11
498.0
 21
211.0
 31
0.0
  0
LINE
  5
149
330
17
100
AcDbEntity
  8
C-EQUIPMENT
100
AcDbLine
 10
495.2
 20
164.1875
 30
0.0
 11
500.8
 21
164.1875
 31
0.0
  0
LINE
  5
14A
330
17
100
AcDbEntity
  8
C-EQUIPMENT
100
AcDbLine
 10
495.2
 20
170.875
 30
0.0
 11
500.8
 21
170.875
 31
0.0
  0
LINE
  5
14B
330
17
100
AcDbEntity
  8
C-EQUIPMENT
100
AcDbLine
 10
495.2
 20
177.5625
 30
0.0
 11
500.8
 21
177.5625
 31
0.0
  0
LINE
  5
14C
330
17
100
AcDbEntity
  8
C-EQUIPMENT
100
AcDbLine
 10
495.2
 20
184.25
 30
0.0
 11
500.8
 21
184.25
 31
0.0
  0
LINE
  5
14D
330
17
100
AcDbEntity
  8
C-EQUIPMENT
100
AcDbLine
 10
495.2
 20
190.9375
 30
0.0
 11
500.8
 21
190.9375
 31
0.0
  0
LINE
  5
14E
330
17
100
AcDbEntity
  8
C-EQUIPMENT
100
AcDbLine
 10
495.2
 20
197.625
 30
0.0
 11
500.8
 21
197.625
 31
0.0
  0
LINE
  5
14F
330
17
100
AcDbEntity
  8
C-EQUIPMENT
100
AcDbLine
 10
495.2
 20
204.3125
 30
0.0
 11
500.8
 21
204.3125
 31
0.0
  0
LINE
  5
150
330
17
100
AcDbEntity
  8
C-EQUIPMENT
100
AcDbLine
 10
482.0
 20
211.0
 30
0.0
 11
498.0
 21
211.0
 31
0.0
  0
MTEXT
  5
151
330
17
100
AcDbEntity
  8
C-TEXT
100
AcDbMText
 10
490.0
 20
162.5
 30
0.0
 40
2.1
 41
38.0
 71
2
  1
母线侧隔离开关
  7
HZTXT
  0
LWPOLYLINE
  5
152
330
17
100
AcDbEntity
  8
C-FOUNDATION
100
AcDbPolyline
 90
4
 70
1
 10
523.0
 20
153.5
 10
537.0
 20
153.5
 10
537.0
 20
157.5
 10
523.0
 20
157.5
  0
LINE
  5
153
330
17
100
AcDbEntity
  8
C-EQUIPMENT
100
AcDbLine
 10
523.5
 20
157.5
 30
0.0
 11
523.5
 21
210.0
 31
0.0
  0
LINE
  5
154
330
17
100
AcDbEntity
  8
C-EQUIPMENT
100
AcDbLine
 10
520.7
 20
164.0625
 30
0.0
 11
526.3
 21
164.0625
 31
0.0
  0
LINE
  5
155
330
17
100
AcDbEntity
  8
C-EQUIPMENT
100
AcDbLine
 10
520.7
 20
170.625
 30
0.0
 11
526.3
 21
170.625
 31
0.0
  0
LINE
  5
156
330
17
100
AcDbEntity
  8
C-EQUIPMENT
100
AcDbLine
 10
520.7
 20
177.1875
 30
0.0
 11
526.3
 21
177.1875
 31
0.0
  0
LINE
  5
157
330
17
100
AcDbEntity
  8
C-EQUIPMENT
100
AcDbLine
 10
520.7
 20
183.75
 30
0.0
 11
526.3
 21
183.75
 31
0.0
  0
LINE
  5
158
330
17
100
AcDbEntity
  8
C-EQUIPMENT
100
AcDbLine
 10
520.7
 20
190.3125
 30
0.0
 11
526.3
 21
190.3125
 31
0.0
  0
LINE
  5
159
330
17
100
AcDbEntity
  8
C-EQUIPMENT
100
AcDbLine
 10
520.7
 20
196.875
 30
0.0
 11
526.3
 21
196.875
 31
0.0
  0
LINE
  5
15A
330
17
100
AcDbEntity
  8
C-EQUIPMENT
100
AcDbLine
 10
520.7
 20
203.4375
 30
0.0
 11
526.3
 21
203.4375
 31
0.0
  0
LINE
  5
15B
330
17
100
AcDbEntity
  8
C-EQUIPMENT
100
AcDbLine
 10
536.5
 20
157.5
 30
0.0
 11
536.5
 21
210.0
 31
0.0
  0
LINE
  5
15C
330
17
100
AcDbEntity
  8
C-EQUIPMENT
100
AcDbLine
 10
533.7
 20
164.0625
 30
0.0
 11
539.3
 21
164.0625
 31
0.0
  0
LINE
  5
15D
330
17
100
AcDbEntity
  8
C-EQUIPMENT
100
AcDbLine
 10
533.7
 20
170.625
 30
0.0
 11
539.3
 21
170.625
 31
0.0
  0
LINE
  5
15E
330
17
100
AcDbEntity
  8
C-EQUIPMENT
100
AcDbLine
 10
533.7
 20
177.1875
 30
0.0
 11
539.3
 21
177.1875
 31
0.0
  0
LINE
  5
15F
330
17
100
AcDbEntity
  8
C-EQUIPMENT
100
AcDbLine
 10
533.7
 20
183.75
 30
0.0
 11
539.3
 21
183.75
 31
0.0
  0
LINE
  5
160
330
17
100
AcDbEntity
  8
C-EQUIPMENT
100
AcDbLine
 10
533.7
 20
190.3125
 30
0.0
 11
539.3
 21
190.3125
 31
0.0
  0
LINE
  5
161
330
17
100
AcDbEntity
  8
C-EQUIPMENT
100
AcDbLine
 10
533.7
 20
196.875
 30
0.0
 11
539.3
 21
196.875
 31
0.0
  0
LINE
  5
162
330
17
100
AcDbEntity
  8
C-EQUIPMENT
100
AcDbLine
 10
533.7
 20
203.4375
 30
0.0
 11
539.3
 21
203.4375
 31
0.0
  0
LWPOLYLINE
  5
163
330
17
100
AcDbEntity
  8
C-EQUIPMENT
100
AcDbPolyline
 90
4
 70
1
 10
521.0
 20
169.0
 10
539.0
 20
169.0
 10
539.0
 20
185.0
 10
521.0
 20
185.0
  0
LINE
  5
164
330
17
100
AcDbEntity
  8
C-EQUIPMENT
100
AcDbLine
 10
523.5
 20
210.0
 30
0.0
 11
536.5
 21
210.0
 31
0.0
  0
MTEXT
  5
165
330
17
100
AcDbEntity
  8
C-TEXT
100
AcDbMText
 10
530.0
 20
162.5
 30
0.0
 40
2.1
 41
38.0
 71
2
  1
SF6断路器
  7
HZTXT
  0
LWPOLYLINE
  5
166
330
17
100
AcDbEntity
  8
C-FOUNDATION
100
AcDbPolyline
 90
4
 70
1
 10
563.0
 20
153.5
 10
577.0
 20
153.5
 10
577.0
 20
157.5
 10
563.0
 20
157.5
  0
LINE
  5
167
330
17
100
AcDbEntity
  8
C-EQUIPMENT
100
AcDbLine
 10
570.0
 20
157.5
 30
0.0
 11
570.0
 21
205.0
 31
0.0
  0
LINE
  5
168
330
17
100
AcDbEntity
  8
C-EQUIPMENT
100
AcDbLine
 10
567.2
 20
163.4375
 30
0.0
 11
572.8
 21
163.4375
 31
0.0
  0
LINE
  5
169
330
17
100
AcDbEntity
  8
C-EQUIPMENT
100
AcDbLine
 10
567.2
 20
169.375
 30
0.0
 11
572.8
 21
169.375
 31
0.0
  0
LINE
  5
16A
330
17
100
AcDbEntity
  8
C-EQUIPMENT
100
AcDbLine
 10
567.2
 20
175.3125
 30
0.0
 11
572.8
 21
175.3125
 31
0.0
  0
LINE
  5
16B
330
17
100
AcDbEntity
  8
C-EQUIPMENT
100
AcDbLine
 10
567.2
 20
181.25
 30
0.0
 11
572.8
 21
181.25
 31
0.0
  0
LINE
  5
16C
330
17
100
AcDbEntity
  8
C-EQUIPMENT
100
AcDbLine
 10
567.2
 20
187.1875
 30
0.0
 11
572.8
 21
187.1875
 31
0.0
  0
LINE
  5
16D
330
17
100
AcDbEntity
  8
C-EQUIPMENT
100
AcDbLine
 10
567.2
 20
193.125
 30
0.0
 11
572.8
 21
193.125
 31
0.0
  0
LINE
  5
16E
330
17
100
AcDbEntity
  8
C-EQUIPMENT
100
AcDbLine
 10
567.2
 20
199.0625
 30
0.0
 11
572.8
 21
199.0625
 31
0.0
  0
LWPOLYLINE
  5
16F
330
17
100
AcDbEntity
  8
C-EQUIPMENT
100
AcDbPolyline
 90
4
 70
1
 10
562.5
 20
165.0
 10
577.5
 20
165.0
 10
577.5
 20
180.0
 10
562.5
 20
180.0
  0
MTEXT
  5
170
330
17
100
AcDbEntity
  8
C-TEXT
100
AcDbMText
 10
570.0
 20
162.5
 30
0.0
 40
2.1
 41
38.0
 71
2
  1
电流互感器
  7
HZTXT
  0
LWPOLYLINE
  5
171
330
17
100
AcDbEntity
  8
C-FOUNDATION
100
AcDbPolyline
 90
4
 70
1
 10
603.0
 20
153.5
 10
617.0
 20
153.5
 10
617.0
 20
157.5
 10
603.0
 20
157.5
  0
LINE
  5
172
330
17
100
AcDbEntity
  8
C-EQUIPMENT
100
AcDbLine
 10
610.0
 20
157.5
 30
0.0
 11
610.0
 21
205.0
 31
0.0
  0
LINE
  5
173
330
17
100
AcDbEntity
  8
C-EQUIPMENT
100
AcDbLine
 10
607.2
 20
163.4375
 30
0.0
 11
612.8
 21
163.4375
 31
0.0
  0
LINE
  5
174
330
17
100
AcDbEntity
  8
C-EQUIPMENT
100
AcDbLine
 10
607.2
 20
169.375
 30
0.0
 11
612.8
 21
169.375
 31
0.0
  0
LINE
  5
175
330
17
100
AcDbEntity
  8
C-EQUIPMENT
100
AcDbLine
 10
607.2
 20
175.3125
 30
0.0
 11
612.8
 21
175.3125
 31
0.0
  0
LINE
  5
176
330
17
100
AcDbEntity
  8
C-EQUIPMENT
100
AcDbLine
 10
607.2
 20
181.25
 30
0.0
 11
612.8
 21
181.25
 31
0.0
  0
LINE
  5
177
330
17
100
AcDbEntity
  8
C-EQUIPMENT
100
AcDbLine
 10
607.2
 20
187.1875
 30
0.0
 11
612.8
 21
187.1875
 31
0.0
  0
LINE
  5
178
330
17
100
AcDbEntity
  8
C-EQUIPMENT
100
AcDbLine
 10
607.2
 20
193.125
 30
0.0
 11
612.8
 21
193.125
 31
0.0
  0
LINE
  5
179
330
17
100
AcDbEntity
  8
C-EQUIPMENT
100
AcDbLine
 10
607.2
 20
199.0625
 30
0.0
 11
612.8
 21
199.0625
 31
0.0
  0
LWPOLYLINE
  5
17A
330
17
100
AcDbEntity
  8
C-EQUIPMENT
100
AcDbPolyline
 90
4
 70
1
 10
603.0
 20
160.0
 10
617.0
 20
160.0
 10
613.5
 20
175.0
 10
606.5
 20
175.0
  0
MTEXT
  5
17B
330
17
100
AcDbEntity
  8
C-TEXT
100
AcDbMText
 10
610.0
 20
162.5
 30
0.0
 40
2.1
 41
38.0
 71
2
  1
避雷器
  7
HZTXT
  0
LWPOLYLINE
  5
17C
330
17
100
AcDbEntity
  8
C-FOUNDATION
100
AcDbPolyline
 90
4
 70
1
 10
643.0
 20
153.5
 10
657.0
 20
153.5
 10
657.0
 20
157.5
 10
643.0
 20
157.5
  0
LINE
  5
17D
330
17
100
AcDbEntity
  8
C-STRUCTURE
100
AcDbLine
 10
634.0
 20
155.0
 30
0.0
 11
634.0
 21
280.0
 31
0.0
  0
LINE
  5
17E
330
17
100
AcDbEntity
  8
C-STRUCTURE
100
AcDbLine
 10
666.0
 20
155.0
 30
0.0
 11
666.0
 21
280.0
 31
0.0
  0
LINE
  5
17F
330
17
100
AcDbEntity
  8
C-STRUCTURE
100
AcDbLine
 10
628.0
 20
280.0
 30
0.0
 11
672.0
 21
280.0
 31
0.0
  0
LINE
  5
180
330
17
100
AcDbEntity
  8
C-STRUCTURE
100
AcDbLine
 10
634.0
 20
155.0
 30
0.0
 11
666.0
 21
280.0
 31
0.0
  0
MTEXT
  5
181
330
17
100
AcDbEntity
  8
C-TEXT
100
AcDbMText
 10
650.0
 20
162.5
 30
0.0
 40
2.1
 41
38.0
 71
2
  1
主变构架
  7
HZTXT
  0
LWPOLYLINE
  5
182
330
17
100
AcDbEntity
  8
C-FOUNDATION
100
AcDbPolyline
 90
4
 70
1
 10
710.0
 20
153.5
 10
730.0
 20
153.5
 10
730.0
 20
157.5
 10
710.0
 20
157.5
  0
LWPOLYLINE
  5
183
330
17
100
AcDbEntity
  8
C-EQUIPMENT
100
AcDbPolyline
 90
4
 70
1
 10
670.0
 20
157.5
 10
770.0
 20
157.5
 10
770.0
 20
212.0
 10
670.0
 20
212.0
  0
LINE
  5
184
330
17
100
AcDbEntity
  8
C-EQUIPMENT
100
AcDbLine
 10
698.0
 20
212.0
 30
0.0
 11
698.0
 21
230.0
 31
0.0
  0
LINE
  5
185
330
17
100
AcDbEntity
  8
C-EQUIPMENT
100
AcDbLine
 10
695.2
 20
214.25
 30
0.0
 11
700.8
 21
214.25
 31
0.0
  0
LINE
  5
186
330
17
100
AcDbEntity
  8
C-EQUIPMENT
100
AcDbLine
 10
695.2
 20
216.5
 30
0.0
 11
700.8
 21
216.5
 31
0.0
  0
LINE
  5
187
330
17
100
AcDbEntity
  8
C-EQUIPMENT
100
AcDbLine
 10
695.2
 20
218.75
 30
0.0
 11
700.8
 21
218.75
 31
0.0
  0
LINE
  5
188
330
17
100
AcDbEntity
  8
C-EQUIPMENT
100
AcDbLine
 10
695.2
 20
221.0
 30
0.0
 11
700.8
 21
221.0
 31
0.0
  0
LINE
  5
189
330
17
100
AcDbEntity
  8
C-EQUIPMENT
100
AcDbLine
 10
695.2
 20
223.25
 30
0.0
 11
700.8
 21
223.25
 31
0.0
  0
LINE
  5
18A
330
17
100
AcDbEntity
  8
C-EQUIPMENT
100
AcDbLine
 10
695.2
 20
225.5
 30
0.0
 11
700.8
 21
225.5
 31
0.0
  0
LINE
  5
18B
330
17
100
AcDbEntity
  8
C-EQUIPMENT
100
AcDbLine
 10
695.2
 20
227.75
 30
0.0
 11
700.8
 21
227.75
 31
0.0
  0
LINE
  5
18C
330
17
100
AcDbEntity
  8
C-EQUIPMENT
100
AcDbLine
 10
720.0
 20
212.0
 30
0.0
 11
720.0
 21
230.0
 31
0.0
  0
LINE
  5
18D
330
17
100
AcDbEntity
  8
C-EQUIPMENT
100
AcDbLine
 10
717.2
 20
214.25
 30
0.0
 11
722.8
 21
214.25
 31
0.0
  0
LINE
  5
18E
330
17
100
AcDbEntity
  8
C-EQUIPMENT
100
AcDbLine
 10
717.2
 20
216.5
 30
0.0
 11
722.8
 21
216.5
 31
0.0
  0
LINE
  5
18F
330
17
100
AcDbEntity
  8
C-EQUIPMENT
100
AcDbLine
 10
717.2
 20
218.75
 30
0.0
 11
722.8
 21
218.75
 31
0.0
  0
LINE
  5
190
330
17
100
AcDbEntity
  8
C-EQUIPMENT
100
AcDbLine
 10
717.2
 20
221.0
 30
0.0
 11
722.8
 21
221.0
 31
0.0
  0
LINE
  5
191
330
17
100
AcDbEntity
  8
C-EQUIPMENT
100
AcDbLine
 10
717.2
 20
223.25
 30
0.0
 11
722.8
 21
223.25
 31
0.0
  0
LINE
  5
192
330
17
100
AcDbEntity
  8
C-EQUIPMENT
100
AcDbLine
 10
717.2
 20
225.5
 30
0.0
 11
722.8
 21
225.5
 31
0.0
  0
LINE
  5
193
330
17
100
AcDbEntity
  8
C-EQUIPMENT
100
AcDbLine
 10
717.2
 20
227.75
 30
0.0
 11
722.8
 21
227.75
 31
0.0
  0
LINE
  5
194
330
17
100
AcDbEntity
  8
C-EQUIPMENT
100
AcDbLine
 10
742.0
 20
212.0
 30
0.0
 11
742.0
 21
230.0
 31
0.0
  0
LINE
  5
195
330
17
100
AcDbEntity
  8
C-EQUIPMENT
100
AcDbLine
 10
739.2
 20
214.25
 30
0.0
 11
744.8
 21
214.25
 31
0.0
  0
LINE
  5
196
330
17
100
AcDbEntity
  8
C-EQUIPMENT
100
AcDbLine
 10
739.2
 20
216.5
 30
0.0
 11
744.8
 21
216.5
 31
0.0
  0
LINE
  5
197
330
17
100
AcDbEntity
  8
C-EQUIPMENT
100
AcDbLine
 10
739.2
 20
218.75
 30
0.0
 11
744.8
 21
218.75
 31
0.0
  0
LINE
  5
198
330
17
100
AcDbEntity
  8
C-EQUIPMENT
100
AcDbLine
 10
739.2
 20
221.0
 30
0.0
 11
744.8
 21
221.0
 31
0.0
  0
LINE
  5
199
330
17
100
AcDbEntity
  8
C-EQUIPMENT
100
AcDbLine
 10
739.2
 20
223.25
 30
0.0
 11
744.8
 21
223.25
 31
0.0
  0
LINE
  5
19A
330
17
100
AcDbEntity
  8
C-EQUIPMENT
100
AcDbLine
 10
739.2
 20
225.5
 30
0.0
 11
744.8
 21
225.5
 31
0.0
  0
LINE
  5
19B
330
17
100
AcDbEntity
  8
C-EQUIPMENT
100
AcDbLine
 10
739.2
 20
227.75
 30
0.0
 11
744.8
 21
227.75
 31
0.0
  0
MTEXT
  5
19C
330
17
100
AcDbEntity
  8
C-TEXT
100
AcDbMText
 10
720.0
 20
185.0
 30
0.0
 40
2.8
 41
80.0
 71
5
  1
T1/T2\P180MVA
  7
HZTXT
  0
MTEXT
  5
19D
330
17
100
AcDbEntity
  8
C-TEXT
100
AcDbMText
 10
720.0
 20
162.5
 30
0.0
 40
2.1
 41
80.0
 71
2
  1
180MVA主变
  7
HZTXT
  0
SPLINE
  5
19E
330
17
100
AcDbEntity
  8
C-CONDUCTOR
100
AcDbSpline
 70
0
 71
3
 72
0
 73
0
 74
4
 11
450.0
 21
245.0
 31
0.0
 11
461.2
 21
245.0
 31
0.0
 11
470.8
 21
211.0
 31
0.0
 11
482.0
 21
211.0
 31
0.0
  0
SPLINE
  5
19F
330
17
100
AcDbEntity
  8
C-CONDUCTOR
100
AcDbSpline
 70
0
 71
3
 72
0
 73
0
 74
4
 11
498.0
 21
211.0
 31
0.0
 11
506.925
 21
211.0
 31
0.0
 11
514.575
 21
210.0
 31
0.0
 11
523.5
 21
210.0
 31
0.0
  0
SPLINE
  5
1A0
330
17
100
AcDbEntity
  8
C-CONDUCTOR
100
AcDbSpline
 70
0
 71
3
 72
0
 73
0
 74
4
 11
536.5
 21
210.0
 31
0.0
 11
548.225
 21
210.0
 31
0.0
 11
558.275
 21
205.0
 31
0.0
 11
570.0
 21
205.0
 31
0.0
  0
SPLINE
  5
1A1
330
17
100
AcDbEntity
  8
C-CONDUCTOR
100
AcDbSpline
 70
0
 71
3
 72
0
 73
0
 74
4
 11
570.0
 21
205.0
 31
0.0
 11
598.0
 21
205.0
 31
0.0
 11
622.0
 21
270.0
 31
0.0
 11
650.0
 21
270.0
 31
0.0
  0
SPLINE
  5
1A2
330
17
100
AcDbEntity
  8
C-CONDUCTOR
100
AcDbSpline
 70
0
 71
3
 72
0
 73
0
 74
4
 11
650.0
 21
270.0
 31
0.0
 11
674.5
 21
270.0
 31
0.0
 11
695.5
 21
230.0
 31
0.0
 11
720.0
 21
230.0
 31
0.0
  0
LINE
  5
1A3
330
17
100
AcDbEntity
  8
C-CONDUCTOR
100
AcDbLine
 10
570.0
 20
205.0
 30
0.0
 11
570.0
 21
213.0
 31
0.0
  0
CIRCLE
  5
1A4
330
17
100
AcDbEntity
  8
C-CONDUCTOR
100
AcDbCircle
 10
570.0
 20
205.0
 30
0.0
 40
1.0
  0
LWPOLYLINE
  5
1A5
330
17
100
AcDbEntity
  8
C-CONDUCTOR
100
AcDbPolyline
 90
3
 70
0
 10
570.0
 20
213.0
 10
610.0
 20
213.0
 10
610.0
 20
205.0
  0
CIRCLE
  5
1A6
330
17
100
AcDbEntity
  8
C-CONDUCTOR
100
AcDbCircle
 10
610.0
 20
205.0
 30
0.0
 40
0.8
  0
LINE
  5
1A7
330
17
100
AcDbEntity
  8
C-DIM
100
AcDbLine
 10
450.0
 20
155.0
 30
0.0
 11
450.0
 21
142.0
 31
0.0
  0
LINE
  5
1A8
330
17
100
AcDbEntity
  8
C-DIM
100
AcDbLine
 10
490.0
 20
155.0
 30
0.0
 11
490.0
 21
142.0
 31
0.0
  0
LINE
  5
1A9
330
17
100
AcDbEntity
  8
C-DIM
100
AcDbLine
 10
450.0
 20
142.0
 30
0.0
 11
490.0
 21
142.0
 31
0.0
  0
LINE
  5
1AA
330
17
100
AcDbEntity
  8
C-DIM
100
AcDbLine
 10
448.5
 20
140.5
 30
0.0
 11
451.5
 21
143.5
 31
0.0
  0
LINE
  5
1AB
330
17
100
AcDbEntity
  8
C-DIM
100
AcDbLine
 10
488.5
 20
140.5
 30
0.0
 11
491.5
 21
143.5
 31
0.0
  0
MTEXT
  5
1AC
330
17
100
AcDbEntity
  8
C-DIM
100
AcDbMText
 10
470.0
 20
144.0
 30
0.0
 40
2.5
 41
40.0
 71
8
  1
4.0
  7
HZTXT
  0
LINE
  5
1AD
330
17
100
AcDbEntity
  8
C-DIM
100
AcDbLine
 10
490.0
 20
155.0
 30
0.0
 11
490.0
 21
134.0
 31
0.0
  0
LINE
  5
1AE
330
17
100
AcDbEntity
  8
C-DIM
100
AcDbLine
 10
530.0
 20
155.0
 30
0.0
 11
530.0
 21
134.0
 31
0.0
  0
LINE
  5
1AF
330
17
100
AcDbEntity
  8
C-DIM
100
AcDbLine
 10
490.0
 20
134.0
 30
0.0
 11
530.0
 21
134.0
 31
0.0
  0
LINE
  5
1B0
330
17
100
AcDbEntity
  8
C-DIM
100
AcDbLine
 10
488.5
 20
132.5
 30
0.0
 11
491.5
 21
135.5
 31
0.0
  0
LINE
  5
1B1
330
17
100
AcDbEntity
  8
C-DIM
100
AcDbLine
 10
528.5
 20
132.5
 30
0.0
 11
531.5
 21
135.5
 31
0.0
  0
MTEXT
  5
1B2
330
17
100
AcDbEntity
  8
C-DIM
100
AcDbMText
 10
510.0
 20
136.0
 30
0.0
 40
2.5
 41
40.0
 71
8
  1
4.0
  7
HZTXT
  0
LINE
  5
1B3
330
17
100
AcDbEntity
  8
C-DIM
100
AcDbLine
 10
530.0
 20
155.0
 30
0.0
 11
530.0
 21
142.0
 31
0.0
  0
LINE
  5
1B4
330
17
100
AcDbEntity
  8
C-DIM
100
AcDbLine
 10
570.0
 20
155.0
 30
0.0
 11
570.0
 21
142.0
 31
0.0
  0
LINE
  5
1B5
330
17
100
AcDbEntity
  8
C-DIM
100
AcDbLine
 10
530.0
 20
142.0
 30
0.0
 11
570.0
 21
142.0
 31
0.0
  0
LINE
  5
1B6
330
17
100
AcDbEntity
  8
C-DIM
100
AcDbLine
 10
528.5
 20
140.5
 30
0.0
 11
531.5
 21
143.5
 31
0.0
  0
LINE
  5
1B7
330
17
100
AcDbEntity
  8
C-DIM
100
AcDbLine
 10
568.5
 20
140.5
 30
0.0
 11
571.5
 21
143.5
 31
0.0
  0
MTEXT
  5
1B8
330
17
100
AcDbEntity
  8
C-DIM
100
AcDbMText
 10
550.0
 20
144.0
 30
0.0
 40
2.5
 41
40.0
 71
8
  1
4.0
  7
HZTXT
  0
LINE
  5
1B9
330
17
100
AcDbEntity
  8
C-DIM
100
AcDbLine
 10
570.0
 20
155.0
 30
0.0
 11
570.0
 21
134.0
 31
0.0
  0
LINE
  5
1BA
330
17
100
AcDbEntity
  8
C-DIM
100
AcDbLine
 10
610.0
 20
155.0
 30
0.0
 11
610.0
 21
134.0
 31
0.0
  0
LINE
  5
1BB
330
17
100
AcDbEntity
  8
C-DIM
100
AcDbLine
 10
570.0
 20
134.0
 30
0.0
 11
610.0
 21
134.0
 31
0.0
  0
LINE
  5
1BC
330
17
100
AcDbEntity
  8
C-DIM
100
AcDbLine
 10
568.5
 20
132.5
 30
0.0
 11
571.5
 21
135.5
 31
0.0
  0
LINE
  5
1BD
330
17
100
AcDbEntity
  8
C-DIM
100
AcDbLine
 10
608.5
 20
132.5
 30
0.0
 11
611.5
 21
135.5
 31
0.0
  0
MTEXT
  5
1BE
330
17
100
AcDbEntity
  8
C-DIM
100
AcDbMText
 10
590.0
 20
136.0
 30
0.0
 40
2.5
 41
40.0
 71
8
  1
4.0
  7
HZTXT
  0
LINE
  5
1BF
330
17
100
AcDbEntity
  8
C-DIM
100
AcDbLine
 10
610.0
 20
155.0
 30
0.0
 11
610.0
 21
142.0
 31
0.0
  0
LINE
  5
1C0
330
17
100
AcDbEntity
  8
C-DIM
100
AcDbLine
 10
650.0
 20
155.0
 30
0.0
 11
650.0
 21
142.0
 31
0.0
  0
LINE
  5
1C1
330
17
100
AcDbEntity
  8
C-DIM
100
AcDbLine
 10
610.0
 20
142.0
 30
0.0
 11
650.0
 21
142.0
 31
0.0
  0
LINE
  5
1C2
330
17
100
AcDbEntity
  8
C-DIM
100
AcDbLine
 10
608.5
 20
140.5
 30
0.0
 11
611.5
 21
143.5
 31
0.0
  0
LINE
  5
1C3
330
17
100
AcDbEntity
  8
C-DIM
100
AcDbLine
 10
648.5
 20
140.5
 30
0.0
 11
651.5
 21
143.5
 31
0.0
  0
MTEXT
  5
1C4
330
17
100
AcDbEntity
  8
C-DIM
100
AcDbMText
 10
630.0
 20
144.0
 30
0.0
 40
2.5
 41
40.0
 71
8
  1
4.0
  7
HZTXT
  0
LINE
  5
1C5
330
17
100
AcDbEntity
  8
C-DIM
100
AcDbLine
 10
650.0
 20
155.0
 30
0.0
 11
650.0
 21
134.0
 31
0.0
  0
LINE
  5
1C6
330
17
100
AcDbEntity
  8
C-DIM
100
AcDbLine
 10
720.0
 20
155.0
 30
0.0
 11
720.0
 21
134.0
 31
0.0
  0
LINE
  5
1C7
330
17
100
AcDbEntity
  8
C-DIM
100
AcDbLine
 10
650.0
 20
134.0
 30
0.0
 11
720.0
 21
134.0
 31
0.0
  0
LINE
  5
1C8
330
17
100
AcDbEntity
  8
C-DIM
100
AcDbLine
 10
648.5
 20
132.5
 30
0.0
 11
651.5
 21
135.5
 31
0.0
  0
LINE
  5
1C9
330
17
100
AcDbEntity
  8
C-DIM
100
AcDbLine
 10
718.5
 20
132.5
 30
0.0
 11
721.5
 21
135.5
 31
0.0
  0
MTEXT
  5
1CA
330
17
100
AcDbEntity
  8
C-DIM
100
AcDbMText
 10
685.0
 20
136.0
 30
0.0
 40
2.5
 41
70.0
 71
8
  1
7.0
  7
HZTXT
  0
LINE
  5
1CB
330
17
100
AcDbEntity
  8
C-DIM
100
AcDbLine
 10
430.0
 20
155.0
 30
0.0
 11
430.0
 21
131.0
 31
0.0
  0
LINE
  5
1CC
330
17
100
AcDbEntity
  8
C-DIM
100
AcDbLine
 10
770.0
 20
155.0
 30
0.0
 11
770.0
 21
131.0
 31
0.0
  0
LINE
  5
1CD
330
17
100
AcDbEntity
  8
C-DIM
100
AcDbLine
 10
430.0
 20
131.0
 30
0.0
 11
770.0
 21
131.0
 31
0.0
  0
LINE
  5
1CE
330
17
100
AcDbEntity
  8
C-DIM
100
AcDbLine
 10
428.5
 20
129.5
 30
0.0
 11
431.5
 21
132.5
 31
0.0
  0
LINE
  5
1CF
330
17
100
AcDbEntity
  8
C-DIM
100
AcDbLine
 10
768.5
 20
129.5
 30
0.0
 11
771.5
 21
132.5
 31
0.0
  0
MTEXT
  5
1D0
330
17
100
AcDbEntity
  8
C-DIM
100
AcDbMText
 10
600.0
 20
133.0
 30
0.0
 40
2.5
 41
340.0
 71
8
  1
总长 34.0m
  7
HZTXT
  0
LINE
  5
1D1
330
17
100
AcDbEntity
  8
C-DIM
100
AcDbLine
 10
450.0
 20
155.0
 30
0.0
 11
420.0
 21
155.0
 31
0.0
  0
LINE
  5
1D2
330
17
100
AcDbEntity
  8
C-DIM
100
AcDbLine
 10
450.0
 20
245.0
 30
0.0
 11
420.0
 21
245.0
 31
0.0
  0
LINE
  5
1D3
330
17
100
AcDbEntity
  8
C-DIM
100
AcDbLine
 10
420.0
 20
155.0
 30
0.0
 11
420.0
 21
245.0
 31
0.0
  0
LINE
  5
1D4
330
17
100
AcDbEntity
  8
C-DIM
100
AcDbLine
 10
418.5
 20
153.5
 30
0.0
 11
421.5
 21
156.5
 31
0.0
  0
LINE
  5
1D5
330
17
100
AcDbEntity
  8
C-DIM
100
AcDbLine
 10
418.5
 20
243.5
 30
0.0
 11
421.5
 21
246.5
 31
0.0
  0
MTEXT
  5
1D6
330
17
100
AcDbEntity
  8
C-DIM
100
AcDbMText
 10
418.0
 20
200.0
 30
0.0
 40
2.5
 41
90.0
 71
8
  1
母线 +9.0m
  7
HZTXT
 50
90.0
  0
LINE
  5
1D7
330
17
100
AcDbEntity
  8
C-DIM
100
AcDbLine
 10
750.0
 20
155.0
 30
0.0
 11
780.0
 21
155.0
 31
0.0
  0
LINE
  5
1D8
330
17
100
AcDbEntity
  8
C-DIM
100
AcDbLine
 10
750.0
 20
270.0
 30
0.0
 11
780.0
 21
270.0
 31
0.0
  0
LINE
  5
1D9
330
17
100
AcDbEntity
  8
C-DIM
100
AcDbLine
 10
780.0
 20
155.0
 30
0.0
 11
780.0
 21
270.0
 31
0.0
  0
LINE
  5
1DA
330
17
100
AcDbEntity
  8
C-DIM
100
AcDbLine
 10
778.5
 20
153.5
 30
0.0
 11
781.5
 21
156.5
 31
0.0
  0
LINE
  5
1DB
330
17
100
AcDbEntity
  8
C-DIM
100
AcDbLine
 10
778.5
 20
268.5
 30
0.0
 11
781.5
 21
271.5
 31
0.0
  0
MTEXT
  5
1DC
330
17
100
AcDbEntity
  8
C-DIM
100
AcDbMText
 10
778.0
 20
212.5
 30
0.0
 40
2.5
 41
115.0
 71
8
  1
最高 +11.5m
  7
HZTXT
 50
90.0
  0
LINE
  5
1DD
330
17
100
AcDbEntity
  8
C-DIM
100
AcDbLine
 10
470.0
 20
155.0
 30
0.0
 11
460.0
 21
155.0
 31
0.0
  0
LINE
  5
1DE
330
17
100
AcDbEntity
  8
C-DIM
100
AcDbLine
 10
470.0
 20
198.0
 30
0.0
 11
460.0
 21
198.0
 31
0.0
  0
LINE
  5
1DF
330
17
100
AcDbEntity
  8
C-DIM
100
AcDbLine
 10
460.0
 20
155.0
 30
0.0
 11
460.0
 21
198.0
 31
0.0
  0
LINE
  5
1E0
330
17
100
AcDbEntity
  8
C-DIM
100
AcDbLine
 10
458.5
 20
153.5
 30
0.0
 11
461.5
 21
156.5
 31
0.0
  0
LINE
  5
1E1
330
17
100
AcDbEntity
  8
C-DIM
100
AcDbLine
 10
458.5
 20
196.5
 30
0.0
 11
461.5
 21
199.5
 31
0.0
  0
MTEXT
  5
1E2
330
17
100
AcDbEntity
  8
C-DIM
100
AcDbMText
 10
458.0
 20
176.5
 30
0.0
 40
2.5
 41
43.0
 71
8
  1
C≥4.30m
  7
HZTXT
 50
90.0
  0
CIRCLE
  5
1E3
330
17
100
AcDbEntity
  8
C-BUS
100
AcDbCircle
 10
480.0
 20
340.0
 30
0.0
 40
1.7999999999999998
  0
CIRCLE
  5
1E4
330
17
100
AcDbEntity
  8
C-BUS
100
AcDbCircle
 10
520.0
 20
340.0
 30
0.0
 40
1.7999999999999998
  0
CIRCLE
  5
1E5
330
17
100
AcDbEntity
  8
C-BUS
100
AcDbCircle
 10
560.0
 20
340.0
 30
0.0
 40
1.7999999999999998
  0
LINE
  5
1E6
330
17
100
AcDbEntity
  8
C-DIM
100
AcDbLine
 10
480.0
 20
340.0
 30
0.0
 11
480.0
 21
327.0
 31
0.0
  0
LINE
  5
1E7
330
17
100
AcDbEntity
  8
C-DIM
100
AcDbLine
 10
520.0
 20
340.0
 30
0.0
 11
520.0
 21
327.0
 31
0.0
  0
LINE
  5
1E8
330
17
100
AcDbEntity
  8
C-DIM
100
AcDbLine
 10
480.0
 20
327.0
 30
0.0
 11
520.0
 21
327.0
 31
0.0
  0
LINE
  5
1E9
330
17
100
AcDbEntity
  8
C-DIM
100
AcDbLine
 10
478.5
 20
325.5
 30
0.0
 11
481.5
 21
328.5
 31
0.0
  0
LINE
  5
1EA
330
17
100
AcDbEntity
  8
C-DIM
100
AcDbLine
 10
518.5
 20
325.5
 30
0.0
 11
521.5
 21
328.5
 31
0.0
  0
MTEXT
  5
1EB
330
17
100
AcDbEntity
  8
C-DIM
100
AcDbMText
 10
500.0
 20
329.0
 30
0.0
 40
2.5
 41
40.0
 71
8
  1
4.0m
  7
HZTXT
  0
LINE
  5
1EC
330
17
100
AcDbEntity
  8
C-DIM
100
AcDbLine
 10
520.0
 20
340.0
 30
0.0
 11
520.0
 21
327.0
 31
0.0
  0
LINE
  5
1ED
330
17
100
AcDbEntity
  8
C-DIM
100
AcDbLine
 10
560.0
 20
340.0
 30
0.0
 11
560.0
 21
327.0
 31
0.0
  0
LINE
  5
1EE
330
17
100
AcDbEntity
  8
C-DIM
100
AcDbLine
 10
520.0
 20
327.0
 30
0.0
 11
560.0
 21
327.0
 31
0.0
  0
LINE
  5
1EF
330
17
100
AcDbEntity
  8
C-DIM
100
AcDbLine
 10
518.5
 20
325.5
 30
0.0
 11
521.5
 21
328.5
 31
0.0
  0
LINE
  5
1F0
330
17
100
AcDbEntity
  8
C-DIM
100
AcDbLine
 10
558.5
 20
325.5
 30
0.0
 11
561.5
 21
328.5
 31
0.0
  0
MTEXT
  5
1F1
330
17
100
AcDbEntity
  8
C-DIM
100
AcDbMText
 10
540.0
 20
329.0
 30
0.0
 40
2.5
 41
40.0
 71
8
  1
4.0m
  7
HZTXT
  0
MTEXT
  5
1F2
330
17
100
AcDbEntity
  8
C-NOTE
100
AcDbMText
 10
520.0
 20
360.0
 30
0.0
 40
2.4
 41
120.0
 71
5
  1
三相母线横向间距示意
  7
HZTXT
  0
MTEXT
  5
1F3
330
17
100
AcDbEntity
  8
C-NOTE
100
AcDbMText
 10
45.0
 20
535.0
 30
0.0
 40
2.8
 41
360.0
 71
1
  1
220kV屋外最小净距（课程表7-2，mm）\PA1=1800  A2=2000  B1=2550  B2=1900  C=4300  D=3800
  7
HZTXT
  0
MTEXT
  5
1F4
330
17
100
AcDbEntity
  8
C-NOTE
100
AcDbMText
 10
405.0
 20
535.0
 30
0.0
 40
2.5
 41
405.0
 71
1
  1
1. 断面标高以场地±0.000为基准；尺寸单位为m，电气净距表单位为mm。
  7
HZTXT
  0
MTEXT
  5
1F5
330
17
100
AcDbEntity
  8
C-NOTE
100
AcDbMText
 10
405.0
 20
527.0
 30
0.0
 40
2.5
 41
405.0
 71
1
  1
2. 无遮栏裸导体对地C≥4.30m；本图最低主要带电端子标高5.00m。
  7
HZTXT
  0
MTEXT
  5
1F6
330
17
100
AcDbEntity
  8
C-NOTE
100
AcDbMText
 10
405.0
 20
519.0
 30
0.0
 40
2.5
 41
405.0
 71
1
  1
3. 相间距采用4.00m，分别大于A2=2.00m与课程检修布置要求。
  7
HZTXT
  0
MTEXT
  5
1F7
330
17
100
AcDbEntity
  8
C-NOTE
100
AcDbMText
 10
405.0
 20
511.0
 30
0.0
 40
2.5
 41
405.0
 71
1
  1
4. 设备高度与占位为课程几何假设，正式工程必须由厂家外形图、端子荷载和基础图覆盖。
  7
HZTXT
  0
MTEXT
  5
1F8
330
17
100
AcDbEntity
  8
C-NOTE
100
AcDbMText
 10
405.0
 20
503.0
 30
0.0
 40
2.5
 41
405.0
 71
1
  1
5. 课程设计假设：海拔≤1000m、污秽d级；超过1000m或污区更严时重新校核绝缘与净距。
  7
HZTXT
  0
MTEXT
  5
1F9
330
17
100
AcDbEntity
  8
C-NOTE
100
AcDbMText
 10
405.0
 20
495.0
 30
0.0
 40
2.5
 41
405.0
 71
1
  1
6. 净距表采用课程第七章表7-2的220J列；正式工程或施工前必须按DL/T 5352-2018正文复核。
  7
HZTXT
  0
LINE
  5
1FA
330
17
100
AcDbEntity
  8
C-CENTER
100
AcDbLine
 10
410.0
 20
90.0
 30
0.0
 11
410.0
 21
455.0
 31
0.0
  0
ENDSEC
  0
SECTION
  2
OBJECTS
  0
DICTIONARY
  5
A
330
0
100
AcDbDictionary
281
1
  3
ACAD_COLOR
350
B
  3
ACAD_GROUP
350
C
  3
ACAD_LAYOUT
350
D
  3
ACAD_MATERIAL
350
E
  3
ACAD_MLEADERSTYLE
350
F
  3
ACAD_MLINESTYLE
350
10
  3
ACAD_PLOTSETTINGS
350
11
  3
ACAD_PLOTSTYLENAME
350
12
  3
ACAD_SCALELIST
350
14
  3
ACAD_TABLESTYLE
350
15
  3
ACAD_VISUALSTYLE
350
16
  3
EZDXF_META
350
2D
  0
DICTIONARY
  5
B
330
A
100
AcDbDictionary
281
1
  0
DICTIONARY
  5
C
330
A
100
AcDbDictionary
281
1
  0
DICTIONARY
  5
D
330
A
100
AcDbDictionary
281
1
  3
Model
350
1A
  3
Layout1
350
1E
  0
DICTIONARY
  5
E
330
A
100
AcDbDictionary
281
1
  3
ByBlock
350
1F
  3
ByLayer
350
20
  3
Global
350
21
  0
DICTIONARY
  5
F
330
A
100
AcDbDictionary
281
1
  3
Standard
350
2C
  0
DICTIONARY
  5
10
330
A
100
AcDbDictionary
281
1
  3
Standard
350
22
  0
DICTIONARY
  5
11
330
A
100
AcDbDictionary
281
1
  0
ACDBDICTIONARYWDFLT
  5
12
330
A
100
AcDbDictionary
281
1
  3
Normal
350
13
100
AcDbDictionaryWithDefault
340
13
  0
ACDBPLACEHOLDER
  5
13
330
12
  0
DICTIONARY
  5
14
330
A
100
AcDbDictionary
281
1
  0
DICTIONARY
  5
15
330
A
100
AcDbDictionary
281
1
  0
DICTIONARY
  5
16
330
A
100
AcDbDictionary
281
1
  0
LAYOUT
  5
1A
330
D
100
AcDbPlotSettings
  1

  4
A3
  6

 40
7.5
 41
20.0
 42
7.5
 43
20.0
 44
420.0
 45
297.0
 46
0.0
 47
0.0
 48
0.0
 49
0.0
140
0.0
141
0.0
142
1.0
143
1.0
 70
1024
 72
1
 73
0
 74
5
  7

 75
16
 76
0
 77
2
 78
300
147
1.0
148
0.0
149
0.0
100
AcDbLayout
  1
Model
 70
1
 71
0
 10
0.0
 20
0.0
 11
420.0
 21
297.0
 12
0.0
 22
0.0
 32
0.0
 14
1e+20
 24
1e+20
 34
1e+20
 15
-1e+20
 25
-1e+20
 35
-1e+20
146
0.0
 13
0.0
 23
0.0
 33
0.0
 16
1.0
 26
0.0
 36
0.0
 17
0.0
 27
1.0
 37
0.0
 76
1
330
17
  0
LAYOUT
  5
1E
330
D
100
AcDbPlotSettings
  1

  4
A3
  6

 40
7.5
 41
20.0
 42
7.5
 43
20.0
 44
420.0
 45
297.0
 46
0.0
 47
0.0
 48
0.0
 49
0.0
140
0.0
141
0.0
142
1.0
143
1.0
 70
0
 72
1
 73
0
 74
5
  7

 75
16
 76
0
 77
2
 78
300
147
1.0
148
0.0
149
0.0
100
AcDbLayout
  1
Layout1
 70
1
 71
1
 10
0.0
 20
0.0
 11
420.0
 21
297.0
 12
0.0
 22
0.0
 32
0.0
 14
1e+20
 24
1e+20
 34
1e+20
 15
-1e+20
 25
-1e+20
 35
-1e+20
146
0.0
 13
0.0
 23
0.0
 33
0.0
 16
1.0
 26
0.0
 36
0.0
 17
0.0
 27
1.0
 37
0.0
 76
1
330
1B
  0
MATERIAL
  5
1F
102
{ACAD_REACTORS
330
E
102
}
330
E
100
AcDbMaterial
  1
ByBlock
  2

 70
0
 40
1.0
 71
1
 41
1.0
 91
-1023410177
 42
1.0
 72
1
  3

 73
1
 74
1
 75
1
 44
0.5
 73
0
 45
1.0
 46
1.0
 77
1
  4

 78
1
 79
1
170
1
 48
1.0
171
1
  6

172
1
173
1
174
1
140
1.0
141
1.0
175
1
  7

176
1
177
1
178
1
143
1.0
179
1
  8

270
1
271
1
272
1
145
1.0
146
1.0
273
1
  9

274
1
275
1
276
1
 42
1.0
 72
1
  3

 73
1
 74
1
 75
1
 94
63
  0
MATERIAL
  5
20
102
{ACAD_REACTORS
330
E
102
}
330
E
100
AcDbMaterial
  1
ByLayer
  2

 70
0
 40
1.0
 71
1
 41
1.0
 91
-1023410177
 42
1.0
 72
1
  3

 73
1
 74
1
 75
1
 44
0.5
 73
0
 45
1.0
 46
1.0
 77
1
  4

 78
1
 79
1
170
1
 48
1.0
171
1
  6

172
1
173
1
174
1
140
1.0
141
1.0
175
1
  7

176
1
177
1
178
1
143
1.0
179
1
  8

270
1
271
1
272
1
145
1.0
146
1.0
273
1
  9

274
1
275
1
276
1
 42
1.0
 72
1
  3

 73
1
 74
1
 75
1
 94
63
  0
MATERIAL
  5
21
102
{ACAD_REACTORS
330
E
102
}
330
E
100
AcDbMaterial
  1
Global
  2

 70
0
 40
1.0
 71
1
 41
1.0
 91
-1023410177
 42
1.0
 72
1
  3

 73
1
 74
1
 75
1
 44
0.5
 73
0
 45
1.0
 46
1.0
 77
1
  4

 78
1
 79
1
170
1
 48
1.0
171
1
  6

172
1
173
1
174
1
140
1.0
141
1.0
175
1
  7

176
1
177
1
178
1
143
1.0
179
1
  8

270
1
271
1
272
1
145
1.0
146
1.0
273
1
  9

274
1
275
1
276
1
 42
1.0
 72
1
  3

 73
1
 74
1
 75
1
 94
63
  0
MLINESTYLE
  5
22
102
{ACAD_REACTORS
330
10
102
}
330
10
100
AcDbMlineStyle
  2
Standard
 70
0
  3

 62
256
 51
90.0
 52
90.0
 71
2
 49
0.5
 62
256
  6
BYLAYER
 49
-0.5
 62
256
  6
BYLAYER
  0
MLEADERSTYLE
  5
2C
102
{ACAD_REACTORS
330
F
102
}
330
F
100
AcDbMLeaderStyle
179
2
170
2
171
1
172
0
 90
2
 40
0.0
 41
0.0
173
1
 91
-1056964608
 92
-2
290
1
 42
2.0
291
1
 43
8.0
  3
Standard
 44
4.0
300

342
29
174
1
175
1
176
0
178
1
 93
-1056964608
 45
4.0
292
0
297
0
 46
4.0
 94
-1056964608
 47
1.0
 49
1.0
140
1.0
294
1
141
0.0
177
0
142
1.0
295
0
296
0
143
3.75
271
0
272
9
273
9
  0
DICTIONARY
  5
2D
330
A
100
AcDbDictionary
280
1
281
1
  3
CREATED_BY_EZDXF
350
2E
  3
WRITTEN_BY_EZDXF
350
1FD
  0
DICTIONARYVAR
  5
2E
330
2D
100
DictionaryVariables
280
0
  1
0.0 @ 2000-01-01T00:00:00.000000+00:00
  0
DICTIONARYVAR
  5
1FD
330
2D
100
DictionaryVariables
280
0
  1
0.0 @ 2000-01-01T00:00:00.000000+00:00
  0
ENDSEC
  0
EOF
